<svg width="23" height="20" viewBox="0 0 23 23" fill="none" xmlns="http://www.w3.org/2000/svg">
<g clip-path="url(#clip0_32_1119)">
<path fill-rule="evenodd" clip-rule="evenodd" d="M20.125 6.46875V20.125C20.125 20.8875 19.8221 21.6188 19.2829 22.1579C18.7438 22.6971 18.0125 23 17.25 23H15.8125V21.5625H17.25C17.6312 21.5625 17.9969 21.411 18.2665 21.1415C18.536 20.8719 18.6875 20.5062 18.6875 20.125V6.46875H15.8125C15.2406 6.46875 14.6922 6.24157 14.2878 5.8372C13.8834 5.43282 13.6563 4.88437 13.6562 4.3125V1.4375H5.75C5.36875 1.4375 5.00312 1.58895 4.73353 1.85853C4.46395 2.12812 4.3125 2.49375 4.3125 2.875V15.8125H2.875V2.875C2.875 2.1125 3.1779 1.38124 3.71707 0.842068C4.25623 0.302901 4.9875 0 5.75 0L13.6562 0L20.125 6.46875ZM5.05569 21.3339C5.06392 21.5604 5.11945 21.7827 5.21873 21.9865C5.31801 22.1902 5.45882 22.3709 5.63212 22.517C5.819 22.6722 6.04756 22.793 6.31925 22.8793C6.59237 22.9669 6.91006 23.0101 7.27519 23.0101C7.76106 23.0101 8.17219 22.9339 8.51 22.7829C8.84925 22.632 9.108 22.4207 9.28481 22.1504C9.4645 21.8788 9.55362 21.5639 9.55362 21.2074C9.55362 20.8854 9.48894 20.6181 9.361 20.4024C9.22943 20.1871 9.04352 20.0101 8.82194 19.8893C8.56732 19.7486 8.29307 19.6468 8.00831 19.5874L7.11562 19.3804C6.9052 19.3417 6.70648 19.2551 6.53488 19.1274C6.46929 19.0768 6.41642 19.0116 6.38048 18.937C6.34455 18.8624 6.32653 18.7804 6.32787 18.6976C6.32787 18.4733 6.417 18.2893 6.59381 18.1456C6.7735 18.0004 7.01931 17.9271 7.32981 17.9271C7.53537 17.9271 7.71219 17.9601 7.86169 18.0248C7.99929 18.0809 8.12081 18.1703 8.21531 18.285C8.30379 18.3917 8.3632 18.5195 8.38781 18.6559H9.46594C9.44799 18.3631 9.3484 18.0813 9.17844 17.8422C8.99675 17.5842 8.7483 17.3805 8.45969 17.2529C8.1067 17.098 7.72375 17.0234 7.33844 17.0344C6.91725 17.0344 6.54637 17.1062 6.22294 17.25C5.8995 17.3923 5.64794 17.595 5.46538 17.8552C5.28281 18.1168 5.19225 18.423 5.19225 18.7738C5.19225 19.0627 5.24975 19.3142 5.36762 19.527C5.4855 19.7412 5.65512 19.9151 5.87362 20.0546C6.09212 20.1911 6.35087 20.2946 6.64844 20.3607L7.53681 20.5677C7.83438 20.6382 8.05575 20.7302 8.20237 20.8452C8.27401 20.8998 8.33132 20.9709 8.36938 21.0526C8.40744 21.1342 8.42511 21.2238 8.42087 21.3138C8.42365 21.462 8.38101 21.6075 8.29869 21.7307C8.20613 21.8569 8.07872 21.9533 7.93213 22.0081C7.77256 22.0757 7.57419 22.1088 7.33844 22.1088C7.17025 22.1088 7.01787 22.0901 6.87844 22.0513C6.75136 22.016 6.63092 21.9602 6.52194 21.8859C6.42624 21.824 6.34431 21.743 6.28125 21.6481C6.21819 21.5531 6.17534 21.4462 6.15538 21.3339H5.05569V21.3339ZM1.15862 19.6837C1.15862 19.3272 1.2075 19.0224 1.30525 18.7738C1.39052 18.5441 1.5415 18.3446 1.73938 18.2002C1.94106 18.0653 2.17967 17.9965 2.42219 18.0033C2.63781 18.0033 2.829 18.0493 2.99431 18.1427C3.15631 18.2293 3.29153 18.3585 3.38531 18.5164C3.4855 18.6827 3.54463 18.8705 3.55781 19.0641H4.6575V18.9606C4.64796 18.6958 4.58349 18.4359 4.46817 18.1974C4.35285 17.9588 4.18921 17.7468 3.98762 17.5749C3.78111 17.3999 3.5423 17.267 3.28469 17.1839C3.00418 17.0889 2.7097 17.0418 2.41356 17.0444C1.90181 17.0444 1.46481 17.1508 1.104 17.365C0.744625 17.5777 0.4715 17.8811 0.28175 18.2735C0.094875 18.6674 0 19.136 0 19.6808V20.3967C0 20.9415 0.092 21.4087 0.277438 21.7997C0.46575 22.1892 0.740312 22.4897 1.09969 22.6996C1.45906 22.908 1.89606 23.0115 2.41356 23.0115C2.83475 23.0115 3.20994 22.9324 3.542 22.7757C3.87262 22.6176 4.13712 22.402 4.33262 22.1231C4.53094 21.8377 4.64365 21.5015 4.6575 21.1542V21.045H3.55925C3.5457 21.2301 3.48749 21.4091 3.38963 21.5668C3.29382 21.7195 3.15879 21.8436 2.99862 21.9262C2.81913 22.013 2.62154 22.0559 2.42219 22.0513C2.17932 22.0581 1.93997 21.992 1.73506 21.8615C1.53822 21.7213 1.38838 21.5249 1.30525 21.298C1.20014 21.0095 1.1504 20.7037 1.15862 20.3967V19.6851V19.6837ZM13.0022 22.9008H11.6323L9.70888 17.1523H11.0271L12.3151 21.6631H12.3697L13.6462 17.1523H14.9097L13.0022 22.9023V22.9008Z" fill="#707070"/>
</g>
<defs>
<clipPath id="clip0_32_1119">
<rect width="23" height="23" fill="white"/>
</clipPath>
</defs>
</svg>
