<svg width="26" height="26" viewBox="0 0 26 26" fill="none" xmlns="http://www.w3.org/2000/svg">
<path d="M23.5625 6.15875C23.5614 5.14199 23.157 4.16719 22.438 3.44823C21.7191 2.72927 20.7443 2.32487 19.7275 2.32375H19.0357V1.625C19.0357 1.40951 18.9501 1.20285 18.7978 1.05048C18.6454 0.898102 18.4387 0.8125 18.2232 0.8125C18.0077 0.8125 17.8011 0.898102 17.6487 1.05048C17.4963 1.20285 17.4107 1.40951 17.4107 1.625V2.32375H6.96491V1.625C6.96491 1.40951 6.87931 1.20285 6.72694 1.05048C6.57456 0.898102 6.3679 0.8125 6.15241 0.8125C5.93692 0.8125 5.73026 0.898102 5.57789 1.05048C5.42551 1.20285 5.33991 1.40951 5.33991 1.625V2.32375H4.6475C3.63074 2.32487 2.65594 2.72927 1.93698 3.44823C1.21802 4.16719 0.813618 5.14199 0.8125 6.15875V19.7275C0.813618 20.7443 1.21802 21.7191 1.93698 22.438C2.65594 23.157 3.63074 23.5614 4.6475 23.5625H13.3356C14.6186 24.607 16.2206 25.1805 17.875 25.1875C19.8137 25.1853 21.6724 24.4142 23.0433 23.0433C24.4142 21.6724 25.1853 19.8137 25.1875 17.875C25.1805 16.2206 24.607 14.6186 23.5625 13.3356V6.15875ZM4.6475 3.94875H5.33926V4.64214C5.33926 4.85763 5.42486 5.06429 5.57724 5.21666C5.72961 5.36904 5.93627 5.45464 6.15176 5.45464C6.36725 5.45464 6.57391 5.36904 6.72629 5.21666C6.87866 5.06429 6.96426 4.85763 6.96426 4.64214V3.94875H17.4094V4.64214C17.4094 4.85763 17.495 5.06429 17.6474 5.21666C17.7998 5.36904 18.0064 5.45464 18.2219 5.45464C18.4374 5.45464 18.6441 5.36904 18.7965 5.21666C18.9488 5.06429 19.0344 4.85763 19.0344 4.64214V3.94875H19.7275C20.3134 3.94944 20.8751 4.1825 21.2894 4.5968C21.7038 5.01111 21.9368 5.57283 21.9375 6.15875V6.8484H2.4375V6.15875C2.43819 5.57283 2.67125 5.01111 3.08555 4.5968C3.49986 4.1825 4.06158 3.94944 4.6475 3.94875V3.94875ZM2.4375 19.7275V8.4734H21.9375V11.8004C20.5319 10.8578 18.8427 10.4324 17.1583 10.5969C15.4739 10.7614 13.8989 11.5055 12.7022 12.7022C11.5055 13.8989 10.7614 15.4739 10.5969 17.1583C10.4324 18.8427 10.8578 20.5319 11.8004 21.9375H4.6475C4.0616 21.9368 3.4999 21.7037 3.0856 21.2894C2.6713 20.8751 2.43823 20.3134 2.4375 19.7275V19.7275ZM17.875 23.5625C16.7501 23.5625 15.6505 23.2289 14.7152 22.604C13.7799 21.979 13.0509 21.0908 12.6204 20.0515C12.19 19.0123 12.0773 17.8687 12.2968 16.7654C12.5162 15.6622 13.0579 14.6487 13.8533 13.8533C14.6487 13.0579 15.6622 12.5162 16.7654 12.2968C17.8687 12.0773 19.0123 12.19 20.0515 12.6204C21.0908 13.0509 21.979 13.7799 22.604 14.7152C23.2289 15.6505 23.5625 16.7501 23.5625 17.875C23.5607 19.3829 22.9609 20.8285 21.8947 21.8947C20.8285 22.9609 19.3829 23.5607 17.875 23.5625V23.5625Z" fill="#86C129"/>
<path d="M18.6875 17.5386V14.625C18.6875 14.4095 18.6019 14.2028 18.4495 14.0505C18.2972 13.8981 18.0905 13.8125 17.875 13.8125C17.6595 13.8125 17.4528 13.8981 17.3005 14.0505C17.1481 14.2028 17.0625 14.4095 17.0625 14.625V17.875C17.0625 17.9817 17.0835 18.0874 17.1243 18.1859C17.1652 18.2845 17.2251 18.374 17.3006 18.4494L18.9256 20.0744C19.0788 20.2224 19.284 20.3043 19.4971 20.3025C19.7101 20.3006 19.9139 20.2152 20.0645 20.0645C20.2152 19.9139 20.3006 19.7101 20.3025 19.4971C20.3043 19.284 20.2224 19.0788 20.0744 18.9256L18.6875 17.5386Z" fill="#86C129"/>
</svg>
