<svg width="24" height="24" viewBox="0 0 24 24" fill="none" xmlns="http://www.w3.org/2000/svg">
<path d="M13.5 6H10.5C9.70435 6 8.94129 6.31607 8.37868 6.87868C7.81607 7.44129 7.5 8.20435 7.5 9V13.875H16.5V9C16.5 8.20435 16.1839 7.44129 15.6213 6.87868C15.0587 6.31607 14.2956 6 13.5 6Z" fill="#FF8395"/>
<path d="M12 6C13.2426 6 14.25 4.99264 14.25 3.75C14.25 2.50736 13.2426 1.5 12 1.5C10.7574 1.5 9.75 2.50736 9.75 3.75C9.75 4.99264 10.7574 6 12 6Z" fill="#FFE2D3"/>
<path d="M14.25 6.75H11.25C10.4544 6.75 9.69129 7.06607 9.12868 7.62868C8.56607 8.19129 8.25 8.95435 8.25 9.75V13.875H16.5V9C16.5004 8.38769 16.3126 7.79005 15.9619 7.28813C15.4599 6.93742 14.8623 6.74955 14.25 6.75Z" fill="#FF647A"/>
<path d="M10.5 4.49999C10.5001 4.91288 10.6145 5.31768 10.8304 5.66962C11.2607 5.93275 11.767 6.04346 12.2678 5.98395C12.7686 5.92444 13.2349 5.69816 13.5915 5.34152C13.9482 4.98488 14.1744 4.51863 14.234 4.01779C14.2935 3.51695 14.1828 3.01065 13.9196 2.58037C13.5788 2.37187 13.1886 2.25801 12.7891 2.25052C12.3897 2.24302 11.9955 2.34217 11.6471 2.53773C11.2987 2.7333 11.0088 3.01822 10.8071 3.36313C10.6055 3.70804 10.4995 4.10047 10.5 4.49999Z" fill="#FFCFB6"/>
<path d="M5.62769 10.7072L7.80119 10.1244L10.1322 18.8184L7.95869 19.4012L5.62769 10.7072Z" fill="#F0FAFA"/>
<path d="M11.2554 9.38818L13.4717 8.99668L15.0377 17.8617L12.8214 18.2532L11.2554 9.38818Z" fill="#F0FAFA"/>
<path d="M12.6709 17.4492L13.4887 12.8112C13.5059 12.7142 13.5037 12.6147 13.4823 12.5185C13.461 12.4224 13.4209 12.3313 13.3644 12.2507C13.3079 12.17 13.236 12.1012 13.153 12.0483C13.0699 11.9954 12.9771 11.9594 12.8801 11.9423L11.6625 11.7274L12.6709 17.4492Z" fill="#DFF0F0"/>
<path d="M15.414 10.1322L17.9997 10.589L16.5642 18.7152L13.9785 18.2585L15.414 10.1322Z" fill="#BED2FF"/>
<path d="M9.7931 12.1658L12.7481 12.6878L11.7041 18.5978L8.7491 18.0758L9.7931 12.1658Z" fill="#BED2FF"/>
<path d="M6 13.875H18V22.5H6V13.875Z" fill="#FBD986"/>
<path d="M6.75 13.875H18V22.5H6.75V13.875Z" fill="#FACE63"/>
<path d="M6 13.875H18V18.375H6V13.875Z" fill="#FAB450"/>
<path d="M19.5 17.625H4.5L6 13.875H18L19.5 17.625Z" fill="#FBD986"/>
<path d="M6.75 13.875L5.25 17.625H19.5L18 13.875H6.75Z" fill="#FACE63"/>
</svg>
