<svg width="16" height="23" viewBox="0 0 16 23" fill="none" xmlns="http://www.w3.org/2000/svg">
<path d="M10.0356 1.14294C7.70933 1.14294 5.81696 3.06657 5.81696 5.39288C5.81696 7.71918 7.70933 9.61156 10.0356 9.61156C12.3619 9.61156 14.2856 7.71918 14.2856 5.39288C14.2856 3.06657 12.3619 1.14294 10.0356 1.14294Z" fill="#FFE680"/>
<path d="M14.2856 5.39288C14.2856 3.06657 12.362 1.14294 10.0356 1.14294V9.61156C12.362 9.61156 14.2856 7.71918 14.2856 5.39288Z" fill="#F2D649"/>
<path d="M10.0356 4.92415C9.77744 4.92415 9.56688 4.71403 9.56688 4.45541C9.56688 4.19679 9.77744 3.98666 10.0356 3.98666C10.2938 3.98666 10.5044 4.19679 10.5044 4.45541C10.5044 4.7145 10.714 4.92415 10.9731 4.92415C11.2322 4.92415 11.4419 4.7145 11.4419 4.45541C11.4419 3.8451 11.0488 3.32968 10.5044 3.13552V2.58044C10.5044 2.32135 10.2947 2.11169 10.0356 2.11169C9.77653 2.11169 9.56688 2.32135 9.56688 2.58044V3.13552C9.02245 3.32968 8.62939 3.8451 8.62939 4.45541C8.62939 5.23083 9.2602 5.86164 10.0356 5.86164C10.2938 5.86164 10.5044 6.07176 10.5044 6.33038C10.5044 6.589 10.2938 6.79912 10.0356 6.79912C9.77744 6.79912 9.56688 6.589 9.56688 6.33038C9.56688 6.07129 9.35723 5.86164 9.09814 5.86164C8.83905 5.86164 8.62939 6.07129 8.62939 6.33038C8.62939 6.94068 9.02245 7.45611 9.56688 7.65026V8.20535C9.56688 8.46444 9.77653 8.67409 10.0356 8.67409C10.2947 8.67409 10.5044 8.46444 10.5044 8.20535V7.65026C11.0488 7.45611 11.4419 6.94068 11.4419 6.33038C11.4419 5.55495 10.8111 4.92415 10.0356 4.92415Z" fill="#F2D649"/>
<path d="M10.5044 4.45541C10.5044 4.7145 10.714 4.92415 10.9731 4.92415C11.2322 4.92415 11.4419 4.7145 11.4419 4.45541C11.4419 3.8451 11.0488 3.32968 10.5044 3.13552V2.58044C10.5044 2.32135 10.2947 2.11169 10.0356 2.11169V3.98667C10.2938 3.98667 10.5044 4.19679 10.5044 4.45541Z" fill="#E6B217"/>
<path d="M10.5044 8.20539V7.65031C11.0488 7.45615 11.4419 6.94073 11.4419 6.33042C11.4419 5.555 10.8111 4.92419 10.0356 4.92419V5.86168C10.2938 5.86168 10.5044 6.0718 10.5044 6.33042C10.5044 6.58904 10.2938 6.79917 10.0356 6.79917V8.67414C10.2947 8.67414 10.5044 8.46448 10.5044 8.20539Z" fill="#E6B217"/>
<path d="M11.864 14.1049C12.2079 14.1049 12.4862 13.8266 12.4862 13.4827C12.4862 13.1387 12.2079 12.8605 11.864 12.8605H7.50852H4.11382L2.4651 7.08988C2.37152 6.75995 2.02881 6.57038 1.69585 6.66214C1.36529 6.75692 1.17452 7.10145 1.2693 7.43139L3.71652 15.9967L2.60244 21.611C2.53561 21.9482 2.75314 22.2757 3.09095 22.3431C3.41944 22.4108 3.75348 22.1983 3.82254 21.8552L4.86643 16.5936H7.50852H10.109L11.1531 21.8552C11.2224 22.2 11.5602 22.412 11.8847 22.3431C12.2225 22.2757 12.4412 21.9482 12.3732 21.611L10.8802 14.1049H11.864ZM7.50852 15.3493H4.82495L4.46943 14.1049H7.50852H9.61128L9.86017 15.3493H7.50852Z" fill="#CC6D3D"/>
<path d="M11.1529 21.8552C11.2222 22.2 11.56 22.412 11.8845 22.3432C12.2223 22.2757 12.441 21.9482 12.373 21.611L10.88 14.1049H11.8638C12.2077 14.1049 12.486 13.8266 12.486 13.4827C12.486 13.1388 12.2077 12.8605 11.8638 12.8605H7.50836V14.1049H9.61112L9.86001 15.3493H7.50836V16.5937H10.1088L11.1529 21.8552Z" fill="#B33C24"/>
<path d="M14.9346 20.7701C14.8131 20.4498 14.4546 20.2852 14.1313 20.4091C11.9961 21.2191 9.75223 21.6132 7.50827 21.6132C5.26431 21.6132 2.97891 21.2191 0.843708 20.4091C0.521655 20.287 0.163182 20.4498 0.040442 20.7701C-0.0810953 21.0915 0.0805534 21.4506 0.401362 21.5721C2.67996 22.4362 5.11423 22.8572 7.50827 22.8572C9.9023 22.8572 12.2951 22.4362 14.5737 21.5721C14.8945 21.4506 15.0561 21.0915 14.9346 20.7701Z" fill="#E6A15C"/>
<path d="M14.9347 20.7701C14.8132 20.4498 14.4547 20.2852 14.1314 20.4091C11.9962 21.2191 9.75232 21.6132 7.50836 21.6132V22.8573C9.9024 22.8573 12.2952 22.4362 14.5738 21.5722C14.8946 21.4506 15.0562 21.0915 14.9347 20.7701Z" fill="#CC6D3D"/>
</svg>
