<svg width="15" height="17" viewBox="0 0 15 17" fill="none" xmlns="http://www.w3.org/2000/svg">
<path d="M11.864 8.10486C12.2079 8.10486 12.4862 7.82657 12.4862 7.48266C12.4862 7.13875 12.2079 6.86046 11.864 6.86046H7.50852H4.11382L2.4651 1.08988C2.37152 0.759946 2.02881 0.570381 1.69585 0.662135C1.36529 0.756918 1.17452 1.10145 1.2693 1.43139L3.71652 9.99666L2.60244 15.611C2.53561 15.9482 2.75314 16.2757 3.09095 16.3431C3.41944 16.4108 3.75348 16.1983 3.82254 15.8552L4.86643 10.5936H7.50852H10.109L11.1531 15.8552C11.2224 16.2 11.5602 16.412 11.8847 16.3431C12.2225 16.2757 12.4412 15.9482 12.3732 15.611L10.8802 8.10486H11.864ZM7.50852 9.34927H4.82495L4.46943 8.10486H7.50852H9.61128L9.86017 9.34927H7.50852Z" fill="#CC6D3D"/>
<path d="M11.1529 15.8552C11.2222 16.2 11.56 16.412 11.8845 16.3432C12.2223 16.2757 12.441 15.9482 12.373 15.611L10.88 8.10488H11.8638C12.2077 8.10488 12.486 7.82659 12.486 7.48268C12.486 7.13877 12.2077 6.86047 11.8638 6.86047H7.50836V8.10488H9.61112L9.86001 9.34929H7.50836V10.5937H10.1088L11.1529 15.8552Z" fill="#B33C24"/>
<path d="M14.9346 14.7701C14.8131 14.4498 14.4546 14.2852 14.1313 14.4091C11.9961 15.2191 9.75223 15.6132 7.50827 15.6132C5.26431 15.6132 2.97891 15.2191 0.843708 14.4091C0.521655 14.287 0.163182 14.4498 0.040442 14.7701C-0.0810953 15.0915 0.0805534 15.4506 0.401362 15.5721C2.67996 16.4362 5.11423 16.8572 7.50827 16.8572C9.9023 16.8572 12.2951 16.4362 14.5737 15.5721C14.8945 15.4506 15.0561 15.0915 14.9346 14.7701Z" fill="#E6A15C"/>
</svg>
