<svg width="20" height="24" viewBox="0 0 20 24" fill="none" xmlns="http://www.w3.org/2000/svg">
<path d="M9.30635 8.8225L8.64923 9.95012H9.95435H16.6369C17.6878 9.95012 18.5273 10.6544 18.6236 11.4659C18.6838 11.9732 18.5097 12.4435 18.1811 12.7953L17.7029 13.3073L18.1811 13.8192C19.0453 14.7444 18.623 16.2569 17.3009 16.6021L16.4688 16.8194L16.7972 17.6142C16.8773 17.8081 16.9211 18.0174 16.9211 18.2359C16.9211 19.0008 16.3751 19.682 15.5866 19.8878L14.7545 20.1051L15.0829 20.8999C15.3295 21.4968 15.2088 22.0529 14.8664 22.4809C14.5128 22.923 13.9099 23.2358 13.2056 23.2358H7.59859C4.79163 23.2358 2.86772 22.63 1.27832 22.115V10.81C2.18214 10.3828 3.02524 9.97028 3.96275 9.07183L3.96276 9.07182C4.83467 8.23621 5.43706 6.87557 5.82262 5.5705C6.21465 4.24356 6.4212 2.83961 6.4212 1.80729C6.4212 1.79756 6.42404 1.78409 6.44104 1.76779C6.45863 1.75094 6.48781 1.73584 6.52836 1.73584H7.23565C8.80919 1.73584 10.0466 2.93735 10.0636 4.35226C10.0697 4.86292 10.0019 5.79089 9.8606 6.71512C9.79043 7.17406 9.70422 7.61805 9.60458 7.99834C9.50171 8.39093 9.39662 8.66759 9.30635 8.8225Z" fill="#86C129" stroke="#86C129" stroke-width="1.5"/>
</svg>
