<svg width="22" height="21" viewBox="0 0 22 21" fill="none" xmlns="http://www.w3.org/2000/svg">
<path d="M22 17.4167V13.75C22 13.5069 21.9034 13.2737 21.7315 13.1018C21.5596 12.9299 21.3264 12.8333 21.0833 12.8333C20.8402 12.8333 20.6071 12.9299 20.4352 13.1018C20.2632 13.2737 20.1667 13.5069 20.1667 13.75V17.4167C20.1667 17.6598 20.0701 17.8929 19.8982 18.0648C19.7263 18.2368 19.4931 18.3333 19.25 18.3333H2.75C2.50688 18.3333 2.27373 18.2368 2.10182 18.0648C1.92991 17.8929 1.83333 17.6598 1.83333 17.4167V13.75C1.83333 13.5069 1.73676 13.2737 1.56485 13.1018C1.39294 12.9299 1.15978 12.8333 0.916667 12.8333C0.673552 12.8333 0.440394 12.9299 0.268486 13.1018C0.0965773 13.2737 0 13.5069 0 13.75V17.4167C0 18.146 0.289731 18.8455 0.805456 19.3612C1.32118 19.8769 2.02065 20.1667 2.75 20.1667H19.25C19.9793 20.1667 20.6788 19.8769 21.1945 19.3612C21.7103 18.8455 22 18.146 22 17.4167ZM16.1517 12.6317L11.5683 16.2983C11.4065 16.4262 11.2063 16.4958 11 16.4958C10.7937 16.4958 10.5935 16.4262 10.4317 16.2983L5.84833 12.6317C5.68133 12.474 5.57958 12.2594 5.56322 12.0304C5.54686 11.8013 5.61707 11.5745 5.75997 11.3947C5.90287 11.2149 6.10804 11.0953 6.33489 11.0596C6.56174 11.0238 6.79375 11.0745 6.985 11.2017L10.0833 13.6767V0.916667C10.0833 0.673551 10.1799 0.440394 10.3518 0.268486C10.5237 0.0965773 10.7569 0 11 0C11.2431 0 11.4763 0.0965773 11.6482 0.268486C11.8201 0.440394 11.9167 0.673551 11.9167 0.916667V13.6767L15.015 11.2017C15.1073 11.1145 15.2167 11.0475 15.3363 11.0049C15.4558 10.9622 15.5829 10.9449 15.7095 10.9539C15.8362 10.963 15.9595 10.9982 16.0718 11.0574C16.1841 11.1166 16.2828 11.1985 16.3618 11.2979C16.4408 11.3972 16.4983 11.5119 16.5306 11.6347C16.563 11.7574 16.5695 11.8855 16.5497 12.0109C16.53 12.1363 16.4844 12.2562 16.4159 12.3631C16.3473 12.4699 16.2574 12.5614 16.1517 12.6317Z" fill="#86C129"/>
</svg>
