<svg width="20" height="25" viewBox="0 0 20 25" fill="none" xmlns="http://www.w3.org/2000/svg">
<path d="M9.29551 9.19453L8.67243 10.3102H9.95031H16.6317C17.6552 10.3102 18.5166 11.0291 18.6175 11.9167C18.6802 12.4678 18.4975 12.9733 18.1649 13.345L17.7171 13.8452L18.1649 14.3455C19.0675 15.3537 18.5888 16.9617 17.2879 17.3162L16.4791 17.5365L16.7877 18.3159C16.8702 18.5243 16.9158 18.7505 16.9158 18.9872C16.9158 19.8234 16.3467 20.5337 15.5739 20.7442L14.7651 20.9646L15.0737 21.744C15.5579 22.9666 14.6223 24.2362 13.201 24.2362H7.59496C4.78829 24.2362 2.86664 23.6031 1.27588 23.0652V11.2105C2.18446 10.7625 3.03066 10.3323 3.97122 9.39176L3.97123 9.39175C4.83834 8.5246 5.43763 7.11284 5.82178 5.75604C6.2125 4.37601 6.41789 2.91721 6.41789 1.84726C6.41789 1.78777 6.46542 1.74023 6.52491 1.74023H7.23208C8.77511 1.74023 10.0419 2.97719 10.0594 4.50164C10.0656 5.03887 9.99739 6.01063 9.85577 6.97713C9.78541 7.45736 9.69885 7.92274 9.59857 8.32207C9.49522 8.73367 9.38874 9.02759 9.29551 9.19453Z" fill="white" stroke="#FFB400" stroke-width="1.5"/>
</svg>
