<svg width="22" height="20" viewBox="0 0 22 20" fill="none" xmlns="http://www.w3.org/2000/svg">
<path d="M9.89185 1.83549L1.17972 16.9242C1.02235 17.1967 0.939482 17.5058 0.939453 17.8205C0.939424 18.1352 1.02223 18.4443 1.17955 18.7168C1.33688 18.9893 1.56317 19.2156 1.83567 19.3729C2.10818 19.5302 2.41731 19.613 2.73197 19.613H20.1548C20.4695 19.613 20.7786 19.5302 21.0511 19.3729C21.3236 19.2156 21.5499 18.9893 21.7072 18.7168C21.8646 18.4443 21.9474 18.1352 21.9473 17.8205C21.9473 17.5058 21.8644 17.1967 21.7071 16.9242L12.9959 1.83549C12.8386 1.56306 12.6123 1.33683 12.3399 1.17954C12.0675 1.02226 11.7584 0.939453 11.4439 0.939453C11.1293 0.939453 10.8202 1.02226 10.5478 1.17954C10.2754 1.33683 10.0491 1.56306 9.89185 1.83549Z" fill="#FFB400"/>
</svg>
