<svg width="32" height="32" viewBox="0 0 32 32" fill="none" xmlns="http://www.w3.org/2000/svg">
<circle cx="16" cy="16" r="16" fill="#FFF3E2"/>
<path d="M18.5675 16.0003C18.5675 16.4859 18.4235 16.9605 18.1537 17.3642C17.8839 17.7679 17.5005 18.0826 17.0519 18.2683C16.6033 18.4541 16.1097 18.5027 15.6335 18.4079C15.1573 18.3132 14.7199 18.0793 14.3766 17.7359C14.0333 17.3925 13.7996 16.9551 13.7049 16.4789C13.6103 16.0026 13.659 15.509 13.8449 15.0605C14.0308 14.6119 14.3455 14.2286 14.7493 13.9589C15.1531 13.6893 15.6277 13.5454 16.1133 13.5455C16.7642 13.5457 17.3885 13.8044 17.8487 14.2648C18.3089 14.7251 18.5675 15.3494 18.5675 16.0003Z" stroke="#FCAE30" stroke-width="1.6" stroke-linecap="round" stroke-linejoin="round"/>
<path d="M22.1678 18.4545C22.0589 18.7013 22.0264 18.9751 22.0746 19.2405C22.1228 19.506 22.2493 19.7509 22.438 19.9438L22.4873 19.9931C22.6415 20.1446 22.7642 20.3252 22.8483 20.5244C22.9324 20.7236 22.9762 20.9375 22.9772 21.1537C22.9781 21.3699 22.9362 21.5842 22.8539 21.7842C22.7716 21.9841 22.6506 22.1658 22.4977 22.3187C22.3448 22.4716 22.1631 22.5927 21.9631 22.675C21.7632 22.7573 21.5489 22.7991 21.3327 22.7982C21.1165 22.7972 20.9026 22.7534 20.7034 22.6693C20.5042 22.5853 20.3236 22.4625 20.172 22.3083L20.1227 22.259C19.9313 22.0748 19.6901 21.9506 19.429 21.9018C19.1678 21.853 18.898 21.8817 18.653 21.9843C18.4079 22.087 18.1983 22.2591 18.0498 22.4795C17.9014 22.6999 17.8208 22.9588 17.8178 23.2245V23.3635C17.8178 23.7975 17.6453 24.2138 17.3384 24.5207C17.0315 24.8276 16.6153 25 16.1812 25C15.7472 25 15.3309 24.8276 15.024 24.5207C14.7171 24.2138 14.5447 23.7975 14.5447 23.3635V23.2898C14.5385 23.019 14.4508 22.7562 14.2933 22.5359C14.1357 22.3155 13.9154 22.1476 13.6611 22.0541C13.4143 21.9451 13.1405 21.9126 12.875 21.9608C12.6096 22.009 12.3646 22.1356 12.1718 22.3243L12.1225 22.3736C11.9705 22.526 11.79 22.6469 11.5912 22.7295C11.3925 22.812 11.1794 22.8547 10.9642 22.8549C10.5295 22.8554 10.1124 22.6832 9.80475 22.3762C9.49705 22.0691 9.32392 21.6525 9.32344 21.2178C9.32295 20.7831 9.49517 20.3661 9.80218 20.0584L9.85149 20.0091C10.0357 19.8176 10.1599 19.5764 10.2087 19.3153C10.2575 19.0541 10.2288 18.7844 10.1262 18.5393C10.0235 18.2942 9.85137 18.0846 9.631 17.9362C9.41062 17.7878 9.15163 17.7071 8.88595 17.7041H8.74958C8.31554 17.7041 7.89928 17.5317 7.59237 17.2248C7.28546 16.9178 7.11304 16.5016 7.11304 16.0675C7.11304 15.6335 7.28546 15.2173 7.59237 14.9103C7.89928 14.6034 8.31554 14.431 8.74958 14.431H8.82321C9.09407 14.4248 9.35679 14.3372 9.57718 14.1796C9.79757 14.022 9.96544 13.8017 10.0589 13.5474C10.1679 13.3006 10.2004 13.0268 10.1522 12.7614C10.1041 12.4959 9.97747 12.251 9.78874 12.0582L9.73816 12.0076C9.43071 11.7004 9.25789 11.2837 9.25771 10.849C9.25753 10.4144 9.43001 9.99755 9.7372 9.69011C10.0444 9.38266 10.4611 9.20984 10.8957 9.20966C11.3303 9.20948 11.7472 9.38196 12.0547 9.68915L12.104 9.73845C12.2968 9.92718 12.5417 10.0538 12.8072 10.102C13.0726 10.1501 13.3464 10.1176 13.5932 10.0086H13.6573C13.8991 9.90523 14.1054 9.73342 14.2509 9.51434C14.3963 9.29527 14.4747 9.03846 14.4762 8.77548V8.63654C14.4762 8.2025 14.6486 7.78624 14.9555 7.47933C15.2624 7.17242 15.6787 7 16.1127 7C16.5468 7 16.963 7.17242 17.2699 7.47933C17.5768 7.78624 17.7493 8.2025 17.7493 8.63654V8.71017C17.7522 8.97584 17.8329 9.23484 17.9813 9.45521C18.1297 9.67559 18.3394 9.84771 18.5845 9.95037C18.8295 10.053 19.0993 10.0817 19.3604 10.0329C19.6216 9.9841 19.8628 9.85993 20.0542 9.6757L20.1035 9.6264C20.2551 9.47215 20.4356 9.34944 20.6349 9.26535C20.8341 9.18127 21.048 9.13748 21.2642 9.13652C21.4804 9.13555 21.6947 9.17743 21.8946 9.25973C22.0946 9.34203 22.2763 9.46312 22.4291 9.61602C22.582 9.76892 22.7031 9.95058 22.7854 10.1505C22.8677 10.3505 22.9096 10.5648 22.9086 10.781C22.9077 10.9972 22.8639 11.2111 22.7798 11.4103C22.6957 11.6095 22.573 11.7901 22.4188 11.9416L22.3695 11.9909C22.1807 12.1837 22.0541 12.4287 22.006 12.6941C21.9578 12.9596 21.9903 13.2334 22.0993 13.4802V13.5442C22.203 13.7868 22.3756 13.9937 22.5957 14.1392C22.8158 14.2848 23.0737 14.3626 23.3376 14.3631H23.4765C23.9105 14.3631 24.3268 14.5356 24.6337 14.8425C24.9406 15.1494 25.113 15.5656 25.113 15.9997C25.113 16.4337 24.9406 16.85 24.6337 17.1569C24.3268 17.4638 23.9105 17.6362 23.4765 17.6362H23.4029C23.1395 17.6372 22.8822 17.7152 22.6626 17.8606C22.4431 18.006 22.2708 18.2124 22.1671 18.4545H22.1678Z" stroke="#FCAE30" stroke-width="1.6" stroke-linecap="round" stroke-linejoin="round"/>
</svg>
