<svg xmlns="http://www.w3.org/2000/svg" xmlns:xlink="http://www.w3.org/1999/xlink" width="44" height="43" viewBox="0 0 44 43"><defs><style>.a{clip-path:url(#b);}.b{fill:#fe3d97;}.c{fill:#e41e7f;}.d{fill:#fdb441;}.e{fill:#fea613;}.f{fill:#26a6fe;}.g{fill:#0593fc;}</style><clipPath id="b"><rect width="44" height="43"/></clipPath></defs><g id="a" class="a"><g transform="translate(1.72 3.793)"><g transform="translate(6.428 7.442)"><path class="b" d="M66.387,136.536l20.18-5.491a1.832,1.832,0,0,0,1.16-2.583c-.337-.676-.761-1.482-1.267-2.358a26.347,26.347,0,0,0-9.641-9.641c-.876-.506-1.682-.93-2.358-1.267a1.832,1.832,0,0,0-2.583,1.16Z" transform="translate(-66.387 -115.004)"/><path class="c" d="M86.564,316.815l-20.18,5.49.443-1.627,19.236-5.234a1.835,1.835,0,0,0,1.353-1.82q.165.318.309.606A1.832,1.832,0,0,1,86.564,316.815Z" transform="translate(-66.384 -300.773)"/><g transform="translate(1.678 2.788)"><path class="d" d="M93.471,287.24a38.933,38.933,0,0,1,7.561,7.561l-4.22,1.148a33.166,33.166,0,0,0-4.49-4.49Z" transform="translate(-92.323 -278.883)"/><path class="d" d="M127.517,158.084c3.829,2.5,11.142,9.816,13.644,13.644l-4.5,1.224a71.092,71.092,0,0,0-10.369-10.369Z" transform="translate(-124.095 -158.084)"/></g><g transform="translate(5.111 15.171)"><path class="e" d="M146.432,387.269h0q-.514-.622-1.057-1.219l4.31-1.172c.35.425.675.842.967,1.244Z" transform="translate(-145.375 -382.585)"/><path class="e" d="M276.424,350.717l-4.5,1.224q-.478-.6-1.011-1.232l4.611-1.254c.343.451.646.874.9,1.262Z" transform="translate(-262.79 -349.455)"/></g></g><g transform="translate(2.28 26.541)"><path class="f" d="M2.3,412.564c.147-.537.979-.678,1.349-1.043s.541-1.2,1.06-1.337c.5-.132,1.042.5,1.578.648s1.323-.121,1.688.249.092,1.172.228,1.691c.132.5.775,1.049.628,1.586s-.979.678-1.349,1.043-.541,1.2-1.06,1.337c-.5.132-1.042-.5-1.578-.648s-1.323.121-1.688-.249-.092-1.173-.228-1.691C2.8,413.647,2.154,413.1,2.3,412.564Z" transform="translate(-2.28 -410.166)"/><path class="g" d="M18.55,455.357c-.147.537-.979.679-1.349,1.043s-.541,1.2-1.06,1.338c-.5.132-1.042-.5-1.578-.648s-1.324.122-1.688-.249c-.326-.33-.156-.969-.194-1.471.405.16,1.031-.008,1.481.115.537.148,1.076.78,1.578.648.518-.136.678-.961,1.06-1.338.3-.3.924-.449,1.214-.793C18.231,454.44,18.675,454.9,18.55,455.357Z" transform="translate(-11.997 -451.166)"/></g><g transform="translate(10.261 0.001)"><path class="d" d="M413.817,1.257l-.442,1.3a.542.542,0,0,0,.079.5l.824,1.1a.542.542,0,0,1-.441.866l-1.377-.018a.542.542,0,0,0-.45.229l-.8,1.125a.542.542,0,0,1-.96-.152L409.844,4.9a.542.542,0,0,0-.357-.357l-1.315-.409a.542.542,0,0,1-.152-.96l1.125-.8a.542.542,0,0,0,.229-.45L409.356.551a.542.542,0,0,1,.866-.441l1.1.824a.542.542,0,0,0,.5.079l1.3-.442a.542.542,0,0,1,.688.688Z" transform="translate(-389.532 -0.001)"/><path class="e" d="M445.135,55.271l-1.377-.017a.541.541,0,0,0-.45.229l-.8,1.125a.542.542,0,0,1-.961-.152l-.3-.955a.555.555,0,0,0,.665-.195l.818-1.156a.556.556,0,0,1,.462-.235l1.416.018a.55.55,0,0,0,.448-.215l.513.688A.542.542,0,0,1,445.135,55.271Z" transform="translate(-420.832 -50.241)"/><path class="f" d="M313.352,29.747a21.5,21.5,0,0,0-.144-6.456.475.475,0,0,1,.37-.572l2.7-.535a.475.475,0,0,1,.561.54c-.238,1.525-.971,5.284-2.637,7.366A.475.475,0,0,1,313.352,29.747Z" transform="translate(-301.059 -20.74)"/><path class="g" d="M319.037,22.728c-.238,1.525-.97,5.284-2.637,7.366a.475.475,0,0,1-.846-.343c.023-.209.046-.438.066-.683a20.267,20.267,0,0,0,2.058-6.518.478.478,0,0,0-.011-.2l.81-.16A.474.474,0,0,1,319.037,22.728Z" transform="translate(-303.261 -20.744)"/><path class="f" d="M370.146,143.729a17.576,17.576,0,0,1,5-.493.475.475,0,0,0,.518-.438l.149-2.088a.475.475,0,0,0-.606-.49,15.33,15.33,0,0,0-5.481,2.692A.475.475,0,0,0,370.146,143.729Z" transform="translate(-353.782 -131.129)"/><path class="g" d="M375.74,163.691l-.078,1.077a.474.474,0,0,1-.517.439,17.59,17.59,0,0,0-5,.493.475.475,0,0,1-.42-.817,6.713,6.713,0,0,1,.554-.453,17.591,17.591,0,0,1,5-.493A.477.477,0,0,0,375.74,163.691Z" transform="translate(-353.783 -153.099)"/><path class="b" d="M128.018,44.506a.485.485,0,0,0-.545-.417l-.232.031-.031-.232a.485.485,0,1,0-.962.129l.031.232-.232.031a.485.485,0,1,0,.129.962l.232-.031.031.232a.485.485,0,1,0,.962-.129l-.031-.232.232-.031A.485.485,0,0,0,128.018,44.506Z" transform="translate(-125.625 -40.655)"/><path class="b" d="M444.1,359.36a.486.486,0,0,0-.545-.417l-.232.031-.031-.232a.485.485,0,1,0-.962.129l.031.232-.232.031a.485.485,0,0,0,.064.966.493.493,0,0,0,.065,0l.232-.031.031.232a.485.485,0,0,0,.48.421.492.492,0,0,0,.065,0,.485.485,0,0,0,.417-.545l-.031-.232.232-.031A.486.486,0,0,0,444.1,359.36Z" transform="translate(-421.25 -335.135)"/><g transform="translate(4.662 0.512)"><path class="d" d="M200.718,7.983a4.088,4.088,0,0,1-2.915,2.024.139.139,0,0,0-.065.25,4.088,4.088,0,0,1,1.556,3.19.139.139,0,0,0,.256.067,4.088,4.088,0,0,1,2.915-2.024.139.139,0,0,0,.065-.25,4.088,4.088,0,0,1-1.556-3.19.139.139,0,0,0-.256-.067Z" transform="translate(-197.68 -7.918)"/><path class="e" d="M222.19,11.492a4.086,4.086,0,0,0-2.915,2.024.139.139,0,0,1-.257-.067,5.2,5.2,0,0,0-.249-1.369c.4-.484.509-1.037,1.363-1.124a.139.139,0,0,0,.065-.25c-.7-.494-.525-1.028-.64-1.647a5.2,5.2,0,0,0,.885-1.073.139.139,0,0,1,.257.067,4.088,4.088,0,0,0,1.555,3.19A.139.139,0,0,1,222.19,11.492Z" transform="translate(-217.405 -7.92)"/></g><g transform="translate(18.768 14.664)"><path class="d" d="M421.311,228.494a4.088,4.088,0,0,1-3.06-1.8.139.139,0,0,0-.255.046,4.088,4.088,0,0,1-2.243,2.75.139.139,0,0,0,.047.26,4.088,4.088,0,0,1,3.06,1.8.139.139,0,0,0,.255-.046,4.088,4.088,0,0,1,2.243-2.75A.139.139,0,0,0,421.311,228.494Z" transform="translate(-415.679 -226.63)"/><path class="e" d="M418.859,253.379a4.086,4.086,0,0,0-3.06-1.8.139.139,0,0,1-.047-.261,5.2,5.2,0,0,0,1.138-.8c.609.163,1.154.027,1.592.765a.139.139,0,0,0,.255-.046c.154-.845.713-.908,1.227-1.272a5.2,5.2,0,0,0,1.345.354.139.139,0,0,1,.047.261,4.088,4.088,0,0,0-2.243,2.75A.139.139,0,0,1,418.859,253.379Z" transform="translate(-415.678 -248.459)"/></g></g></g></g></svg>