<svg xmlns="http://www.w3.org/2000/svg" xmlns:xlink="http://www.w3.org/1999/xlink" width="45" height="43" viewBox="0 0 45 43"><defs><style>.a{clip-path:url(#b);}.b{fill:#5f69e2;}.c{fill:#ffe377;}.d{fill:#fc0;}.e{fill:#3440da;}.f{fill:#e5e5e5;}.g{fill:#d6d6d6;}.h{fill:#989eec;}.i{fill:#7c83e7;}.j{fill:#ffa1c0;}.k{fill:#ff80a9;}</style><clipPath id="b"><rect width="45" height="43"/></clipPath></defs><g id="a" class="a"><g transform="translate(4 -4.219)"><g transform="translate(16.098 14.107)"><path class="b" d="M242,103.243a1,1,0,0,1-1-1v-1.987a1,1,0,0,1,2,0v1.987A1,1,0,0,1,242,103.243Z" transform="translate(-241 -99.252)"/></g><g transform="translate(2.735 26.521)"><path class="c" d="M68.673,285.088H41.947a1,1,0,0,0-1,1v11.727a1,1,0,0,0,1,1H68.673a1,1,0,0,0,1-1V286.09A1,1,0,0,0,68.673,285.088Z" transform="translate(-40.945 -285.088)"/><g transform="translate(14.365)"><path class="d" d="M269.363,285.088H256v13.731h13.363a1,1,0,0,0,1-1V286.09A1,1,0,0,0,269.363,285.088Z" transform="translate(-256 -285.088)"/></g></g><g transform="translate(8.027 8.013)"><g transform="translate(0 6.094)"><path class="b" d="M121.171,103.243a1,1,0,0,1-1-1v-1.987a1,1,0,0,1,2,0v1.987A1,1,0,0,1,121.171,103.243Z" transform="translate(-120.169 -99.252)"/></g><g transform="translate(14.472)"><g transform="translate(1.67 6.094)"><path class="e" d="M362.833,103.243a1,1,0,0,1-1-1v-1.987a1,1,0,1,1,2,0v1.987A1,1,0,0,1,362.833,103.243Z" transform="translate(-361.831 -99.252)"/></g><path class="d" d="M341.175,10.021c-.457-.851-.907-1.566-.926-1.6a.881.881,0,0,0-1.491,0c-.019.03-.469.745-.926,1.6a6.064,6.064,0,0,0-1,2.7,2.672,2.672,0,1,0,5.344,0A6.065,6.065,0,0,0,341.175,10.021Z" transform="translate(-336.832 -8.014)"/></g></g><g transform="translate(17.1 14.107)"><path class="e" d="M256,99.252v3.991a1,1,0,0,0,1-1v-1.987A1,1,0,0,0,256,99.252Z" transform="translate(-256 -99.252)"/></g><path class="c" d="M219.419,8.424a.881.881,0,0,0-1.491,0c-.019.03-.469.745-.926,1.6a6.064,6.064,0,0,0-1,2.7,2.672,2.672,0,1,0,5.344,0,6.065,6.065,0,0,0-1-2.7c-.457-.851-.907-1.566-.926-1.6Z" transform="translate(-201.574)"/><g transform="translate(17.1 8.013)"><path class="d" d="M257.673,10.021c-.457-.851-.907-1.566-.926-1.6A.881.881,0,0,0,256,8.014V15.4a2.675,2.675,0,0,0,2.672-2.672A6.065,6.065,0,0,0,257.673,10.021Z" transform="translate(-256.001 -8.014)"/></g><g transform="translate(0 39.139)"><path class="f" d="M33.2,475.991H1a1,1,0,1,1,0-2H33.2a1,1,0,1,1,0,2Z" transform="translate(0 -473.987)"/></g><g transform="translate(17.1 39.139)"><path class="g" d="M272.1,473.987H256v2h16.1a1,1,0,0,0,0-2Z" transform="translate(-256 -473.987)"/></g><path class="h" d="M220.123,142.825h-2.9A1.221,1.221,0,0,0,216,144.046v7.739a1.221,1.221,0,0,0,1.221,1.221h2.9a1.221,1.221,0,0,0,1.221-1.221v-7.739A1.221,1.221,0,0,0,220.123,142.825Z" transform="translate(-201.573 -125.807)"/><g transform="translate(6.357 17.018)"><path class="h" d="M99.292,142.825h-2.9a1.221,1.221,0,0,0-1.221,1.221v7.739a1.221,1.221,0,0,0,1.221,1.221h2.9a1.221,1.221,0,0,0,1.221-1.221v-7.739A1.221,1.221,0,0,0,99.292,142.825Z" transform="translate(-95.17 -142.825)"/><path class="i" d="M340.953,142.825h-2.9a1.221,1.221,0,0,0-1.221,1.221v7.739a1.221,1.221,0,0,0,1.221,1.221h2.9a1.221,1.221,0,0,0,1.221-1.221v-7.739A1.221,1.221,0,0,0,340.953,142.825Z" transform="translate(-320.689 -142.825)"/></g><g transform="translate(17.1 17.018)"><path class="i" d="M257.45,142.825H256v10.182h1.45a1.221,1.221,0,0,0,1.221-1.222v-7.739A1.221,1.221,0,0,0,257.45,142.825Z" transform="translate(-256 -142.825)"/></g><path class="j" d="M56.066,256.33H31.259a2.685,2.685,0,0,0-2.8,2.553v2.583a2.241,2.241,0,0,0,.929,1.8,2.7,2.7,0,0,0,2.376.408l2.529-.749a8.079,8.079,0,0,1,4.533,0l2,.591a10.1,10.1,0,0,0,5.671,0l2-.591a8.077,8.077,0,0,1,4.533,0l2.529.749a2.7,2.7,0,0,0,2.376-.408,2.241,2.241,0,0,0,.929-1.8v-2.583a2.685,2.685,0,0,0-2.8-2.553Z" transform="translate(-26.563 -231.73)"/><g transform="translate(17.1 24.6)"><path class="k" d="M268.4,256.33H256v7.592a10.016,10.016,0,0,0,2.835-.406l2-.591a8.077,8.077,0,0,1,4.533,0l2.529.749a2.7,2.7,0,0,0,2.376-.408,2.241,2.241,0,0,0,.929-1.8v-2.583A2.685,2.685,0,0,0,268.4,256.33Z" transform="translate(-256 -256.33)"/></g><path class="c" d="M98.586,8.424a.881.881,0,0,0-1.491,0c-.019.03-.469.745-.926,1.6a6.064,6.064,0,0,0-1,2.7,2.672,2.672,0,1,0,5.344,0,6.065,6.065,0,0,0-1-2.7C99.056,9.17,98.605,8.454,98.586,8.424Z" transform="translate(-88.812)"/></g></g></svg>