<svg width="20" height="26" viewBox="0 0 20 26" fill="none" xmlns="http://www.w3.org/2000/svg">
<path d="M7.24825 0.869995C6.31999 0.869995 5.42975 1.23874 4.77338 1.89512C4.117 2.5515 3.74825 3.44174 3.74825 4.37V18.37C3.74825 19.2983 4.117 20.1885 4.77338 20.8449C5.42975 21.5012 6.31999 21.87 7.24825 21.87H16C16.9283 21.87 17.8185 21.5012 18.4749 20.8449C19.1313 20.1885 19.5 19.2983 19.5 18.37V8.745H19.4965V6.8445C19.4964 6.14879 19.22 5.48159 18.7283 4.9895L15.3788 1.63825C14.8867 1.14646 14.2195 0.870144 13.5238 0.869995H7.2465H7.24825ZM16 20.12H7.24825C6.78412 20.12 6.339 19.9356 6.01081 19.6074C5.68262 19.2792 5.49825 18.8341 5.49825 18.37V4.37C5.49825 3.90587 5.68262 3.46075 6.01081 3.13256C6.339 2.80437 6.78412 2.62 7.24825 2.62H12.4982V5.245C12.4982 5.94119 12.7748 6.60887 13.2671 7.10115C13.7594 7.59343 14.4271 7.87 15.1232 7.87H17.7482V9.72674H17.75V18.37C17.75 18.8341 17.5656 19.2792 17.2374 19.6074C16.9092 19.9356 16.4641 20.12 16 20.12ZM17.3843 6.12H15.1215C14.8894 6.12 14.6669 6.02781 14.5028 5.86371C14.3387 5.69962 14.2465 5.47706 14.2465 5.245V2.98225L17.3843 6.12ZM0.25 6.12C0.25 5.65587 0.434374 5.21075 0.762563 4.88256C1.09075 4.55437 1.53587 4.37 2 4.37V18.37C2 19.7624 2.55312 21.0977 3.53769 22.0823C4.52226 23.0669 5.85761 23.62 7.25 23.62H16C16 24.0841 15.8156 24.5292 15.4874 24.8574C15.1592 25.1856 14.7141 25.37 14.25 25.37H6.8825C5.12345 25.37 3.43645 24.6712 2.19261 23.4274C0.94878 22.1835 0.25 20.4965 0.25 18.7375V6.12Z" fill="#626D6C"/>
</svg>
