<svg width="13" height="18" viewBox="0 0 13 18" fill="none" xmlns="http://www.w3.org/2000/svg">
<path d="M2.6 1.97963e-07C1.91044 1.97963e-07 1.24912 0.270918 0.761522 0.753154C0.273928 1.23539 0 1.88944 0 2.57143V15.4286C0 16.1106 0.273928 16.7646 0.761522 17.2468C1.24912 17.7291 1.91044 18 2.6 18H10.4C11.0896 18 11.7509 17.7291 12.2385 17.2468C12.7261 16.7646 13 16.1106 13 15.4286V5.67514C12.9995 5.16383 12.7938 4.67362 12.428 4.31229L8.6411 0.564429C8.45994 0.385371 8.24488 0.243364 8.00822 0.146519C7.77156 0.0496728 7.51792 -0.000114569 7.2618 1.97963e-07H2.6ZM1.3 2.57143C1.3 2.23044 1.43696 1.90341 1.68076 1.66229C1.92456 1.42117 2.25522 1.28571 2.6 1.28571H6.5V4.5C6.5 5.01149 6.70545 5.50203 7.07114 5.86371C7.43684 6.22538 7.93283 6.42857 8.45 6.42857H11.7V15.4286C11.7 15.7696 11.563 16.0966 11.3192 16.3377C11.0754 16.5788 10.7448 16.7143 10.4 16.7143H2.6C2.25522 16.7143 1.92456 16.5788 1.68076 16.3377C1.43696 16.0966 1.3 15.7696 1.3 15.4286V2.57143ZM11.4309 5.14286H8.45C8.27761 5.14286 8.11228 5.07513 7.99038 4.95457C7.86848 4.83401 7.8 4.6705 7.8 4.5V1.55186L11.4309 5.14286Z" fill="#9C50FF"/>
</svg>
