<svg width="32" height="32" viewBox="0 0 32 32" fill="none" xmlns="http://www.w3.org/2000/svg">
<circle cx="16" cy="16" r="16" fill="#E9F8FF"/>
<path fill-rule="evenodd" clip-rule="evenodd" d="M10.6 9C8.61177 9 7 10.7125 7 12.825V20.475C7 22.5875 8.61177 24.3 10.6 24.3H21.4C23.3882 24.3 25 22.5875 25 20.475V12.825C25 10.7125 23.3882 9 21.4 9H10.6ZM10.6 10.4344H21.4C21.8684 10.4344 22.3033 10.5864 22.6635 10.8466L17.2873 15.5508C16.5395 16.2051 15.4605 16.2051 14.7127 15.5508L9.33651 10.8466C9.69669 10.5864 10.1316 10.4344 10.6 10.4344ZM8.35 12.825V20.475C8.35 21.7953 9.35736 22.8656 10.6 22.8656H21.4C22.6426 22.8656 23.65 21.7953 23.65 20.475V12.825C23.65 12.5241 23.5977 12.2362 23.5021 11.9709L18.1455 16.658C16.8993 17.7484 15.1007 17.7484 13.8545 16.658L8.49783 11.9709C8.40233 12.2362 8.35 12.5241 8.35 12.825Z" fill="#29C1B8"/>
</svg>
