<svg width="33" height="32" viewBox="0 0 33 32" fill="none" xmlns="http://www.w3.org/2000/svg">
<circle cx="16.5601" cy="16" r="16" fill="#EDF6E5"/>
<path d="M16.6096 7.52942C15.7768 7.52942 14.9628 7.77636 14.2703 8.23902C13.5779 8.70168 13.0383 9.35927 12.7196 10.1286C12.4009 10.898 12.3175 11.7446 12.48 12.5614C12.6424 13.3781 13.0434 14.1284 13.6323 14.7172C14.2211 15.3061 14.9714 15.7071 15.7882 15.8696C16.6049 16.032 17.4515 15.9486 18.2209 15.63C18.9903 15.3113 19.6479 14.7716 20.1105 14.0792C20.5732 13.3868 20.8201 12.5727 20.8201 11.7399C20.8201 10.6232 20.3765 9.55228 19.5869 8.76265C18.7973 7.97303 17.7263 7.52942 16.6096 7.52942ZM16.6096 14.2663C16.1099 14.2663 15.6215 14.1181 15.206 13.8405C14.7906 13.5629 14.4668 13.1683 14.2756 12.7067C14.0844 12.2451 14.0343 11.7371 14.1318 11.2471C14.2293 10.757 14.4699 10.3069 14.8232 9.95357C15.1765 9.60026 15.6267 9.35965 16.1167 9.26217C16.6068 9.16469 17.1147 9.21472 17.5764 9.40593C18.038 9.59714 18.4325 9.92095 18.7101 10.3364C18.9877 10.7518 19.1359 11.2403 19.1359 11.7399C19.1359 12.41 18.8697 13.0525 18.396 13.5263C17.9222 14.0001 17.2796 14.2663 16.6096 14.2663ZM24.1885 23.5294V22.6873C24.1885 21.1239 23.5675 19.6246 22.462 18.5191C21.3565 17.4136 19.8572 16.7926 18.2938 16.7926H14.9254C13.362 16.7926 11.8626 17.4136 10.7572 18.5191C9.65169 19.6246 9.03064 21.1239 9.03064 22.6873V23.5294H10.7149V22.6873C10.7149 21.5706 11.1585 20.4996 11.9481 19.71C12.7377 18.9204 13.8087 18.4768 14.9254 18.4768H18.2938C19.4105 18.4768 20.4815 18.9204 21.2711 19.71C22.0607 20.4996 22.5043 21.5706 22.5043 22.6873V23.5294H24.1885Z" fill="#116f17"/>
<path d="M16.6096 7.52942C15.7768 7.52942 14.9628 7.77636 14.2703 8.23902C13.5779 8.70168 13.0383 9.35927 12.7196 10.1286C12.4009 10.898 12.3175 11.7446 12.48 12.5614C12.6424 13.3781 13.0434 14.1284 13.6323 14.7172C14.2211 15.3061 14.9714 15.7071 15.7882 15.8696C16.6049 16.032 17.4515 15.9486 18.2209 15.63C18.9903 15.3113 19.6479 14.7716 20.1105 14.0792C20.5732 13.3868 20.8201 12.5727 20.8201 11.7399C20.8201 10.6232 20.3765 9.55228 19.5869 8.76265C18.7973 7.97303 17.7263 7.52942 16.6096 7.52942ZM16.6096 14.2663C16.1099 14.2663 15.6215 14.1181 15.206 13.8405C14.7906 13.5629 14.4668 13.1683 14.2756 12.7067C14.0844 12.2451 14.0343 11.7371 14.1318 11.2471C14.2293 10.757 14.4699 10.3069 14.8232 9.95357C15.1765 9.60026 15.6267 9.35965 16.1167 9.26217C16.6068 9.16469 17.1147 9.21472 17.5764 9.40593C18.038 9.59714 18.4325 9.92095 18.7101 10.3364C18.9877 10.7518 19.1359 11.2403 19.1359 11.7399C19.1359 12.41 18.8697 13.0525 18.396 13.5263C17.9222 14.0001 17.2796 14.2663 16.6096 14.2663ZM24.1885 23.5294V22.6873C24.1885 21.1239 23.5675 19.6246 22.462 18.5191C21.3565 17.4136 19.8572 16.7926 18.2938 16.7926H14.9254C13.362 16.7926 11.8626 17.4136 10.7572 18.5191C9.65169 19.6246 9.03064 21.1239 9.03064 22.6873V23.5294H10.7149V22.6873C10.7149 21.5706 11.1585 20.4996 11.9481 19.71C12.7377 18.9204 13.8087 18.4768 14.9254 18.4768H18.2938C19.4105 18.4768 20.4815 18.9204 21.2711 19.71C22.0607 20.4996 22.5043 21.5706 22.5043 22.6873V23.5294H24.1885Z" stroke="white"/>
</svg>
