<svg width="21" height="20" viewBox="0 0 21 20" fill="none" xmlns="http://www.w3.org/2000/svg">
<circle cx="16" cy="16" r="16" fill="#F7D5E8"/>
<path d="M19.3231 13.6063L19.3231 13.6063L19.7523 13.2638L19.7073 13.2074L19.7523 13.2638C20.0866 12.9971 20.173 12.5379 19.9557 12.173L19.8944 12.2095L19.9557 12.173L19.1082 10.7502C18.8914 10.3863 18.4406 10.2307 18.0374 10.3771L18.0595 10.438L18.0374 10.3771L17.5168 10.5662C17.5168 10.5662 17.5168 10.5662 17.5168 10.5662C17.2018 10.6805 16.862 10.4866 16.8079 10.1716L16.7165 9.64008C16.645 9.22422 16.278 8.925 15.8475 8.925H14.1525C13.722 8.925 13.355 9.22421 13.2835 9.6401C13.2835 9.6401 13.2835 9.6401 13.2835 9.64011L13.1921 10.1716L13.1921 10.1716C13.1379 10.4872 12.7977 10.6803 12.4832 10.5662L11.9627 10.3771L11.9626 10.3771C11.5594 10.2307 11.1086 10.3863 10.8918 10.7502L10.8918 10.7502L10.0443 12.173C9.82697 12.5378 9.91343 12.997 10.2477 13.2638L10.2945 13.2052L10.2477 13.2638L10.6769 13.6062L10.7237 13.5476L10.6769 13.6062C10.9333 13.8108 10.9328 14.1896 10.6769 14.3937L10.2477 14.7362L10.2477 14.7362C9.91343 15.0029 9.82695 15.4621 10.0443 15.827L10.8918 17.2497L10.9562 17.2114L10.8918 17.2498C11.1086 17.6137 11.5593 17.7693 11.9626 17.6228L11.9627 17.6228L12.4832 17.4338C12.7982 17.3194 13.1379 17.5134 13.1921 17.8284L13.2835 18.3599C13.355 18.7758 13.722 19.075 14.1525 19.075H15.8475C16.278 19.075 16.645 18.7758 16.7165 18.3599L16.8079 17.8284C16.8621 17.5129 17.2023 17.3196 17.5167 17.4338L17.5167 17.4338L18.0374 17.6229C18.4407 17.7693 18.8914 17.6137 19.1082 17.2498L19.9557 15.827L19.8933 15.7898L19.9558 15.827C20.173 15.4621 20.0866 15.0029 19.7523 14.7362L19.7055 14.7948L19.7523 14.7362L19.3231 14.3937C19.0668 14.1892 19.0672 13.8104 19.3231 13.6063ZM12.1493 16.5612L12.1737 16.6285L12.1493 16.5612L11.687 16.7291L10.9047 15.4158L11.2828 15.1142C12.0066 14.5366 12.005 13.4622 11.2828 12.8858L10.9047 12.5842L11.687 11.2709L12.1493 11.4388L12.1493 11.4388C13.0232 11.756 13.9809 11.2218 14.135 10.3255L14.2157 9.85625H15.7843L15.865 10.3255C16.0194 11.2237 16.9787 11.7554 17.8507 11.4388L17.8507 11.4388L18.313 11.2709L19.0955 12.584L18.7172 12.8858C17.9934 13.4633 17.9949 14.5378 18.7172 15.1141L18.7577 15.0634L18.7172 15.1141L19.0953 15.4158L18.313 16.7291L17.8507 16.5612L17.8251 16.6317L17.8507 16.5612C16.9769 16.2439 16.0191 16.7782 15.865 17.6745L15.7843 18.1438H14.2157L14.135 17.6745C13.9806 16.7764 13.0214 16.2446 12.1493 16.5612ZM15 11.9979C13.8645 11.9979 12.9368 12.8938 12.9368 14C12.9368 15.1062 13.8645 16.0021 15 16.0021C16.1355 16.0021 17.0632 15.1062 17.0632 14C17.0632 12.8938 16.1355 11.9979 15 11.9979ZM15 15.0708C14.3873 15.0708 13.8928 14.5882 13.8928 14C13.8928 13.4118 14.3873 12.9292 15 12.9292C15.6127 12.9292 16.1072 13.4118 16.1072 14C16.1072 14.5882 15.6127 15.0708 15 15.0708Z" fill="#DA298C" stroke="#DA298C" stroke-width="0.15"/>
<path d="M8.19464 16.1997H3.29211C1.99865 16.1997 0.947327 15.1485 0.947327 13.8551V4.04971C0.947327 2.75624 1.99865 1.70508 3.29211 1.70508H15.6552C16.9487 1.70508 18 2.75624 18 4.04971V7.46034C18 7.81333 17.7135 8.09981 17.3605 8.09981C17.0075 8.09981 16.7211 7.81411 16.7211 7.46034V4.04971C16.7211 3.46222 16.2427 2.98402 15.6552 2.98402H3.29211C2.70463 2.98402 2.22627 3.46222 2.22627 4.04971V13.8551C2.22627 14.4426 2.70463 14.9208 3.29211 14.9208H8.19464C8.54763 14.9208 8.83411 15.2072 8.83411 15.5602C8.83411 15.9132 8.54763 16.1997 8.19464 16.1997V16.1997Z" fill="#DA298C"/>
<path d="M17.3605 6.39418H1.5868C1.23381 6.39418 0.947327 6.1077 0.947327 5.75471C0.947327 5.40172 1.23381 5.11523 1.5868 5.11523H17.3605C17.7135 5.11523 18 5.40172 18 5.75471C18 6.1077 17.7135 6.39418 17.3605 6.39418Z" fill="#DA298C"/>
<path d="M4.99726 4.68942C4.64427 4.68942 4.35779 4.40294 4.35779 4.04995V0.639473C4.35779 0.286483 4.64427 0 4.99726 0C5.35025 0 5.63673 0.286483 5.63673 0.639473V4.04995C5.63673 4.40294 5.35025 4.68942 4.99726 4.68942Z" fill="#DA298C"/>
<path d="M13.95 4.68942C13.597 4.68942 13.3105 4.40294 13.3105 4.04995V0.639473C13.3105 0.286483 13.597 0 13.95 0C14.3029 0 14.5894 0.286483 14.5894 0.639473V4.04995C14.5894 4.40294 14.3029 4.68942 13.95 4.68942Z" fill="#DA298C"/>
</svg>
