<svg width="71" height="71" viewBox="0 0 71 71" fill="none" xmlns="http://www.w3.org/2000/svg">
<path d="M17.75 0C15.3094 0 13.3125 1.99687 13.3125 4.4375V66.5625C13.3125 69.0031 15.3094 71 17.75 71H62.125C64.5656 71 66.5625 69.0031 66.5625 66.5625V17.75L48.8125 0H17.75Z" fill="#E2E5E7"/>
<path d="M53.25 17.75H66.5625L48.8125 0V13.3125C48.8125 15.7531 50.8094 17.75 53.25 17.75Z" fill="#B0B7BD"/>
<path d="M66.5625 31.0625L53.25 17.75H66.5625V31.0625Z" fill="#CAD1D8"/>
<path d="M57.6875 57.6875C57.6875 58.9078 56.6891 59.9062 55.4688 59.9062H6.65625C5.43594 59.9062 4.4375 58.9078 4.4375 57.6875V35.5C4.4375 34.2797 5.43594 33.2812 6.65625 33.2812H55.4688C56.6891 33.2812 57.6875 34.2797 57.6875 35.5V57.6875Z" fill="#84BD5A"/>
<path d="M20.0153 45.234L23.1016 41.3667C24.0246 40.1597 25.8174 41.7018 24.8056 42.8555C23.7428 44.1158 22.6246 45.4825 21.5596 46.8826L25.1784 51.3888C26.1546 52.7201 24.2043 53.9959 23.2458 52.6824L19.9798 48.4956L16.7693 52.7733C15.8641 54.0669 13.8583 52.6136 14.8701 51.4066L18.4356 46.8826C17.3173 45.4803 16.2346 44.1158 15.1541 42.8555C14.038 41.5243 16.1126 40.1597 16.9291 41.4045L20.0153 45.234Z" fill="white"/>
<path d="M27.3683 42.0388C27.3683 41.4531 27.8653 40.9561 28.4865 40.9561C29.0545 40.9561 29.5338 41.4553 29.5338 42.0388V50.9271H34.3596C36.0968 50.9271 36.1346 53.2501 34.3596 53.2501H28.4888C27.8675 53.2501 27.3705 52.8086 27.3705 52.1696V42.0388H27.3683Z" fill="white"/>
<path d="M37.7232 43.6363C38.1314 40.1928 43.3278 39.5738 45.7773 41.4553C46.9843 42.4293 45.7063 43.9736 44.6413 43.1926C43.3278 42.3605 40.348 41.97 39.9752 43.8116C39.496 46.7226 47.2128 45.0563 47.0885 49.7756C46.9643 54.2819 40.4367 54.3862 37.9872 52.3649C37.3993 51.8856 37.4192 51.1069 37.7387 50.6254C38.2002 50.1661 38.7128 50.0064 39.3185 50.5034C40.7718 51.4951 44.517 52.2406 44.781 49.7201C44.5525 47.0976 37.1729 48.6751 37.7232 43.6363Z" fill="white"/>
<path d="M55.4688 59.9062H13.3125V62.125H55.4688C56.6891 62.125 57.6875 61.1266 57.6875 59.9062V57.6875C57.6875 58.9078 56.6891 59.9062 55.4688 59.9062Z" fill="#CAD1D8"/>
</svg>
