<svg width="32" height="32" viewBox="0 0 32 32" fill="none" xmlns="http://www.w3.org/2000/svg">
<circle cx="16" cy="16" r="16" fill="#FFEDF7"/>
<path d="M25.3231 20.6063L25.3231 20.6063L25.7523 20.2638L25.7073 20.2074L25.7523 20.2638C26.0866 19.9971 26.173 19.5379 25.9557 19.173L25.8944 19.2095L25.9557 19.173L25.1082 17.7502C24.8914 17.3863 24.4406 17.2307 24.0374 17.3771L24.0595 17.438L24.0374 17.3771L23.5168 17.5662C23.5168 17.5662 23.5168 17.5662 23.5168 17.5662C23.2018 17.6805 22.862 17.4866 22.8079 17.1716L22.7165 16.6401C22.645 16.2242 22.278 15.925 21.8475 15.925H20.1525C19.722 15.925 19.355 16.2242 19.2835 16.6401C19.2835 16.6401 19.2835 16.6401 19.2835 16.6401L19.1921 17.1716L19.1921 17.1716C19.1379 17.4872 18.7977 17.6803 18.4832 17.5662L17.9627 17.3771L17.9626 17.3771C17.5594 17.2307 17.1086 17.3863 16.8918 17.7502L16.8918 17.7502L16.0443 19.173C15.827 19.5378 15.9134 19.997 16.2477 20.2638L16.2945 20.2052L16.2477 20.2638L16.6769 20.6062L16.7237 20.5476L16.6769 20.6062C16.9333 20.8108 16.9328 21.1896 16.6769 21.3937L16.2477 21.7362L16.2477 21.7362C15.9134 22.0029 15.827 22.4621 16.0443 22.827L16.8918 24.2497L16.9562 24.2114L16.8918 24.2498C17.1086 24.6137 17.5593 24.7693 17.9626 24.6228L17.9627 24.6228L18.4832 24.4338C18.7982 24.3194 19.1379 24.5134 19.1921 24.8284L19.2835 25.3599C19.355 25.7758 19.722 26.075 20.1525 26.075H21.8475C22.278 26.075 22.645 25.7758 22.7165 25.3599L22.8079 24.8284C22.8621 24.5129 23.2023 24.3196 23.5167 24.4338L23.5167 24.4338L24.0374 24.6229C24.4407 24.7693 24.8914 24.6137 25.1082 24.2498L25.9557 22.827L25.8933 22.7898L25.9558 22.827C26.173 22.4621 26.0866 22.0029 25.7523 21.7362L25.7055 21.7948L25.7523 21.7362L25.3231 21.3937C25.0668 21.1892 25.0672 20.8104 25.3231 20.6063ZM18.1493 23.5612L18.1737 23.6285L18.1493 23.5612L17.687 23.7291L16.9047 22.4158L17.2828 22.1142C18.0066 21.5366 18.005 20.4622 17.2828 19.8858L16.9047 19.5842L17.687 18.2709L18.1493 18.4388L18.1493 18.4388C19.0232 18.756 19.9809 18.2218 20.135 17.3255L20.2157 16.8562H21.7843L21.865 17.3255C22.0194 18.2237 22.9787 18.7554 23.8507 18.4388L23.8507 18.4388L24.313 18.2709L25.0955 19.584L24.7172 19.8858C23.9934 20.4633 23.9949 21.5378 24.7172 22.1141L24.7577 22.0634L24.7172 22.1141L25.0953 22.4158L24.313 23.7291L23.8507 23.5612L23.8251 23.6317L23.8507 23.5612C22.9769 23.2439 22.0191 23.7782 21.865 24.6745L21.7843 25.1438H20.2157L20.135 24.6745C19.9806 23.7764 19.0214 23.2446 18.1493 23.5612ZM21 18.9979C19.8645 18.9979 18.9368 19.8938 18.9368 21C18.9368 22.1062 19.8645 23.0021 21 23.0021C22.1355 23.0021 23.0632 22.1062 23.0632 21C23.0632 19.8938 22.1355 18.9979 21 18.9979ZM21 22.0708C20.3873 22.0708 19.8928 21.5882 19.8928 21C19.8928 20.4118 20.3873 19.9292 21 19.9292C21.6127 19.9292 22.1072 20.4118 22.1072 21C22.1072 21.5882 21.6127 22.0708 21 22.0708Z" fill="#DA298C" stroke="#DA298C" stroke-width="0.15"/>
<path d="M14.1946 23.1997H9.29211C7.99865 23.1997 6.94733 22.1485 6.94733 20.8551V11.0497C6.94733 9.75624 7.99865 8.70508 9.29211 8.70508H21.6552C22.9487 8.70508 24 9.75624 24 11.0497V14.4603C24 14.8133 23.7135 15.0998 23.3605 15.0998C23.0075 15.0998 22.7211 14.8141 22.7211 14.4603V11.0497C22.7211 10.4622 22.2427 9.98402 21.6552 9.98402H9.29211C8.70463 9.98402 8.22627 10.4622 8.22627 11.0497V20.8551C8.22627 21.4426 8.70463 21.9208 9.29211 21.9208H14.1946C14.5476 21.9208 14.8341 22.2072 14.8341 22.5602C14.8341 22.9132 14.5476 23.1997 14.1946 23.1997V23.1997Z" fill="#DA298C"/>
<path d="M23.3605 13.3942H7.5868C7.23381 13.3942 6.94733 13.1077 6.94733 12.7547C6.94733 12.4017 7.23381 12.1152 7.5868 12.1152H23.3605C23.7135 12.1152 24 12.4017 24 12.7547C24 13.1077 23.7135 13.3942 23.3605 13.3942Z" fill="#DA298C"/>
<path d="M10.9973 11.6894C10.6443 11.6894 10.3578 11.4029 10.3578 11.0499V7.63947C10.3578 7.28648 10.6443 7 10.9973 7C11.3503 7 11.6367 7.28648 11.6367 7.63947V11.0499C11.6367 11.4029 11.3503 11.6894 10.9973 11.6894Z" fill="#DA298C"/>
<path d="M19.95 11.6894C19.597 11.6894 19.3105 11.4029 19.3105 11.0499V7.63947C19.3105 7.28648 19.597 7 19.95 7C20.3029 7 20.5894 7.28648 20.5894 7.63947V11.0499C20.5894 11.4029 20.3029 11.6894 19.95 11.6894Z" fill="#DA298C"/>
</svg>
