<svg width="27" height="26" viewBox="0 0 27 26" fill="none" xmlns="http://www.w3.org/2000/svg">
<path d="M26.2379 12.8268C26.2379 14.6217 25.9082 16.289 25.3065 17.7887C24.7055 19.2866 22.8026 19.8419 21.4713 18.8975C21.455 18.8859 21.4387 18.8742 21.4224 18.8632C20.5036 18.217 20.1269 17.0769 20.4716 16.022C20.785 15.0648 20.9524 13.9934 20.9524 12.8268C20.9524 7.72445 17.7621 4.52557 13.1365 4.52557C8.47521 4.52557 5.28556 7.72445 5.28556 12.8268C5.28556 13.994 5.45229 15.0642 5.7663 16.022C6.1129 17.0781 5.73621 18.2195 4.81611 18.8669C4.80295 18.8761 4.78916 18.8859 4.776 18.8951C3.44662 19.837 1.54938 19.2848 0.943918 17.7918C0.335323 16.2908 0 14.6217 0 12.8268C0 5.31655 5.9067 0 13.1365 0C20.4409 0 26.2379 5.31655 26.2379 12.8268Z" fill="#394241"/>
<path d="M16.7272 12.8361C16.7272 15.1839 15.2562 16.6904 13.1283 16.6904C10.9847 16.6904 9.51367 15.1839 9.51367 12.8361C9.51367 10.4884 10.9847 9.01318 13.1283 9.01318C15.2562 9.01318 16.7272 10.4884 16.7272 12.8361Z" fill="#2A85FF"/>
<path d="M20.8314 19.6144C22.1602 20.544 22.1195 22.4978 20.7775 23.4091C18.6315 24.8659 15.9959 25.6881 13.1385 25.6881C10.2873 25.6881 7.64229 24.8616 5.48494 23.3962C4.14177 22.4837 4.1004 20.5274 5.43167 19.5996C5.44859 19.588 5.46551 19.5763 5.48244 19.5646C6.32294 18.9848 7.46303 19.0265 8.27094 19.6499C9.56523 20.6483 11.2281 21.1975 13.1385 21.1975C15.0044 21.1975 16.6371 20.6655 17.9207 19.6954C18.7556 19.0645 19.9051 18.9749 20.7669 19.5696C20.7882 19.5843 20.8101 19.599 20.8314 19.6144Z" fill="#2A85FF"/>
</svg>
