<svg width="199" height="27" viewBox="0 0 199 27" fill="none" xmlns="http://www.w3.org/2000/svg">
<path d="M1.88086 1.01465H7.01851V26.0915H1.88086V1.01465Z" fill="#394241"/>
<path d="M23.8245 0.691895C29.5124 0.691895 34.1361 3.67355 35.8604 8.81153H29.9524C28.7415 6.40423 26.5396 5.21869 23.7875 5.21869C19.3104 5.21869 16.1177 8.41574 16.1177 13.5181C16.1177 18.5837 19.3104 21.8169 23.7875 21.8169C26.5396 21.8169 28.7415 20.6314 29.9524 18.1885H35.8604C34.1361 23.3621 29.5118 26.3081 23.8245 26.3081C16.4486 26.3081 10.834 21.0272 10.834 13.5187C10.834 6.00844 16.4486 0.691895 23.8245 0.691895Z" fill="#394241"/>
<path d="M65.2535 13.4826C65.2535 15.2775 64.9239 16.9447 64.3222 18.4445C63.7211 19.9424 61.8182 20.4977 60.4869 19.5533C60.4706 19.5416 60.4544 19.53 60.4381 19.5189C59.5192 18.8728 59.1425 17.7326 59.4872 16.6778C59.8006 15.7205 59.968 14.6491 59.968 13.4826C59.968 8.38022 56.7777 5.18133 52.1521 5.18133C47.4908 5.18133 44.3012 8.38022 44.3012 13.4826C44.3012 14.6497 44.4679 15.7199 44.7819 16.6778C45.1285 17.7339 44.7518 18.8752 43.8317 19.5226C43.8186 19.5318 43.8048 19.5416 43.7916 19.5509C42.4622 20.4928 40.565 19.9405 39.9595 18.4475C39.3509 16.9466 39.0156 15.2775 39.0156 13.4826C39.0156 5.97231 44.9223 0.655762 52.1521 0.655762C59.4565 0.655762 65.2535 5.97231 65.2535 13.4826Z" fill="#394241"/>
<path d="M90.9772 0.978516V26.0916H85.8402L74.208 8.88277V26.0916H69.0703V0.978516H74.208L85.8402 18.2235V0.978516H90.9772Z" fill="#394241"/>
<path d="M117.949 0.978516V26.0916H112.811L101.179 8.88277V26.0916H96.041V0.978516H101.179L112.811 18.2235V0.978516H117.949Z" fill="#394241"/>
<path d="M139.873 14.991H126.845V26.3439H123.506V1.30322H126.845V12.2971H139.872V1.30322H143.212V26.3439H139.872L139.873 14.991Z" fill="#394241"/>
<path d="M157.12 1.30322C163.138 1.30322 166 4.57268 166 8.66809C166 11.8651 164.202 14.9192 159.909 15.8532L166.331 26.3433H162.331L156.239 16.1041H152.203V26.3433H148.863V1.30322H157.12ZM157.12 3.9977H152.203V13.4821H157.12C160.9 13.4821 162.551 11.47 162.551 8.66809C162.551 5.83002 160.937 3.9977 157.12 3.9977Z" fill="#394241"/>
<path d="M171.174 1.48242H174.771L184.165 22.0325L193.559 1.48242H197.118V26.3433H193.779V7.80533L185.339 26.3433H182.99L174.513 7.76974V26.3433H171.174V1.48242H171.174Z" fill="#394241"/>
<path d="M55.7428 13.4919C55.7428 15.8397 54.2718 17.3461 52.1439 17.3461C50.0003 17.3461 48.5293 15.8397 48.5293 13.4919C48.5293 11.1441 50.0003 9.66895 52.1439 9.66895C54.2718 9.66895 55.7428 11.1441 55.7428 13.4919Z" fill="#2A85FF"/>
<path d="M59.8471 20.2701C61.1758 21.1998 61.1351 23.1536 59.7932 24.0648C57.6471 25.5216 55.0115 26.3439 52.1541 26.3439C49.3029 26.3439 46.6579 25.5173 44.5006 24.052C43.1574 23.1395 43.116 21.1832 44.4473 20.2554C44.4642 20.2437 44.4811 20.2321 44.4981 20.2204C45.3386 19.6405 46.4787 19.6822 47.2866 20.3057C48.5809 21.3041 50.2437 21.8533 52.1541 21.8533C54.02 21.8533 55.6527 21.3213 56.9363 20.3511C57.7712 19.7203 58.9207 19.6307 59.7825 20.2253C59.8038 20.24 59.8258 20.2548 59.8471 20.2701Z" fill="#2A85FF"/>
</svg>
