<svg xmlns="http://www.w3.org/2000/svg" xmlns:xlink="http://www.w3.org/1999/xlink" width="76" height="76" viewBox="0 0 76 76"><defs><style>.a{clip-path:url(#b);}.b{fill:#d4ffcc;}.c{opacity:0.09;}.d{fill:#449140;}.e{fill:#365e7d;}.f{fill:#2b4d66;}.g{fill:#4da84a;}.h{fill:#e4f6ff;}.i{fill:#ddcd80;}.j{fill:#dbad65;}.k{fill:#ffddce;}.l{fill:#ffcbbe;}.m{fill:#f4fbff;}.n{fill:#407c37;}.o{fill:#dbbc65;}</style><clipPath id="b"><rect width="76" height="76"/></clipPath></defs><g id="a" class="a"><g transform="translate(0 -0.003)"><ellipse class="b" cx="37.776" cy="38.117" rx="37.776" ry="38.117" transform="translate(0 0)"/><g class="c" transform="translate(32.978 0.285)"><path class="d" d="M256.967,37.967a37.834,37.834,0,0,1-15.211,30.356l13.622-3.44A37.891,37.891,0,0,0,228.708.074a38.262,38.262,0,0,0-4.817.3,37.9,37.9,0,0,1,33.076,37.589Z" transform="translate(-223.891 -0.074)"/></g><g transform="translate(10.269 11.131)"><path class="e" d="M183.959,76.856a3.5,3.5,0,0,0-3.5-3.5H168.379a8.065,8.065,0,0,0-8.065,8.065v8.954h28.451V81.544a3.5,3.5,0,0,0-3.5-3.5h-.118a1.183,1.183,0,0,1-1.184-1.183Z" transform="translate(-147.015 -73.352)"/><path class="f" d="M293.566,78.039h-.118a1.184,1.184,0,0,1-1.184-1.184,3.5,3.5,0,0,0-3.5-3.5h-1.324V90.37h9.634V81.543a3.5,3.5,0,0,0-3.5-3.5Z" transform="translate(-255.32 -73.351)"/><path class="g" d="M123.015,339.58a8.4,8.4,0,0,0-3.373-2.035L109.3,334.27l-11.3-.4-11.306.4-10.345,3.275a8.42,8.42,0,0,0-5.878,8.027V348.4a37.784,37.784,0,0,0,26.226,11.83,38.866,38.866,0,0,0,26.322-20.648Z" transform="translate(-70.466 -295.311)"/><path class="d" d="M256.286,378.07v-2.826a8.418,8.418,0,0,0-3.124-6.544,37.925,37.925,0,0,1-29.211,20.918,38.238,38.238,0,0,0,4.74.3,40.526,40.526,0,0,0,4.563-.264,37.8,37.8,0,0,0,23.032-11.588Z" transform="translate(-201.232 -324.982)"/><path class="h" d="M212.847,344.57c2.293-4.552,8.263-17.476,6.56-25.549l-7.416-2.886-7.423,2.886c-1.755,8.322,4.643,21.8,6.762,25.946q.764-.183,1.517-.4Z" transform="translate(-184.463 -280.197)"/><path class="i" d="M233.81,415.775,230.8,403.946h-3.518l-3,11.8L228,419.872q1.412-.323,2.784-.749Z" transform="translate(-201.518 -355.012)"/><path class="j" d="M245.528,499.815c.307.008.615.013.924.014.357,0,.714-.007,1.069-.017l1.91-2.111A37.6,37.6,0,0,1,244.8,499Z" transform="translate(-218.993 -434.89)"/><g transform="translate(13.299 9.495)"><g transform="translate(7.891 21.565)"><path class="k" d="M226.3,289.862v-6.671H213.628v6.671c0,3.5,6.334,7.319,6.334,7.319s6.334-3.821,6.334-7.319Z" transform="translate(-213.628 -283.191)"/></g><path class="k" d="M188.765,143.847h-2.421a2.438,2.438,0,0,1-2.438-2.438v-1.334a2.574,2.574,0,0,0-3.382-2.444,19.065,19.065,0,0,1-11.963,0h0a2.574,2.574,0,0,0-3.382,2.444v1.335a2.438,2.438,0,0,1-2.438,2.438h-2.421v3.987a1.845,1.845,0,0,0,1.845,1.845.607.607,0,0,1,.6.573,11.8,11.8,0,0,0,23.554,0,.607.607,0,0,1,.6-.573,1.845,1.845,0,0,0,1.845-1.845v-3.987Z" transform="translate(-160.314 -137.498)"/><path class="l" d="M260.8,143.85a2.438,2.438,0,0,1-2.438-2.438v-1.334a2.574,2.574,0,0,0-3.382-2.444q-.69.228-1.392.4V151.2a11.8,11.8,0,0,1-5.88,10.029,11.788,11.788,0,0,0,13.066-10.978.607.607,0,0,1,.6-.573,1.845,1.845,0,0,0,1.845-1.845V143.85H260.8Z" transform="translate(-234.775 -137.501)"/></g><g transform="translate(16.223 35.937)"><path class="m" d="M185.037,316.134l-4.967,4.036,5.209,6.441a1.725,1.725,0,0,0,2.31.088l3.917-3.272Z" transform="translate(-180.07 -316.134)"/><path class="m" d="M263.533,316.134l-6.2,7.292,3.682,3.148a1.726,1.726,0,0,0,2.317-.067l5.172-6.337Z" transform="translate(-245.896 -316.134)"/></g><path class="n" d="M166.838,316.134l-7.291,3.582a1.1,1.1,0,0,0-.495,1.5l1.428,2.769a1.854,1.854,0,0,1-.338,2.163l-.889.887a1.85,1.85,0,0,0-.454,1.885c1.725,5.257,10.025,13.3,13.166,16.2q.317.008.635.012c-2.278-4.431-10.35-21.264-5.763-29Z" transform="translate(-145.648 -280.197)"/><path class="n" d="M272.757,326.145a1.854,1.854,0,0,1-.338-2.163l1.428-2.769a1.1,1.1,0,0,0-.495-1.5l-7.291-3.582c4.585,7.735-3.481,24.561-5.761,29q.321-.006.642-.016c3.148-2.915,11.434-10.945,13.157-16.2a1.85,1.85,0,0,0-.454-1.885l-.889-.887Z" transform="translate(-232.202 -280.197)"/><path class="o" d="M235.129,365.4l-3.857,3.221,1.965,2.484h3.518l1.966-2.63Z" transform="translate(-207.47 -322.172)"/></g></g></g></svg>