<svg xmlns="http://www.w3.org/2000/svg" xmlns:xlink="http://www.w3.org/1999/xlink" width="78" height="76" viewBox="0 0 78 76"><defs><style>.a{fill:none;}.b{clip-path:url(#c);}.c{fill:#d4ffcc;}.d{clip-path:url(#a);}.e{fill:#5a4146;}.f{fill:#694b4b;}.g{fill:#e6af78;}.h{fill:#d29b6e;}.i{fill:#d5dced;}.j{fill:#afb9d2;}.k{fill:#f0c087;}.l{fill:#c7cfe2;}.m{fill:#959cb5;}.n{fill:#4da84a;}.o{fill:#efa614;}.p{fill:#d38c0d;}.q{fill:#407c37;}.r{opacity:0.09;}.s,.t{fill:#449140;}.t{opacity:0.51;}</style><clipPath id="a"><ellipse class="a" cx="38.061" cy="38.061" rx="38.061" ry="38.061"/></clipPath><clipPath id="c"><rect width="78" height="76"/></clipPath></defs><g id="b" class="b"><g transform="translate(0 -0.003)"><ellipse class="c" cx="38.061" cy="38.061" rx="38.061" ry="38.061" transform="translate(0 0.056)"/><g transform="translate(0 0.056)"><g class="d"><g transform="translate(50.698 34.924)"><path class="e" d="M362.7,245.457v.76a8.665,8.665,0,0,0,.445,2.74l1.722,5.165h3.249V242.207H365.95A3.25,3.25,0,0,0,362.7,245.457Z" transform="translate(-359.452 -241.124)"/><path class="f" d="M389.914,241.517l-1.833,6.415-8.665-7.582a2.166,2.166,0,0,1-2.166-2.166h0a3.249,3.249,0,0,1,3.249-3.249h7.582a2.166,2.166,0,0,1,2.166,2.166v2.036A8.662,8.662,0,0,1,389.914,241.517Z" transform="translate(-371.834 -234.935)"/><rect class="g" width="6.499" height="4.794" transform="translate(7.581 16.247)"/><path class="h" d="M391.8,346.041a8.594,8.594,0,0,0,6.5,0v-1.99h-6.5v1.99Z" transform="translate(-384.217 -327.804)"/><path class="i" d="M360.184,363.191l-5.225-1.493-3.249,2.156L348.46,361.7l-5.225,1.493a3.249,3.249,0,0,0-2.357,3.124v7.919a1.083,1.083,0,0,0,1.083,1.083h19.5a1.083,1.083,0,0,0,1.083-1.083v-7.919A3.249,3.249,0,0,0,360.184,363.191Z" transform="translate(-340.878 -342.824)"/><path class="j" d="M408.514,387.7h-2.166l.542-11.453h1.083Z" transform="translate(-396.6 -355.207)"/><path class="k" d="M376.475,283.3h0a6.5,6.5,0,0,1-6.5-6.5v-1.269A2.167,2.167,0,0,1,370.61,274l1.964-1.964a2.141,2.141,0,0,1,1.572-.637c3.462.109,6.527.851,8.2,2.487a2.139,2.139,0,0,1,.624,1.534v1.38A6.5,6.5,0,0,1,376.475,283.3Z" transform="translate(-365.643 -265.967)"/><path class="g" d="M373.225,275.8a2.162,2.162,0,0,1,2.3-2.163,22.853,22.853,0,0,1,7.422,1.462,2.093,2.093,0,0,0-.594-1.213c-1.675-1.636-4.74-2.378-8.2-2.487h0a2.142,2.142,0,0,0-1.572.637L370.611,274a2.166,2.166,0,0,0-.635,1.532V276.8a6.5,6.5,0,0,0,4.7,6.24,6.445,6.445,0,0,1-1.449-4.074V275.8Z" transform="translate(-365.643 -265.966)"/><path class="l" d="M457.27,385.315a3.249,3.249,0,0,1,.952-2.3l2.788-2.788a3.237,3.237,0,0,1,.593,1.858v7.919a1.083,1.083,0,0,1-1.083,1.083H457.27v-5.775Z" transform="translate(-439.94 -358.596)"/><path class="m" d="M407.973,378.413H406.89a.542.542,0,0,1-.542-.542v-1.625h2.166v1.625A.542.542,0,0,1,407.973,378.413Z" transform="translate(-396.6 -355.207)"/><g transform="translate(6.384 18.014)"><path class="l" d="M388.2,358.938l-1.836,1.4a.65.65,0,0,1-.965-.2l-1.647-3.007.663-1.011a.433.433,0,0,1,.657-.08Z" transform="translate(-383.754 -355.922)"/><path class="l" d="M413.622,358.939l1.836,1.4a.65.65,0,0,0,.965-.2l1.647-3.008-.663-1.011a.433.433,0,0,0-.657-.08Z" transform="translate(-409.175 -355.923)"/></g></g><g transform="translate(5.393 34.924)"><path class="e" d="M57.812,251.6a39.619,39.619,0,0,1-1.843-8.983,7.809,7.809,0,0,0-15.617,0A39.63,39.63,0,0,1,38.51,251.6a1.093,1.093,0,0,0,.571,1.4,20.967,20.967,0,0,0,5.733,1.7h6.693a21.146,21.146,0,0,0,5.733-1.7A1.093,1.093,0,0,0,57.812,251.6Z" transform="translate(-38.162 -234.934)"/><path class="f" d="M94.122,253a1.093,1.093,0,0,0,.571-1.4,39.619,39.619,0,0,1-1.843-8.983,7.957,7.957,0,0,0-7.808-7.684H85.01a3.35,3.35,0,0,0-1.63,6.21,3.036,3.036,0,0,0,.281.15l2.5,13.4h2.233A21.164,21.164,0,0,0,94.122,253Z" transform="translate(-75.043 -234.935)"/><path class="g" d="M54.537,342.241l-3.552-1.776a2.2,2.2,0,0,1-1.214-1.964v-3.293H43.184V338.5a2.2,2.2,0,0,1-1.214,1.964l-3.552,1.776a3.293,3.293,0,0,0-1.82,2.945v6.487a1.1,1.1,0,0,0,1.1,1.1H55.26a1.1,1.1,0,0,0,1.1-1.1v-6.487A3.293,3.293,0,0,0,54.537,342.241Z" transform="translate(-36.598 -320.278)"/><path class="h" d="M83.789,339.6a8.678,8.678,0,0,0,3.352-.677,2.167,2.167,0,0,1-.059-.42v-3.293H80.5V338.5a2.16,2.16,0,0,1-.059.422A8.721,8.721,0,0,0,83.789,339.6Z" transform="translate(-73.909 -320.277)"/><path class="i" d="M54.537,375.211l-2.531-1.265a6.577,6.577,0,0,1-11.057,0l-2.531,1.265a3.293,3.293,0,0,0-1.821,2.945v6.487a1.1,1.1,0,0,0,1.1,1.1H55.26a1.1,1.1,0,0,0,1.1-1.1v-6.487A3.293,3.293,0,0,0,54.537,375.211Z" transform="translate(-36.598 -353.248)"/><path class="k" d="M65.56,288.231h0a6.588,6.588,0,0,1-6.532-5.734,1.107,1.107,0,0,1,.587-1.141,9.17,9.17,0,0,0,1.943-1.312,6.336,6.336,0,0,0,1.5-1.976,1.087,1.087,0,0,1,1.238-.6,18.913,18.913,0,0,1,7.451,3.818,1.062,1.062,0,0,1,.378.883A6.587,6.587,0,0,1,65.56,288.231Z" transform="translate(-55.68 -271.106)"/><path class="g" d="M71.749,281.283a18.914,18.914,0,0,0-7.451-3.818,1.086,1.086,0,0,0-1.238.6,6.285,6.285,0,0,1-1,1.464v0a5.9,5.9,0,0,1-.5.508,9.164,9.164,0,0,1-1.943,1.312,1.107,1.107,0,0,0-.587,1.141,6.6,6.6,0,0,0,5.533,5.659,4.806,4.806,0,0,1-2.295-4.316v-1.565c.249-.184.5-.368.753-.593a8.745,8.745,0,0,0,1.57-1.852,16.577,16.577,0,0,1,5.721,3.113c.208.182.724.658,1.328,1.225a6.532,6.532,0,0,0,.487-2A1.062,1.062,0,0,0,71.749,281.283Z" transform="translate(-55.681 -271.105)"/><path class="l" d="M37.267,388.937a3.286,3.286,0,0,0-.669,1.979V397.4a1.1,1.1,0,0,0,1.1,1.1h3.293v-5.531a2.2,2.2,0,0,0-.824-1.714Z" transform="translate(-36.598 -366.007)"/></g><g transform="translate(14.591 14.007)"><path class="n" d="M141.68,386.079l-11.551-4.2-8.283,2.761-8.283-2.761-11.551,4.2a5.522,5.522,0,0,0-3.635,5.19v8.557a1.381,1.381,0,0,0,1.381,1.38h44.177a1.381,1.381,0,0,0,1.381-1.38v-8.557A5.522,5.522,0,0,0,141.68,386.079Z" transform="translate(-98.377 -339.083)"/><path class="o" d="M238.771,418.969l-1.315,13.8h5.522l-1.315-13.8Z" transform="translate(-216.748 -370.65)"/><path class="p" d="M243.64,405.082h-2.9a.966.966,0,0,1-.966-.966v-3.691h4.831v3.691A.966.966,0,0,1,243.64,405.082Z" transform="translate(-218.722 -354.867)"/><path class="q" d="M364.789,419.675a5.516,5.516,0,0,1,1.486,3.763v8.557a1.381,1.381,0,0,1-1.381,1.38h-6.9V428.76a5.521,5.521,0,0,1,1.617-3.9Z" transform="translate(-319.337 -371.251)"/><path class="e" d="M184.38,108.776V97.211a2.761,2.761,0,0,0-2.761-2.761H165.052a11.044,11.044,0,0,0-11.044,11.044v3.282a13.8,13.8,0,0,0,.709,4.366l.459,1.379a4.143,4.143,0,0,1,.212,1.31v.708H183v-.708a4.138,4.138,0,0,1,.212-1.31l.459-1.379A13.8,13.8,0,0,0,184.38,108.776Z" transform="translate(-145.725 -94.45)"/><path class="f" d="M200.369,100.058a5.608,5.608,0,0,0,5.608,5.608h.776l.375,10.872h15.329v-.708a4.138,4.138,0,0,1,.212-1.31l.459-1.379a13.8,13.8,0,0,0,.709-4.366V97.211a2.761,2.761,0,0,0-2.761-2.761h-15.1A5.608,5.608,0,0,0,200.369,100.058Z" transform="translate(-185.183 -94.45)"/><rect class="g" width="16.567" height="12.424" transform="translate(15.186 33.133)"/><path class="h" d="M200.368,321.644a16.47,16.47,0,0,0,16.566,0v-4.668H200.368v4.668Z" transform="translate(-185.182 -283.843)"/><g transform="translate(12.425 40.498)"><path class="q" d="M192.869,371.5l-4.4,4.4a1.38,1.38,0,0,1-2.076-.142l-4.565-6.016,1.194-2.516a1.381,1.381,0,0,1,1.971-.584Z" transform="translate(-181.825 -366.443)"/><path class="q" d="M256,371.5l4.4,4.4a1.38,1.38,0,0,0,2.076-.142l4.565-6.016-1.194-2.516a1.381,1.381,0,0,0-1.971-.584Z" transform="translate(-244.956 -366.443)"/></g><path class="k" d="M177.085,195.7h0A13.805,13.805,0,0,1,163.28,181.9v-1.617a2.762,2.762,0,0,1,.809-1.952l1.144-1.144a2.761,2.761,0,0,0,.809-1.952v-3.309a1.369,1.369,0,0,1,1.051-1.342c3.265-.771,13.425-2.6,20.34,2.488a1.771,1.771,0,0,1,.7,1.43v.733a2.761,2.761,0,0,0,.809,1.952l1.144,1.144a2.761,2.761,0,0,1,.809,1.952V181.9A13.8,13.8,0,0,1,177.085,195.7Z" transform="translate(-153.616 -158.429)"/><path class="g" d="M187.432,173.084c-4.863-3.577-11.323-3.731-15.869-3.242a37.242,37.242,0,0,0-4.471.754,1.369,1.369,0,0,0-1.051,1.342v3.309a2.762,2.762,0,0,1-.809,1.953l-1.144,1.144a2.761,2.761,0,0,0-.809,1.953v1.617a13.8,13.8,0,0,0,12.137,13.695,13.748,13.748,0,0,1-3.854-9.553V175.964a2.763,2.763,0,0,1,2.428-2.742c3.313-.415,9.381-.665,14.138,2.026v-.734A1.771,1.771,0,0,0,187.432,173.084Z" transform="translate(-153.616 -158.444)"/><path class="q" d="M99.863,419.675a5.516,5.516,0,0,0-1.486,3.763v8.557a1.38,1.38,0,0,0,1.381,1.38h6.9V428.76a5.521,5.521,0,0,0-1.617-3.9Z" transform="translate(-98.377 -371.251)"/></g></g></g><g class="r" transform="translate(33.112)"><path class="s" d="M256.039,38.117a38.057,38.057,0,0,1-15.3,30.535l10.649-.508c10.323-8.586,14.343-19.438,14.343-30.027A38.146,38.146,0,0,0,222.768.305a38.124,38.124,0,0,1,33.271,37.811Z" transform="translate(-222.768)"/></g><path class="t" d="M251.19,417.78l.046-1.2c0-2.611-1.051-3.387-3-4.962-5.091,5.913-12.47,12.995-25.412,14.64a38.461,38.461,0,0,0,4.768.306,40.771,40.771,0,0,0,4.589-.265c9.375-1.72,12.114-3.06,18.941-7.81Z" transform="translate(-189.707 -350.332)"/></g></g></svg>