<svg xmlns="http://www.w3.org/2000/svg" xmlns:xlink="http://www.w3.org/1999/xlink" width="76" height="76" viewBox="0 0 76 76"><defs><style>.a{clip-path:url(#b);}.b{fill:#d4ffcc;}.c{fill:#5a4146;}.d{fill:#694b4b;}.e{fill:#e6af78;}.f{fill:#d29b6e;}.g{fill:#d5dced;}.h{fill:#afb9d2;}.i{fill:#f0c087;}.j{fill:#c7cfe2;}.k{fill:#959cb5;}.l{fill:#4da84a;}.m{fill:#efa614;}.n{fill:#d38c0d;}.o{fill:#407c37;}.p{fill:none;stroke:#4da84a;stroke-miterlimit:10;stroke-width:2.206px;}.q{opacity:0.09;}.r{fill:#449140;}</style><clipPath id="b"><rect width="76" height="76"/></clipPath></defs><g id="a" class="a"><g transform="translate(0 -0.003)"><ellipse class="b" cx="38.096" cy="38.096" rx="38.096" ry="38.096" transform="translate(0 0.042)"/><g transform="translate(9.631 4.902)"><g transform="translate(45.451 25.623)"><path class="c" d="M381.75,210.421v.4a4.575,4.575,0,0,0,.235,1.446l.909,2.727h1.715v-6.29h-1.144A1.715,1.715,0,0,0,381.75,210.421Z" transform="translate(-380.035 -208.134)"/><path class="d" d="M396.116,208.341l-.968,3.386-4.574-4a1.144,1.144,0,0,1-1.144-1.144h0a1.715,1.715,0,0,1,1.715-1.715h4a1.144,1.144,0,0,1,1.143,1.144v1.075A4.568,4.568,0,0,1,396.116,208.341Z" transform="translate(-386.571 -204.866)"/><rect class="e" width="3.431" height="2.531" transform="translate(4.002 8.577)"/><path class="f" d="M397.111,263.52a4.537,4.537,0,0,0,3.431,0v-1.05h-3.431v1.05Z" transform="translate(-393.108 -253.893)"/><path class="g" d="M380.421,272.574l-2.759-.788-1.715,1.138-1.715-1.138-2.758.788a1.715,1.715,0,0,0-1.244,1.649v4.18a.572.572,0,0,0,.572.572h10.292a.572.572,0,0,0,.572-.572v-4.18A1.715,1.715,0,0,0,380.421,272.574Z" transform="translate(-370.229 -261.822)"/><path class="h" d="M405.935,285.513h-1.144l.286-6.046h.572Z" transform="translate(-399.645 -268.359)"/><path class="i" d="M389.021,230.4h0a3.431,3.431,0,0,1-3.431-3.431v-.67a1.144,1.144,0,0,1,.335-.809l1.037-1.037a1.13,1.13,0,0,1,.83-.336,6.649,6.649,0,0,1,4.33,1.313,1.129,1.129,0,0,1,.33.81v.729A3.431,3.431,0,0,1,389.021,230.4Z" transform="translate(-383.303 -221.248)"/><path class="e" d="M387.305,226.438a1.141,1.141,0,0,1,1.212-1.142,12.065,12.065,0,0,1,3.918.772,1.106,1.106,0,0,0-.314-.641,6.651,6.651,0,0,0-4.33-1.313h0a1.131,1.131,0,0,0-.83.336l-1.037,1.037a1.143,1.143,0,0,0-.335.809v.67a3.43,3.43,0,0,0,2.48,3.294,3.4,3.4,0,0,1-.765-2.151v-1.671Z" transform="translate(-383.303 -221.248)"/><path class="j" d="M431.673,284.254a1.715,1.715,0,0,1,.5-1.213l1.472-1.472a1.709,1.709,0,0,1,.313.981v4.18a.572.572,0,0,1-.572.572h-1.715v-3.049Z" transform="translate(-422.524 -270.148)"/><path class="j" d="M372.516,284.254V287.3H370.8a.572.572,0,0,1-.572-.572v-4.18a1.707,1.707,0,0,1,.313-.981l1.472,1.472a1.715,1.715,0,0,1,.5,1.213Z" transform="translate(-370.229 -270.148)"/><path class="k" d="M405.649,280.61h-.572a.286.286,0,0,1-.286-.286v-.858h1.144v.858A.286.286,0,0,1,405.649,280.61Z" transform="translate(-399.645 -268.359)"/><g transform="translate(3.37 9.51)"><path class="j" d="M395.212,270.329l-.969.74a.343.343,0,0,1-.509-.108l-.869-1.588.35-.534a.229.229,0,0,1,.347-.042Z" transform="translate(-392.864 -268.737)"/><path class="j" d="M408.632,270.33l.969.74a.343.343,0,0,0,.509-.108l.869-1.588-.35-.534a.229.229,0,0,0-.347-.042Z" transform="translate(-406.284 -268.737)"/></g></g><g transform="translate(17.389 49.275)"><path class="c" d="M193.275,369.273v.4a4.575,4.575,0,0,0,.235,1.447l.909,2.727h1.715v-6.29H194.99A1.715,1.715,0,0,0,193.275,369.273Z" transform="translate(-191.56 -366.986)"/><path class="d" d="M207.641,367.193l-.968,3.386-4.574-4a1.144,1.144,0,0,1-1.144-1.144h0a1.716,1.716,0,0,1,1.715-1.715h4a1.144,1.144,0,0,1,1.144,1.144v1.075A4.57,4.57,0,0,1,207.641,367.193Z" transform="translate(-198.096 -363.718)"/><rect class="e" width="3.431" height="2.531" transform="translate(4.002 8.577)"/><path class="f" d="M208.636,422.372a4.536,4.536,0,0,0,3.431,0v-1.05h-3.431v1.05Z" transform="translate(-204.633 -412.745)"/><path class="g" d="M191.946,431.426l-2.759-.788-1.715,1.138-1.715-1.138-2.758.788a1.715,1.715,0,0,0-1.244,1.649v4.18a.572.572,0,0,0,.572.572h10.292a.572.572,0,0,0,.572-.572v-4.18A1.715,1.715,0,0,0,191.946,431.426Z" transform="translate(-181.754 -420.674)"/><path class="h" d="M217.46,444.365h-1.144l.286-6.046h.572Z" transform="translate(-211.17 -427.211)"/><path class="i" d="M200.546,389.249h0a3.431,3.431,0,0,1-3.431-3.431v-.67a1.144,1.144,0,0,1,.335-.809l1.037-1.037a1.13,1.13,0,0,1,.83-.336,6.649,6.649,0,0,1,4.33,1.313,1.129,1.129,0,0,1,.33.81v.729A3.431,3.431,0,0,1,200.546,389.249Z" transform="translate(-194.828 -380.1)"/><path class="e" d="M198.83,385.289a1.141,1.141,0,0,1,1.212-1.142,12.067,12.067,0,0,1,3.918.772,1.106,1.106,0,0,0-.314-.641,6.65,6.65,0,0,0-4.33-1.313h0a1.131,1.131,0,0,0-.83.336l-1.037,1.037a1.143,1.143,0,0,0-.335.809v.67a3.43,3.43,0,0,0,2.48,3.294,3.4,3.4,0,0,1-.765-2.151v-1.672Z" transform="translate(-194.828 -380.1)"/><path class="j" d="M243.2,443.106a1.715,1.715,0,0,1,.5-1.213l1.472-1.472a1.709,1.709,0,0,1,.313.981v4.18a.572.572,0,0,1-.572.572H243.2v-3.049Z" transform="translate(-234.05 -429)"/><path class="j" d="M184.041,443.106v3.049h-1.715a.572.572,0,0,1-.572-.572V441.4a1.708,1.708,0,0,1,.313-.981l1.472,1.472a1.715,1.715,0,0,1,.5,1.213Z" transform="translate(-181.754 -429)"/><path class="k" d="M217.174,439.463H216.6a.286.286,0,0,1-.286-.286v-.858h1.144v.858A.286.286,0,0,1,217.174,439.463Z" transform="translate(-211.17 -427.212)"/><g transform="translate(3.37 9.51)"><path class="j" d="M206.737,429.181l-.969.74a.343.343,0,0,1-.509-.108l-.869-1.588.35-.534a.229.229,0,0,1,.347-.042Z" transform="translate(-204.389 -427.589)"/><path class="j" d="M220.157,429.182l.969.74a.343.343,0,0,0,.509-.108l.869-1.588-.35-.534a.229.229,0,0,0-.347-.042Z" transform="translate(-217.809 -427.589)"/></g></g><g transform="translate(23.609 25.623)"><path class="c" d="M234.73,213.665a20.907,20.907,0,0,1-.973-4.742,4.123,4.123,0,0,0-8.244,0,20.916,20.916,0,0,1-.973,4.742.577.577,0,0,0,.3.737,11.072,11.072,0,0,0,3.027.9H231.4a11.174,11.174,0,0,0,3.027-.9A.577.577,0,0,0,234.73,213.665Z" transform="translate(-224.357 -204.866)"/><path class="d" d="M253.9,214.4a.577.577,0,0,0,.3-.737,20.909,20.909,0,0,1-.973-4.742,4.2,4.2,0,0,0-4.122-4.057h-.017a1.769,1.769,0,0,0-.86,3.278,1.616,1.616,0,0,0,.148.079l1.317,7.074h1.179A11.171,11.171,0,0,0,253.9,214.4Z" transform="translate(-243.827 -204.867)"/><path class="e" d="M233,261.515l-1.875-.938a1.159,1.159,0,0,1-.641-1.037V257.8h-3.477v1.739a1.159,1.159,0,0,1-.641,1.037l-1.875.938a1.738,1.738,0,0,0-.961,1.555v3.425a.58.58,0,0,0,.579.579h9.272a.579.579,0,0,0,.579-.579V263.07A1.738,1.738,0,0,0,233,261.515Z" transform="translate(-223.531 -249.92)"/><path class="f" d="M248.444,260.119a4.58,4.58,0,0,0,1.77-.358,1.136,1.136,0,0,1-.031-.222V257.8h-3.477v1.739a1.144,1.144,0,0,1-.031.223A4.6,4.6,0,0,0,248.444,260.119Z" transform="translate(-243.228 -249.919)"/><path class="g" d="M233,278.92l-1.336-.668a3.472,3.472,0,0,1-5.837,0l-1.336.668a1.738,1.738,0,0,0-.961,1.555V283.9a.58.58,0,0,0,.579.579h9.272a.579.579,0,0,0,.579-.579v-3.425A1.738,1.738,0,0,0,233,278.92Z" transform="translate(-223.531 -267.325)"/><path class="i" d="M238.821,233h0a3.478,3.478,0,0,1-3.448-3.027.584.584,0,0,1,.31-.6,4.842,4.842,0,0,0,1.026-.693,3.347,3.347,0,0,0,.793-1.043.574.574,0,0,1,.653-.318,9.987,9.987,0,0,1,3.934,2.015.561.561,0,0,1,.2.466A3.478,3.478,0,0,1,238.821,233Z" transform="translate(-233.605 -223.962)"/><path class="e" d="M242.088,229.334a9.984,9.984,0,0,0-3.933-2.015.574.574,0,0,0-.653.318,3.315,3.315,0,0,1-.53.773v0a3.134,3.134,0,0,1-.263.268,4.842,4.842,0,0,1-1.026.693.584.584,0,0,0-.31.6,3.482,3.482,0,0,0,2.921,2.987,2.537,2.537,0,0,1-1.211-2.278v-.827c.132-.1.264-.194.4-.313a4.609,4.609,0,0,0,.829-.978,8.752,8.752,0,0,1,3.02,1.643c.11.1.382.348.7.647a3.456,3.456,0,0,0,.257-1.057A.56.56,0,0,0,242.088,229.334Z" transform="translate(-233.605 -223.961)"/><path class="j" d="M223.884,286.166a1.735,1.735,0,0,0-.353,1.045v3.425a.58.58,0,0,0,.579.579h1.739v-2.92a1.159,1.159,0,0,0-.435-.905Z" transform="translate(-223.531 -274.061)"/><path class="j" d="M278.456,287.39a1.159,1.159,0,0,0-.435.905v2.92h1.738a.579.579,0,0,0,.58-.579v-3.425a1.735,1.735,0,0,0-.353-1.045Z" transform="translate(-269.908 -274.061)"/></g><g transform="translate(0 25.623)"><path class="l" d="M76.923,285.392l-3.189-1.16-2.287.763-2.287-.763-3.189,1.16a1.525,1.525,0,0,0-1,1.433v2.363a.381.381,0,0,0,.381.381h12.2a.381.381,0,0,0,.381-.381v-2.363A1.525,1.525,0,0,0,76.923,285.392Z" transform="translate(-64.966 -272.415)"/><path class="m" d="M103.731,294.473l-.363,3.812h1.525l-.363-3.812Z" transform="translate(-97.651 -281.132)"/><path class="n" d="M105.076,290.639h-.8a.267.267,0,0,1-.267-.267v-1.019h1.334v1.019A.267.267,0,0,1,105.076,290.639Z" transform="translate(-98.196 -276.773)"/><path class="o" d="M138.528,294.668a1.523,1.523,0,0,1,.41,1.039v2.363a.381.381,0,0,1-.381.381h-1.906v-1.274a1.525,1.525,0,0,1,.447-1.078Z" transform="translate(-125.978 -281.297)"/><path class="c" d="M88.713,208.822v-3.193a.762.762,0,0,0-.762-.762H83.376a3.05,3.05,0,0,0-3.049,3.05v.906a3.812,3.812,0,0,0,.2,1.205l.127.381a1.144,1.144,0,0,1,.059.362v.2h7.624v-.2a1.144,1.144,0,0,1,.059-.362l.127-.381A3.813,3.813,0,0,0,88.713,208.822Z" transform="translate(-78.04 -204.866)"/><path class="d" d="M93.128,206.415a1.549,1.549,0,0,0,1.548,1.549h.214l.1,3h4.233v-.2a1.144,1.144,0,0,1,.059-.362l.127-.381a3.813,3.813,0,0,0,.2-1.205v-3.193a.763.763,0,0,0-.762-.762H94.676A1.549,1.549,0,0,0,93.128,206.415Z" transform="translate(-88.935 -204.866)"/><rect class="e" width="4.574" height="3.431" transform="translate(4.193 9.149)"/><path class="f" d="M93.127,267.6a4.547,4.547,0,0,0,4.574,0v-1.289H93.127V267.6Z" transform="translate(-88.934 -257.162)"/><g transform="translate(3.431 11.182)"><path class="o" d="M91.057,281.367l-1.216,1.216a.381.381,0,0,1-.573-.039l-1.261-1.661.33-.695a.381.381,0,0,1,.544-.161Z" transform="translate(-88.007 -279.97)"/><path class="o" d="M108.489,281.367l1.216,1.216a.381.381,0,0,0,.573-.039l1.261-1.661-.33-.695a.381.381,0,0,0-.544-.161Z" transform="translate(-105.439 -279.97)"/></g><path class="i" d="M86.7,232.825h0a3.812,3.812,0,0,1-3.812-3.812v-.447a.763.763,0,0,1,.223-.539l.316-.316a.763.763,0,0,0,.223-.539v-.914a.378.378,0,0,1,.29-.37c.9-.213,3.707-.717,5.616.687a.489.489,0,0,1,.193.395v.2a.763.763,0,0,0,.223.539l.316.316a.763.763,0,0,1,.223.539v.447A3.812,3.812,0,0,1,86.7,232.825Z" transform="translate(-80.219 -222.533)"/><path class="e" d="M89.556,226.579a6.346,6.346,0,0,0-4.382-.9,10.288,10.288,0,0,0-1.234.208.378.378,0,0,0-.29.37v.914a.763.763,0,0,1-.223.539l-.316.316a.762.762,0,0,0-.223.539v.447a3.811,3.811,0,0,0,3.351,3.781,3.8,3.8,0,0,1-1.064-2.638v-2.786a.763.763,0,0,1,.67-.757,6.629,6.629,0,0,1,3.9.559v-.2A.489.489,0,0,0,89.556,226.579Z" transform="translate(-80.219 -222.536)"/><path class="o" d="M65.376,294.668a1.524,1.524,0,0,0-.41,1.039v2.363a.381.381,0,0,0,.381.381h1.906v-1.274a1.524,1.524,0,0,0-.447-1.078Z" transform="translate(-64.966 -281.297)"/></g><g transform="translate(22.344)"><path class="l" d="M226.993,113.3l-3.189-1.16-2.287.762-2.287-.762-3.19,1.16a1.525,1.525,0,0,0-1,1.433V117.1a.381.381,0,0,0,.381.381h12.2A.381.381,0,0,0,228,117.1v-2.363A1.525,1.525,0,0,0,226.993,113.3Z" transform="translate(-215.036 -100.325)"/><path class="m" d="M253.8,122.384l-.363,3.812h1.525l-.363-3.812Z" transform="translate(-247.721 -109.042)"/><path class="n" d="M255.146,118.549h-.8a.267.267,0,0,1-.267-.267v-1.019h1.334v1.019A.267.267,0,0,1,255.146,118.549Z" transform="translate(-248.266 -104.684)"/><path class="o" d="M288.6,122.579a1.522,1.522,0,0,1,.41,1.039v2.363a.381.381,0,0,1-.381.381h-1.906v-1.274a1.525,1.525,0,0,1,.447-1.078Z" transform="translate(-276.048 -109.208)"/><path class="c" d="M238.783,36.733V33.539a.762.762,0,0,0-.762-.762h-4.574a3.05,3.05,0,0,0-3.05,3.049v.906a3.812,3.812,0,0,0,.2,1.205l.127.381a1.14,1.14,0,0,1,.059.362v.2H238.4v-.2a1.144,1.144,0,0,1,.059-.362l.127-.381A3.812,3.812,0,0,0,238.783,36.733Z" transform="translate(-228.11 -32.777)"/><path class="d" d="M243.2,34.325a1.548,1.548,0,0,0,1.548,1.549h.214l.1,3H249.3v-.2a1.143,1.143,0,0,1,.059-.362l.127-.381a3.812,3.812,0,0,0,.2-1.205V33.539a.762.762,0,0,0-.762-.762h-4.169A1.548,1.548,0,0,0,243.2,34.325Z" transform="translate(-239.006 -32.777)"/><rect class="e" width="4.574" height="3.431" transform="translate(4.193 9.149)"/><path class="f" d="M243.2,95.51a4.548,4.548,0,0,0,4.574,0V94.221H243.2V95.51Z" transform="translate(-239.005 -85.072)"/><g transform="translate(3.431 11.182)"><path class="o" d="M241.128,109.277l-1.216,1.216a.381.381,0,0,1-.573-.039l-1.261-1.661.33-.695a.381.381,0,0,1,.544-.161Z" transform="translate(-238.078 -107.88)"/><path class="o" d="M258.56,109.277l1.216,1.216a.381.381,0,0,0,.573-.039l1.26-1.661-.33-.695a.381.381,0,0,0-.544-.161Z" transform="translate(-255.51 -107.88)"/></g><path class="i" d="M236.77,60.735h0a3.812,3.812,0,0,1-3.812-3.812v-.447a.763.763,0,0,1,.223-.539l.316-.316a.763.763,0,0,0,.223-.539v-.914a.378.378,0,0,1,.29-.37c.9-.213,3.707-.717,5.616.687a.489.489,0,0,1,.193.395v.2a.763.763,0,0,0,.223.539l.316.316a.762.762,0,0,1,.223.539v.447A3.812,3.812,0,0,1,236.77,60.735Z" transform="translate(-230.29 -50.443)"/><path class="e" d="M239.627,54.489a6.346,6.346,0,0,0-4.382-.9,10.29,10.29,0,0,0-1.234.208.378.378,0,0,0-.29.37v.914a.762.762,0,0,1-.223.539l-.316.316a.763.763,0,0,0-.223.539v.447a3.81,3.81,0,0,0,3.351,3.781,3.8,3.8,0,0,1-1.064-2.638V55.284a.763.763,0,0,1,.671-.757,6.629,6.629,0,0,1,3.9.559v-.2A.489.489,0,0,0,239.627,54.489Z" transform="translate(-230.29 -50.446)"/><path class="o" d="M215.446,122.579a1.522,1.522,0,0,0-.41,1.039v2.363a.381.381,0,0,0,.381.381h1.906v-1.274a1.525,1.525,0,0,0-.447-1.078Z" transform="translate(-215.036 -109.208)"/></g><g transform="translate(6.48 17.976)"><line class="p" y2="7.002" transform="translate(22.344)"/><line class="p" y2="3.501" transform="translate(0 3.501)"/><line class="p" y2="3.501" transform="translate(45.261 3.501)"/><line class="p" x2="45.261" transform="translate(0 3.501)"/></g><g transform="translate(5.718 43.211)"><line class="p" x2="17.961" transform="translate(0 3.337)"/><line class="p" y2="3.501" transform="translate(0.052)"/><line class="p" y2="2.546" transform="translate(17.919 3.145)"/></g></g><g class="q" transform="translate(33.229 0)"><path class="r" d="M256.728,37.969c0,12.494-9.219,35-33.023,37.778a29.644,29.644,0,0,0,6.289.3,49.461,49.461,0,0,0,9.146-1.563c6.375-1.512,12.616-6.471,12.616-6.471,10.323-8.586,14.663-19.453,14.663-30.042A38.146,38.146,0,0,0,223.457.157,38.124,38.124,0,0,1,256.728,37.969Z" transform="translate(-223.457 0.148)"/></g></g></g></svg>