<svg xmlns="http://www.w3.org/2000/svg" xmlns:xlink="http://www.w3.org/1999/xlink" width="78" height="76" viewBox="0 0 78 76"><defs><style>.a{clip-path:url(#b);}.b{fill:#d4ffcc;}.c{opacity:0.09;}.d{fill:#449140;}.e{fill:#9df991;}.f{fill:#39c639;}.g{fill:#e8fce8;}.h{fill:#e5b428;}.i{fill:#95d6a4;}.j{fill:#197719;}.k{fill:#ecbe6b;}.l{fill:#d6ead6;}</style><clipPath id="b"><rect width="78" height="76"/></clipPath></defs><g id="a" class="a"><g transform="translate(2.134 0.168)"><ellipse class="b" cx="38.018" cy="38.018" rx="38.018" ry="38.018" transform="translate(0 0.002)"/><g class="c" transform="translate(33.27 0)"><path class="d" d="M256.729,37.969c0,12.495-9.219,35-33.024,37.778a29.646,29.646,0,0,0,6.29.3,49.463,49.463,0,0,0,9.146-1.563c6.375-1.512,12.616-6.471,12.616-6.471,10.323-8.586,14.663-19.454,14.663-30.042A38.147,38.147,0,0,0,223.457.157,38.124,38.124,0,0,1,256.729,37.969Z" transform="translate(-223.457 0.148)"/></g><g transform="translate(19.057 15.498)"><path class="e" d="M161.842,145.213V105.45a1.511,1.511,0,0,0-1.511-1.511h-30.82A1.511,1.511,0,0,0,128,105.45v39.763a1.511,1.511,0,0,0,1.511,1.511h30.82a1.511,1.511,0,0,0,1.511-1.511Z" transform="translate(-128 -103.939)"/><path class="f" d="M330.749,103.939h-2.832a1.511,1.511,0,0,1,1.511,1.511v39.763a1.511,1.511,0,0,1-1.511,1.511h2.832a1.511,1.511,0,0,0,1.511-1.511V105.45A1.511,1.511,0,0,0,330.749,103.939Z" transform="translate(-298.15 -103.939)"/><path class="g" d="M188.757,173.056V133.293a1.511,1.511,0,0,0-1.511-1.511h-30.82a1.511,1.511,0,0,0-1.511,1.511v39.763a1.511,1.511,0,0,0,1.511,1.511h30.82A1.511,1.511,0,0,0,188.757,173.056Z" transform="translate(-150.907 -127.636)"/><path class="h" d="M235.622,208.951h-6.757v6.757A6.757,6.757,0,0,0,235.622,208.951Z" transform="translate(-213.847 -193.315)"/><path class="i" d="M197,170.325a6.757,6.757,0,1,0-6.757,6.757v-6.757Z" transform="translate(-175.221 -154.689)"/><g transform="translate(25.34 10.775)"><path class="j" d="M305.257,177.721H298.9a.708.708,0,0,1,0-1.416h6.36a.708.708,0,0,1,0,1.416Z" transform="translate(-298.189 -176.305)"/></g><g transform="translate(25.34 14.437)"><path class="j" d="M305.257,202.314H298.9a.708.708,0,0,1,0-1.416h6.36a.708.708,0,0,1,0,1.416Z" transform="translate(-298.189 -200.898)"/></g><g transform="translate(25.34 18.099)"><path class="j" d="M305.257,226.908H298.9a.708.708,0,0,1,0-1.416h6.36a.708.708,0,1,1,0,1.416Z" transform="translate(-298.189 -225.492)"/></g><g transform="translate(8.261 28.701)"><path class="k" d="M186.81,310.78h-3.044a.283.283,0,0,1-.283-.283V296.979a.283.283,0,0,1,.283-.283h3.044a.283.283,0,0,1,.283.283V310.5A.283.283,0,0,1,186.81,310.78Z" transform="translate(-183.482 -296.696)"/><path class="k" d="M230.8,325.928h-3.044a.283.283,0,0,1-.283-.283V314.776a.283.283,0,0,1,.283-.283H230.8a.283.283,0,0,1,.283.283v10.868A.283.283,0,0,1,230.8,325.928Z" transform="translate(-220.92 -311.843)"/><path class="k" d="M274.787,345.241h-3.044a.283.283,0,0,1-.283-.283v-7.489a.283.283,0,0,1,.283-.283h3.044a.283.283,0,0,1,.283.283v7.489a.283.283,0,0,1-.283.283Z" transform="translate(-258.36 -331.156)"/></g><g transform="translate(22.458 27.993)"><path class="j" d="M288.78,293.357h-9.242a.708.708,0,0,1,0-1.416h9.242a.708.708,0,0,1,0,1.416Z" transform="translate(-278.83 -291.941)"/></g><g transform="translate(28.801 31.654)"><path class="j" d="M325.036,317.95h-2.9a.708.708,0,1,1,0-1.416h2.9a.708.708,0,1,1,0,1.416Z" transform="translate(-321.428 -316.534)"/></g><g transform="translate(28.801 35.316)"><path class="j" d="M325.036,342.543h-2.9a.708.708,0,1,1,0-1.416h2.9a.708.708,0,0,1,0,1.416Z" transform="translate(-321.428 -341.127)"/></g><g transform="translate(28.801 38.978)"><path class="j" d="M325.036,367.137h-2.9a.708.708,0,1,1,0-1.416h2.9a.708.708,0,0,1,0,1.416Z" transform="translate(-321.428 -365.721)"/></g><path class="l" d="M357.664,131.782h-2.832a1.511,1.511,0,0,1,1.511,1.511v39.763a1.511,1.511,0,0,1-1.511,1.511h2.832a1.511,1.511,0,0,0,1.511-1.511V133.293A1.511,1.511,0,0,0,357.664,131.782Z" transform="translate(-321.058 -127.636)"/><path class="f" d="M136.9,133.293V170.41c.137.016-.051.012,2.677.012V133.293a1.511,1.511,0,0,1,1.511-1.511h-2.677A1.511,1.511,0,0,0,136.9,133.293Z" transform="translate(-135.572 -127.636)"/></g></g></g></svg>