<svg xmlns="http://www.w3.org/2000/svg" xmlns:xlink="http://www.w3.org/1999/xlink" width="76" height="76" viewBox="0 0 76 76"><defs><style>.a{clip-path:url(#b);}.b{fill:#d4ffcc;}.c{opacity:0.09;}.d{fill:#449140;}.e{fill:#61a058;}.f{fill:#74b76c;}.g{fill:#8fc683;}.h{fill:#a1d898;}</style><clipPath id="b"><rect width="76" height="76"/></clipPath></defs><g id="a" class="a"><g transform="translate(0 0.148)"><circle class="b" cx="38" cy="38" r="38" transform="translate(0 -0.148)"/><g class="c" transform="translate(33.344 -0.148)"><path class="d" d="M256.8,38.052c0,12.522-9.239,35.077-33.1,37.86a29.71,29.71,0,0,0,6.3.3,49.569,49.569,0,0,0,9.166-1.566c6.389-1.515,12.644-6.485,12.644-6.485,10.346-8.6,14.695-19.5,14.695-30.107A38.229,38.229,0,0,0,223.457.158,38.207,38.207,0,0,1,256.8,38.052Z" transform="translate(-223.457 0.148)"/></g><g transform="translate(13.15 15.428)"><path class="e" d="M191.439,120.076c0-.3-.011-.608-.032-.913l2.885-2.47-.141-.558a16.209,16.209,0,0,0-1.807-4.362l-.3-.494-3.78.293a13.107,13.107,0,0,0-1.3-1.306l.294-3.787-.494-.295a16.209,16.209,0,0,0-4.362-1.807l-.558-.141-2.466,2.88c-.312-.022-.623-.034-.934-.034l-2.784,2.784,2.784,2.784a7.425,7.425,0,0,1,0,14.85l-2.784,2.784,2.784,2.784c.3,0,.608-.011.913-.032l2.47,2.885.558-.141a16.2,16.2,0,0,0,4.362-1.807l.494-.295-.293-3.78a13.092,13.092,0,0,0,1.306-1.3l3.787.294.295-.494a16.2,16.2,0,0,0,1.807-4.362l.141-.558-2.88-2.466c.022-.313.034-.625.034-.934Z" transform="translate(-162.599 -104.236)"/><path class="f" d="M90.977,120.076c0-.3.011-.608.032-.913l-2.885-2.47.141-.558a16.208,16.208,0,0,1,1.807-4.362l.295-.494,3.78.293a13.09,13.09,0,0,1,1.3-1.306l-.294-3.787.494-.295a16.2,16.2,0,0,1,4.362-1.807l.558-.141,2.466,2.88c.312-.022.623-.034.934-.034v5.569a7.425,7.425,0,1,0,0,14.85v5.569c-.3,0-.608-.011-.913-.032l-2.47,2.885-.558-.141a16.2,16.2,0,0,1-4.362-1.807l-.494-.295.293-3.78a13.077,13.077,0,0,1-1.306-1.3l-3.787.294-.295-.494a16.2,16.2,0,0,1-1.807-4.362l-.141-.558,2.88-2.466c-.022-.313-.034-.625-.034-.934Z" transform="translate(-88.124 -104.236)"/><path class="g" d="M183.737,148.189l-1.856,1.856,1.856,1.856a5.569,5.569,0,1,1,0,11.138l-1.856,1.856,1.856,1.856a9.281,9.281,0,1,0,0-18.563Z" transform="translate(-167.891 -141.63)"/><path class="h" d="M135.834,157.47A5.575,5.575,0,0,1,141.4,151.9v-3.713a9.281,9.281,0,1,0,0,18.563v-3.713A5.575,5.575,0,0,1,135.834,157.47Z" transform="translate(-125.556 -141.63)"/></g><g transform="translate(37.578 39.697)"><path class="e" d="M301.114,273.62c-.059-.163-.124-.325-.2-.486l1.073-1.895-.185-.273a9.3,9.3,0,0,0-1.826-2l-.255-.209-1.981.9a7.524,7.524,0,0,0-.958-.449l-.581-2.1-.324-.062a9.291,9.291,0,0,0-2.7-.122l-.328.033-.767,2.034q-.259.073-.51.164l-.957,2.045,2.045.957a4.257,4.257,0,1,1,2.9,8L294.6,282.2l2.045.957q.246-.089.486-.2l1.895,1.073.273-.185a9.287,9.287,0,0,0,2-1.826l.209-.255-.9-1.98a7.528,7.528,0,0,0,.449-.958l2.1-.581.063-.324a9.3,9.3,0,0,0,.122-2.7l-.033-.328-2.034-.767c-.049-.173-.1-.343-.164-.51Z" transform="translate(-284.827 -266.875)"/><path class="f" d="M254.1,286.722c-.059-.163-.113-.33-.161-.5l-2.037-.768-.033-.328a9.3,9.3,0,0,1,.122-2.7l.063-.324,2.095-.58a7.536,7.536,0,0,1,.448-.959l-.9-1.984.209-.255a9.288,9.288,0,0,1,2-1.826l.273-.185,1.891,1.071c.164-.073.329-.14.5-.2l1.087,3a4.257,4.257,0,1,0,2.9,8l1.087,3q-.246.089-.5.161l-.768,2.037-.328.033a9.288,9.288,0,0,1-2.7-.122l-.324-.062-.58-2.095a7.514,7.514,0,0,1-.959-.448l-1.984.9-.255-.209a9.289,9.289,0,0,1-1.826-2l-.185-.273,1.071-1.891c-.073-.164-.14-.33-.2-.5Z" transform="translate(-251.826 -274.902)"/><path class="g" d="M298.25,293.737l-.638,1.363,1.363.638a3.193,3.193,0,0,1,2.175,6l-.638,1.363,1.363.638a5.321,5.321,0,1,0-3.625-10.006Z" transform="translate(-290.78 -289.458)"/><path class="h" d="M280.692,301.643a3.2,3.2,0,0,1,1.914-4.089l-.725-2a5.321,5.321,0,0,0,3.625,10.006l-.725-2A3.2,3.2,0,0,1,280.692,301.643Z" transform="translate(-274.411 -291.274)"/></g><g transform="translate(45.631 25.543)"><path class="e" d="M339.062,176.572c-.04-.11-.084-.22-.132-.328l.724-1.279-.125-.184a6.277,6.277,0,0,0-1.232-1.349l-.173-.141-1.337.6a5.089,5.089,0,0,0-.647-.3l-.392-1.416-.219-.042a6.275,6.275,0,0,0-1.825-.083l-.221.022-.517,1.373q-.175.049-.344.111l-.646,1.38,1.38.646a2.873,2.873,0,1,1,1.957,5.4l-.646,1.38,1.38.646q.166-.06.328-.132l1.279.724.184-.125a6.266,6.266,0,0,0,1.349-1.232l.141-.172-.6-1.337a5.052,5.052,0,0,0,.3-.646l1.417-.392.042-.219a6.268,6.268,0,0,0,.082-1.825l-.022-.222-1.372-.517c-.033-.117-.07-.232-.111-.344Z" transform="translate(-328.071 -172.02)"/><path class="f" d="M307.337,185.414c-.04-.11-.076-.222-.109-.336l-1.375-.518-.022-.222a6.268,6.268,0,0,1,.082-1.825l.042-.219,1.414-.392a5.086,5.086,0,0,1,.3-.647l-.606-1.339.141-.172a6.277,6.277,0,0,1,1.349-1.232l.184-.125,1.277.723q.166-.074.335-.135l.734,2.026a2.873,2.873,0,0,0,1.957,5.4l.734,2.026q-.166.06-.336.109l-.518,1.375-.222.022a6.265,6.265,0,0,1-1.825-.082l-.219-.042-.392-1.414a5.037,5.037,0,0,1-.647-.3l-1.339.606-.172-.141a6.266,6.266,0,0,1-1.232-1.349l-.125-.184.723-1.276c-.049-.111-.095-.223-.135-.335Z" transform="translate(-305.799 -177.437)"/><path class="g" d="M337.13,190.148l-.431.92.92.431a2.155,2.155,0,1,1,1.468,4.052l-.43.92.92.431a3.591,3.591,0,0,0-2.447-6.753Z" transform="translate(-332.088 -187.26)"/><path class="h" d="M325.28,195.484a2.157,2.157,0,0,1,1.292-2.76l-.489-1.351a3.591,3.591,0,0,0,2.447,6.753l-.489-1.351A2.157,2.157,0,0,1,325.28,195.484Z" transform="translate(-321.042 -188.486)"/></g></g></g></svg>