<svg width="25" height="25" viewBox="0 0 25 25"  xmlns="http://www.w3.org/2000/svg">
<g clip-path="url(#clip0_642_1975)">
<path d="M24.8284 15.3285L15.3629 24.7939C15.2547 24.9021 15.1085 24.9636 14.9555 24.9654L12.0085 25H12.0017C11.9241 25 11.8474 24.9846 11.7758 24.9547C11.7043 24.9249 11.6394 24.8811 11.5849 24.826C11.5304 24.7708 11.4874 24.7054 11.4583 24.6335C11.4293 24.5616 11.4148 24.4847 11.4157 24.4072L11.4502 21.4603C11.452 21.3072 11.5136 21.161 11.6218 21.0528L12.2517 20.4229H2.87568C2.11327 20.422 1.38233 20.1188 0.843225 19.5797C0.304117 19.0406 0.000865872 18.3096 0 17.5472L0 5.05898C0.000865872 4.29657 0.304117 3.56563 0.843225 3.02653C1.38233 2.48742 2.11327 2.18417 2.87568 2.1833H3.78906V1.14038C3.78941 0.838049 3.90966 0.548198 4.12344 0.334412C4.33722 0.120627 4.62706 0.000361843 4.92939 0L6.17188 0C6.47418 0.000400625 6.76398 0.120684 6.97772 0.334467C7.19145 0.54825 7.31168 0.838078 7.31201 1.14038V2.1833H14.3479V1.14038C14.3482 0.838028 14.4684 0.548155 14.6822 0.334364C14.896 0.120572 15.1859 0.000323103 15.4883 0L16.7305 0C17.0329 0.000284309 17.3228 0.120515 17.5366 0.334309C17.7505 0.548103 17.8707 0.837998 17.8711 1.14038V2.1833H18.7842C19.5466 2.18417 20.2775 2.48742 20.8166 3.02653C21.3557 3.56563 21.659 4.29657 21.6599 5.05898V11.4378C21.7567 11.4647 21.8449 11.5163 21.9159 11.5874L24.8284 14.4998C24.8828 14.5542 24.9259 14.6188 24.9554 14.6899C24.9848 14.761 25 14.8372 25 14.9141C25 14.9911 24.9848 15.0673 24.9554 15.1384C24.9259 15.2095 24.8828 15.2741 24.8284 15.3285ZM15.5197 4.3666H16.6992V1.17188H15.5197V4.3666ZM4.96084 4.3666H6.14014V1.17188H4.96094L4.96084 4.3666ZM1.17188 5.05898V7.75029H20.488V5.05898C20.4875 4.60726 20.3078 4.17419 19.9884 3.85478C19.669 3.53537 19.2359 3.35569 18.7842 3.35518H17.8711V4.3981C17.8707 4.70044 17.7505 4.99031 17.5367 5.2041C17.3229 5.41789 17.033 5.53814 16.7307 5.53848H15.4883C15.1859 5.53814 14.8961 5.41789 14.6823 5.2041C14.4685 4.99031 14.3482 4.70044 14.3479 4.3981V3.35518H7.31201V4.3981C7.31168 4.7004 7.19145 4.99023 6.97772 5.20401C6.76398 5.41779 6.47418 5.53808 6.17188 5.53848H4.92939C4.62706 5.53811 4.33722 5.41785 4.12344 5.20406C3.90966 4.99028 3.78941 4.70043 3.78906 4.3981V3.35518H2.87598C2.42421 3.35561 1.99106 3.53525 1.67158 3.85468C1.35211 4.1741 1.17239 4.60721 1.17188 5.05898ZM13.4236 19.251L20.488 12.1867V8.92217H1.17188V17.5472C1.17239 17.9989 1.35207 18.432 1.67148 18.7514C1.99089 19.0708 2.42396 19.2505 2.87568 19.251H13.4236ZM21.6427 16.8568L19.5589 14.773L12.6193 21.7126L12.5946 23.8211L14.7031 23.7965L21.6427 16.8568ZM23.5854 14.9141L21.5016 12.8303L20.3875 13.9444L22.4713 16.0282L23.5854 14.9141Z" />
</g>
<defs>
<clipPath id="clip0_642_1975">
<rect width="25" height="25" fill="white"/>
</clipPath>
</defs>
</svg>
