<svg id="file" xmlns="http://www.w3.org/2000/svg" width="22.814" height="31.741" viewBox="0 0 22.814 31.741">
  <path id="Path_26" data-name="Path 26" d="M73.984,0A1.984,1.984,0,0,0,72,1.984V29.758a1.984,1.984,0,0,0,1.984,1.984H92.83a1.984,1.984,0,0,0,1.984-1.984V7.935L86.879,0Z" transform="translate(-72)" fill="#e2e7f0"/>
  <g id="Group_176" data-name="Group 176" transform="translate(3.968)">
    <path id="Path_27" data-name="Path 27" d="M313.984,7.935h5.952L312,0V5.952A1.984,1.984,0,0,0,313.984,7.935Z" transform="translate(-301.089)" fill="#9dacba"/>
    <path id="Path_28" data-name="Path 28" d="M184.5,160h7.935a.5.5,0,0,1,.5.5h0a.5.5,0,0,1-.5.5H184.5a.5.5,0,0,1-.5-.5h0A.5.5,0,0,1,184.5,160Z" transform="translate(-181.024 -150.081)" fill="#9dacba"/>
    <path id="Path_29" data-name="Path 29" d="M136.5,328h13.887a.5.5,0,0,1,.5.5h0a.5.5,0,0,1-.5.5H136.5a.5.5,0,0,1-.5-.5h0A.5.5,0,0,1,136.5,328Z" transform="translate(-136 -307.666)" fill="#9dacba"/>
    <path id="Path_30" data-name="Path 30" d="M136.5,424h7.935a.5.5,0,0,1,.5.5h0a.5.5,0,0,1-.5.5H136.5a.5.5,0,0,1-.5-.5h0A.5.5,0,0,1,136.5,424Z" transform="translate(-136 -397.714)" fill="#9dacba"/>
    <path id="Path_31" data-name="Path 31" d="M136.5,376h13.887a.5.5,0,0,1,.5.5h0a.5.5,0,0,1-.5.5H136.5a.5.5,0,0,1-.5-.5h0A.5.5,0,0,1,136.5,376Z" transform="translate(-136 -352.69)" fill="#9dacba"/>
    <path id="Path_32" data-name="Path 32" d="M136.5,280h13.887a.5.5,0,0,1,.5.5h0a.5.5,0,0,1-.5.5H136.5a.5.5,0,0,1-.5-.5h0A.5.5,0,0,1,136.5,280Z" transform="translate(-136 -262.641)" fill="#9dacba"/>
    <path id="Path_33" data-name="Path 33" d="M136.5,232h13.887a.5.5,0,0,1,.5.5h0a.5.5,0,0,1-.5.5H136.5a.5.5,0,0,1-.5-.5h0A.5.5,0,0,1,136.5,232Z" transform="translate(-136 -217.617)" fill="#9dacba"/>
  </g>
  <path id="Path_34" data-name="Path 34" d="M118.879,128l4.667,4.667a.993.993,0,0,1,.293.7v16.451a.992.992,0,0,1-.992.992H104.992a.992.992,0,0,0-.992.992h18.846a1.984,1.984,0,0,0,1.984-1.984V128Z" transform="translate(-102.016 -120.065)" fill="#c9d5e3"/>
</svg>
