<svg xmlns="http://www.w3.org/2000/svg" width="40.099" height="31.419" viewBox="0 0 40.099 31.419">
  <g id="Group_180" data-name="Group 180" transform="translate(0 -50.687)">
    <path id="Path_38" data-name="Path 38" d="M36.591,51.7h0a1.015,1.015,0,0,0-1.015-1.015H23.289A1.015,1.015,0,0,0,22.273,51.7v.393a.822.822,0,0,1-.822.822h0a1.015,1.015,0,0,0-1.015,1.015v9.514h35.53V52.917H37.806A1.215,1.215,0,0,1,36.591,51.7Z" transform="translate(-18.686)" fill="#557c0a"/>
    <rect id="Rectangle_53" data-name="Rectangle 53" width="32.331" height="16.655" transform="translate(4.002 54.888)" fill="#efedee"/>
    <path id="Path_39" data-name="Path 39" d="M38.069,89.63H2.03A2.03,2.03,0,0,1,0,87.6V66.022a2.03,2.03,0,0,1,2.03-2.03h21.8a2.03,2.03,0,0,0,1.889-1.286l.987-2.5A2.03,2.03,0,0,1,28.6,58.916h9.471a2.03,2.03,0,0,1,2.03,2.03V87.6A2.03,2.03,0,0,1,38.069,89.63Z" transform="translate(0 -7.524)" fill="#86c129"/>
  </g>
</svg>
