<svg width="16" height="16" viewBox="0 0 28 30"  xmlns="http://www.w3.org/2000/svg" >
<path fill="currentColor" d="M22.9959 7.50366V0.369629H4.67094V7.50366L0.116943 11.0493V25.6482C0.117738 26.5379 0.456715 27.391 1.05947 28.0201C1.66223 28.6492 2.47952 29.003 3.33194 29.0039H24.3319C25.1844 29.003 26.0017 28.6492 26.6044 28.0201C27.2072 27.391 27.5461 26.5379 27.5469 25.6482V11.0493L22.9959 7.50366ZM24.5959 11.5378L22.9959 12.7777V10.2946L24.5959 11.5378ZM20.8529 2.60639V14.4425L13.8339 19.8878L6.81694 14.4425V2.60639H20.8529ZM4.67094 12.7788L3.07394 11.5378L4.67394 10.2946L4.67094 12.7788ZM24.3349 26.765H3.33494C3.05071 26.7647 2.7782 26.6468 2.57722 26.437C2.37624 26.2272 2.26321 25.9428 2.26294 25.6461V13.6941L13.8359 22.6787L25.4069 13.6941V25.6482C25.4064 25.9445 25.2934 26.2285 25.0927 26.438C24.8919 26.6476 24.6198 26.7655 24.3359 26.7661L24.3349 26.765ZM12.4409 8.36684H10.2969C10.2976 7.85932 10.4006 7.35761 10.5992 6.89437C10.7979 6.43113 11.0877 6.01674 11.4499 5.67814C11.827 5.32803 12.2705 5.06473 12.7516 4.9054C13.2326 4.74607 13.7404 4.69427 14.2419 4.75338C15.0316 4.84536 15.7683 5.21316 16.3324 5.7971C16.8966 6.38103 17.2552 7.14683 17.3499 7.97022C17.3854 8.59378 17.2815 9.21742 17.0463 9.79184C16.8112 10.3663 16.4512 10.8757 15.9949 11.2799C15.8299 11.4522 15.6769 11.6025 15.5429 11.735C14.9249 12.3446 14.9049 12.402 14.9049 12.736V12.784H12.7619V12.736C12.7688 12.2223 12.8907 11.7174 13.1178 11.2616C13.3449 10.8058 13.671 10.4118 14.0699 10.1109C14.2009 9.98152 14.3359 9.84792 14.4819 9.69345C15.0469 9.10582 15.2669 8.66431 15.2199 8.21445C15.1813 7.89547 15.0406 7.59945 14.8206 7.37438C14.6006 7.14931 14.3143 7.0084 14.0079 6.97448C13.8059 6.9483 13.6009 6.96744 13.4065 7.03062C13.2122 7.0938 13.033 7.19956 12.8809 7.34084C12.7416 7.46911 12.6303 7.62706 12.5544 7.80404C12.4785 7.98103 12.4398 8.17294 12.4409 8.36684ZM12.7619 14.5187H14.9049V16.7565H12.7619V14.5187Z" />
</svg>
