<svg width="14" height="14" viewBox="0 0 14 14" fill="none" xmlns="http://www.w3.org/2000/svg">
<path d="M11.9063 12.69L10.8373 11.621M6.29406 12.1555C6.96088 12.1555 7.62117 12.0242 8.23723 11.769C8.85329 11.5138 9.41306 11.1398 9.88457 10.6683C10.3561 10.1967 10.7301 9.63698 10.9853 9.02092C11.2405 8.40486 11.3718 7.74457 11.3718 7.07775C11.3718 6.41093 11.2405 5.75064 10.9853 5.13458C10.7301 4.51852 10.3561 3.95875 9.88457 3.48724C9.41306 3.01573 8.85329 2.6417 8.23723 2.38652C7.62117 2.13134 6.96088 2 6.29406 2C4.94736 2 3.65581 2.53498 2.70355 3.48724C1.75128 4.4395 1.21631 5.73105 1.21631 7.07775C1.21631 8.42445 1.75128 9.716 2.70355 10.6683C3.65581 11.6205 4.94736 12.1555 6.29406 12.1555Z" stroke="#71839B" stroke-width="1.5" stroke-linecap="round" stroke-linejoin="round"/>
</svg>
