<svg width="21" height="15" viewBox="0 0 21 20" fill="none" xmlns="http://www.w3.org/2000/svg">
<path d="M12.5179 4C12.7168 4 12.9076 4.07902 13.0482 4.21967C13.1889 4.36032 13.2679 4.55109 13.2679 4.75V6.74999H15.2549C15.4538 6.74999 15.6446 6.82901 15.7852 6.96966C15.9259 7.11032 16.0049 7.30108 16.0049 7.49999C16.0049 7.6989 15.9259 7.88967 15.7852 8.03032C15.6446 8.17097 15.4538 8.24999 15.2549 8.24999H13.2679V10.25C13.2679 10.4489 13.1889 10.6397 13.0482 10.7803C12.9076 10.921 12.7168 11 12.5179 11C12.319 11 12.1282 10.921 11.9876 10.7803C11.8469 10.6397 11.7679 10.4489 11.7679 10.25V8.24999H9.75488C9.55597 8.24999 9.36521 8.17097 9.22455 8.03032C9.0839 7.88967 9.00488 7.6989 9.00488 7.49999C9.00488 7.30108 9.0839 7.11032 9.22455 6.96966C9.36521 6.82901 9.55597 6.74999 9.75488 6.74999H11.7679V4.75C11.7679 4.55109 11.8469 4.36032 11.9876 4.21967C12.1282 4.07902 12.319 4 12.5179 4V4Z" fill="#86C129"/>
<path fill-rule="evenodd" clip-rule="evenodd" d="M5.02881 1.75C5.02881 0.783998 5.81281 0 6.77881 0H18.2548C19.2208 0 20.0048 0.783998 20.0048 1.75V13.248C20.0048 13.7121 19.8204 14.1572 19.4922 14.4854C19.1641 14.8136 18.7189 14.998 18.2548 14.998H6.77881C6.31468 14.998 5.86956 14.8136 5.54137 14.4854C5.21318 14.1572 5.02881 13.7121 5.02881 13.248V1.75V1.75ZM6.77881 1.5C6.7125 1.5 6.64892 1.52634 6.60203 1.57322C6.55515 1.6201 6.52881 1.68369 6.52881 1.75V13.248C6.52881 13.387 6.64081 13.498 6.77881 13.498H18.2548C18.3211 13.498 18.3847 13.4716 18.4316 13.4247C18.4785 13.3779 18.5048 13.3143 18.5048 13.248V1.75C18.5048 1.68369 18.4785 1.6201 18.4316 1.57322C18.3847 1.52634 18.3211 1.5 18.2548 1.5H6.77881V1.5Z" fill="#86C129"/>
<path d="M2.8574e-07 8.74904C-0.000131084 8.51915 0.0450371 8.29148 0.132924 8.07904C0.220811 7.86661 0.349694 7.67357 0.51221 7.51096C0.674725 7.34835 0.867688 7.21936 1.08007 7.13135C1.29246 7.04335 1.5201 6.99805 1.75 6.99805H3.255C3.45391 6.99805 3.64468 7.07706 3.78533 7.21772C3.92598 7.35837 4.005 7.54913 4.005 7.74805C4.005 7.94696 3.92598 8.13772 3.78533 8.27837C3.64468 8.41903 3.45391 8.49804 3.255 8.49804H1.75C1.6837 8.49804 1.62011 8.52438 1.57322 8.57127C1.52634 8.61815 1.5 8.68174 1.5 8.74804L1.505 18.25C1.505 18.388 1.616 18.5 1.755 18.5H11.255C11.3213 18.5 11.3849 18.4737 11.4318 18.4268C11.4787 18.3799 11.505 18.3163 11.505 18.25V16.74C11.505 16.5411 11.584 16.3503 11.7247 16.2097C11.8653 16.069 12.0561 15.99 12.255 15.99C12.4539 15.99 12.6447 16.069 12.7853 16.2097C12.926 16.3503 13.005 16.5411 13.005 16.74V18.25C13.005 18.7141 12.8206 19.1593 12.4924 19.4875C12.1642 19.8156 11.7191 20 11.255 20H1.755C1.29087 20 0.845752 19.8156 0.517564 19.4875C0.189375 19.1593 0.00500028 18.7141 0.00500028 18.25L2.8574e-07 8.74904Z" fill="#86C129"/>
</svg>
