<svg width="23" height="18" viewBox="0 0 23 18" fill="none" xmlns="http://www.w3.org/2000/svg">
<path d="M17.0337 11.25C20.1403 11.25 22.6587 8.73158 22.6587 5.625C22.6587 2.5184 20.1403 0 17.0337 0C13.9271 0 11.4087 2.5184 11.4087 5.625C11.4087 8.73158 13.9271 11.25 17.0337 11.25ZM20.4087 6.75H18.1587V9H15.9087V6.75H13.6587V4.5H15.9087V2.25H18.1587V4.5H20.4087V6.75Z" fill="#FFFFFF"/>
<path d="M2.24999 10.6677H11.3636C10.7045 10.0219 10.1584 9.26102 9.75779 8.41772H2.24999C1.00732 8.41772 -9.53674e-06 9.42505 -9.53674e-06 10.6677V15.1677C-9.53674e-06 16.4104 1.00732 17.4177 2.24999 17.4177H20.25C21.4926 17.4177 22.5 16.4104 22.5 15.1677V10.6677C22.5 10.6305 22.4991 10.5936 22.4973 10.5568C21.852 11.2147 21.0921 11.7599 20.25 12.1599V15.1677H2.24999V10.6677Z" fill="#FFFFFF"/>
</svg>
