<svg width="23" height="19" viewBox="0 0 23 19" fill="none" xmlns="http://www.w3.org/2000/svg">
<path d="M20.5 2.75H2.5V7.25H11.6136C10.9545 7.89586 10.4084 8.6567 10.0078 9.5H2.5C1.25736 9.5 0.25 8.49267 0.25 7.25V2.75C0.25 1.50736 1.25736 0.5 2.5 0.5H20.5C21.7427 0.5 22.75 1.50736 22.75 2.75V7.25C22.75 7.28724 22.7491 7.32414 22.7473 7.36093C22.102 6.70301 21.3422 6.15789 20.5 5.75783V2.75Z" fill="#BBC4C3"/>
<path d="M21.4572 9.28681C20.4254 8.04256 18.8677 7.25 17.125 7.25C15.2847 7.25 13.6508 8.1338 12.6246 9.5C11.9184 10.4402 11.5 11.6087 11.5 12.875C11.5 15.9816 14.0184 18.5 17.125 18.5C20.2316 18.5 22.75 15.9816 22.75 12.875C22.75 11.5112 22.2646 10.2606 21.4572 9.28681ZM20.5 11.75V14H13.75V11.75H20.5Z" fill="#BBC4C3"/>
</svg>
