<svg width="18" height="18" viewBox="0 0 18 18" fill="none" xmlns="http://www.w3.org/2000/svg">
<circle cx="9" cy="9" r="9" fill="#F1F3F6"/>
<path d="M9 1.07288e-06C10.1819 1.07288e-06 11.3522 0.232793 12.4442 0.685085C13.5361 1.13738 14.5282 1.80031 15.364 2.63604C16.1997 3.47177 16.8626 4.46392 17.3149 5.55585C17.7672 6.64778 18 7.8181 18 9C18 10.1819 17.7672 11.3522 17.3149 12.4442C16.8626 13.5361 16.1997 14.5282 15.364 15.364C14.5282 16.1997 13.5361 16.8626 12.4441 17.3149C11.3522 17.7672 10.1819 18 9 18L9 9L9 1.07288e-06Z" fill="#FFD951"/>
</svg>
