<svg width="19" height="18" viewBox="0 0 19 18" fill="none" xmlns="http://www.w3.org/2000/svg">
<circle cx="9.00191" cy="8.99996" r="8.99996" fill="#F1F3F6"/>
<path d="M9.00004 18C7.81815 18 6.64783 17.7672 5.55591 17.315C4.46398 16.8627 3.47184 16.1997 2.63611 15.364C1.80039 14.5283 1.13746 13.5361 0.685168 12.4442C0.232878 11.3523 8.68519e-05 10.182 8.69036e-05 9.00008C8.69552e-05 7.81819 0.232878 6.64787 0.685168 5.55594C1.13746 4.46402 1.80039 3.47187 2.63611 2.63615C3.47184 1.80042 4.46398 1.13749 5.55591 0.685203C6.64783 0.232913 7.81815 0.000121967 9.00004 0.00012207L9.00004 9.00008L9.00004 18Z" fill="#FFD951"/>
</svg>
