<svg width="29" height="27" viewBox="0 0 29 27" fill="none" xmlns="http://www.w3.org/2000/svg">
<path d="M9.8392 21.8413C9.34901 21.8413 8.95117 21.4434 8.95117 20.9532V11.4809C8.95117 10.9907 9.34901 10.5929 9.8392 10.5929C10.3294 10.5929 10.7272 10.9907 10.7272 11.4809V20.9532C10.7272 21.4434 10.3294 21.8413 9.8392 21.8413Z" fill="#394241"/>
<path d="M11.3193 22.1373H8.35922C7.86903 22.1373 7.47119 21.7394 7.47119 21.2492C7.47119 20.759 7.86903 20.3612 8.35922 20.3612H11.3193C11.8095 20.3612 12.2073 20.759 12.2073 21.2492C12.2073 21.7394 11.8095 22.1373 11.3193 22.1373Z" fill="#394241"/>
<path d="M24.3436 12.0731H19.0155C18.5253 12.0731 18.1274 11.6752 18.1274 11.185C18.1274 10.6948 18.5253 10.297 19.0155 10.297H24.3436C24.8338 10.297 25.2317 10.6948 25.2317 11.185C25.2317 11.6752 24.8338 12.0731 24.3436 12.0731Z" fill="#394241"/>
<path d="M24.3436 16.8091H19.0155C18.5253 16.8091 18.1274 16.4113 18.1274 15.9211C18.1274 15.4309 18.5253 15.0331 19.0155 15.0331H24.3436C24.8338 15.0331 25.2317 15.4309 25.2317 15.9211C25.2317 16.4113 24.8338 16.8091 24.3436 16.8091Z" fill="#394241"/>
<path d="M24.3436 21.5452H19.0155C18.5253 21.5452 18.1274 21.1474 18.1274 20.6572C18.1274 20.167 18.5253 19.7692 19.0155 19.7692H24.3436C24.8338 19.7692 25.2317 20.167 25.2317 20.6572C25.2317 21.1474 24.8338 21.5452 24.3436 21.5452Z" fill="#394241"/>
<path d="M27.8956 6.74481H1.25473C0.764536 6.74481 0.366699 6.34697 0.366699 5.85678C0.366699 5.36659 0.764536 4.96875 1.25473 4.96875H27.8956C28.3858 4.96875 28.7836 5.36659 28.7836 5.85678C28.7836 6.34697 28.3858 6.74481 27.8956 6.74481Z" fill="#394241"/>
<path d="M25.5275 26.8734H3.62281C1.82662 26.8734 0.366699 25.4135 0.366699 23.6173V4.08069C0.366699 2.2845 1.82662 0.824585 3.62281 0.824585H25.5275C27.3237 0.824585 28.7836 2.2845 28.7836 4.08069V23.6173C28.7836 25.4135 27.3237 26.8734 25.5275 26.8734ZM3.62281 2.60064C2.807 2.60064 2.14276 3.26489 2.14276 4.08069V23.6173C2.14276 24.4331 2.807 25.0974 3.62281 25.0974H25.5275C26.3433 25.0974 27.0076 24.4331 27.0076 23.6173V4.08069C27.0076 3.26489 26.3433 2.60064 25.5275 2.60064H3.62281Z" fill="#394241"/>
<path d="M14.8713 13.8491C14.3811 13.8491 13.9833 13.4513 13.9833 12.9611V12.0731H5.695V12.9611C5.695 13.4513 5.29717 13.8491 4.80697 13.8491C4.31678 13.8491 3.91895 13.4513 3.91895 12.9611V11.185C3.91895 10.6948 4.31678 10.297 4.80697 10.297H14.8713C15.3615 10.297 15.7593 10.6948 15.7593 11.185V12.9611C15.7593 13.4513 15.3615 13.8491 14.8713 13.8491Z" fill="#394241"/>
</svg>
