<svg width="24" height="25" viewBox="0 0 24 25" fill="none" xmlns="http://www.w3.org/2000/svg">
<path d="M10.8847 3.81595H3.19686C2.61422 3.81595 2.05544 4.04736 1.64345 4.45929C1.23145 4.87121 1 5.4299 1 6.01245V21.3856C1 21.9681 1.23145 22.5268 1.64345 22.9388C2.05544 23.3507 2.61422 23.5821 3.19686 23.5821H18.5726C19.1552 23.5821 19.714 23.3507 20.126 22.9388C20.538 22.5268 20.7694 21.9681 20.7694 21.3856V13.699" stroke="#394241" stroke-width="1.5" stroke-linecap="round" stroke-linejoin="round"/>
<path d="M19.1211 2.16559C19.5667 1.77266 20.1454 1.56438 20.7393 1.5832C21.3331 1.60202 21.8975 1.84652 22.3173 2.26688C22.7371 2.68724 22.9809 3.25182 22.9989 3.84561C23.0168 4.43939 22.8077 5.01769 22.4141 5.46267L11.9807 15.8943L7.58936 16.9879L8.68779 12.5949L19.1211 2.16559Z" stroke="#394241" stroke-width="1.5" stroke-linecap="round" stroke-linejoin="round"/>
</svg>
