<svg width="29" height="21" viewBox="0 0 29 21" fill="none" xmlns="http://www.w3.org/2000/svg">
<path d="M27.0076 8.78645H2.14276C1.16356 8.78645 0.366699 7.87404 0.366699 6.75286V2.68569C0.366699 1.5645 1.16356 0.6521 2.14276 0.6521H27.0076C27.9868 0.6521 28.7836 1.5645 28.7836 2.68569V6.75286C28.7836 7.87404 27.9868 8.78645 27.0076 8.78645ZM2.14276 2.00782C1.81596 2.00782 1.55074 2.31286 1.55074 2.68569V6.75286C1.55074 7.12568 1.81596 7.43072 2.14276 7.43072H27.0076C27.3344 7.43072 27.5996 7.12568 27.5996 6.75286V2.68569C27.5996 2.31286 27.3344 2.00782 27.0076 2.00782H2.14276Z" fill="#394241"/>
<path d="M27.0076 20.9879H2.14276C1.16356 20.9879 0.366699 20.0755 0.366699 18.9543V14.8871C0.366699 13.7659 1.16356 12.8535 2.14276 12.8535H27.0076C27.9868 12.8535 28.7836 13.7659 28.7836 14.8871V18.9543C28.7836 20.0755 27.9868 20.9879 27.0076 20.9879ZM2.14276 14.2092C1.81596 14.2092 1.55074 14.5143 1.55074 14.8871V18.9543C1.55074 19.3271 1.81596 19.6321 2.14276 19.6321H27.0076C27.3344 19.6321 27.5996 19.3271 27.5996 18.9543V14.8871C27.5996 14.5143 27.3344 14.2092 27.0076 14.2092H2.14276Z" fill="#394241"/>
</svg>
