<svg width="52" height="52" viewBox="0 0 52 52" fill="none" xmlns="http://www.w3.org/2000/svg">
<g clip-path="url(#clip0_7_134)">
<path d="M0 9.75V48.75C0 50.5456 1.45441 52 3.25 52H48.75C50.5456 52 52 50.5456 52 48.75V9.75H0Z" fill="#E2E7F0"/>
<path d="M0 0H52V13H0V0Z" fill="#B0BEC5"/>
<path d="M6.5 4.875H9.75V8.125H6.5V4.875Z" fill="white"/>
<path d="M13 4.875H16.25V8.125H13V4.875Z" fill="white"/>
<path d="M43.875 8.125H21.125C20.228 8.125 19.5 7.397 19.5 6.5C19.5 5.603 20.228 4.875 21.125 4.875H43.875C44.772 4.875 45.5 5.603 45.5 6.5C45.5 7.397 44.772 8.125 43.875 8.125Z" fill="#90A4AE"/>
<path d="M14.625 22.75H8.125C7.228 22.75 6.5 22.022 6.5 21.125C6.5 20.228 7.228 19.5 8.125 19.5H14.625C15.522 19.5 16.25 20.228 16.25 21.125C16.25 22.022 15.522 22.75 14.625 22.75Z" fill="#C1CEE3"/>
<path d="M19.5 19.5H45.5V29.25H19.5V19.5Z" fill="#A5D6A7"/>
<path d="M14.625 35.75H8.125C7.228 35.75 6.5 35.022 6.5 34.125C6.5 33.228 7.228 32.5 8.125 32.5H14.625C15.522 32.5 16.25 33.228 16.25 34.125C16.25 35.022 15.522 35.75 14.625 35.75Z" fill="#C1CEE3"/>
<path d="M19.5 32.5H45.5V42.25H19.5V32.5Z" fill="#A5D6A7"/>
<path d="M43.875 47.125H37.375C36.478 47.125 35.75 46.397 35.75 45.5C35.75 44.603 36.478 43.875 37.375 43.875H43.875C44.772 43.875 45.5 44.603 45.5 45.5C45.5 46.397 44.772 47.125 43.875 47.125Z" fill="#C1CEE3"/>
</g>
<defs>
<clipPath id="clip0_7_134">
<rect width="52" height="52" fill="white"/>
</clipPath>
</defs>
</svg>
