<svg width="30" height="30" viewBox="0 0 30 30" fill="none" xmlns="http://www.w3.org/2000/svg">
<path d="M15 0C11.0218 0 7.20645 1.58035 4.3934 4.3934C1.58035 7.20644 9.53674e-07 11.0218 9.53674e-07 15C9.53674e-07 18.9782 1.58035 22.7936 4.3934 25.6066C7.20645 28.4196 11.0218 30 15 30C18.9782 30 22.7936 28.4196 25.6066 25.6066C28.4196 22.7936 30 18.9782 30 15C30 11.0218 28.4196 7.20644 25.6066 4.3934C22.7936 1.58035 18.9782 0 15 0V0ZM15 13.1807L18.4843 9.69643C18.7255 9.45518 19.0527 9.31964 19.3939 9.31964C19.7351 9.31964 20.0623 9.45518 20.3036 9.69643C20.5448 9.93768 20.6804 10.2649 20.6804 10.6061C20.6804 10.9473 20.5448 11.2745 20.3036 11.5157L16.8193 15L20.3036 18.4843C20.423 18.6037 20.5178 18.7456 20.5824 18.9016C20.6471 19.0577 20.6804 19.225 20.6804 19.3939C20.6804 19.5629 20.6471 19.7301 20.5824 19.8862C20.5178 20.0423 20.423 20.1841 20.3036 20.3036C20.1841 20.423 20.0423 20.5178 19.8862 20.5824C19.7301 20.6471 19.5629 20.6804 19.3939 20.6804C19.225 20.6804 19.0577 20.6471 18.9016 20.5824C18.7456 20.5178 18.6037 20.423 18.4843 20.3036L15 16.8193L11.5157 20.3036C11.3963 20.423 11.2544 20.5178 11.0984 20.5824C10.9423 20.6471 10.775 20.6804 10.6061 20.6804C10.4371 20.6804 10.2699 20.6471 10.1138 20.5824C9.9577 20.5178 9.81588 20.423 9.69643 20.3036C9.57697 20.1841 9.48222 20.0423 9.41757 19.8862C9.35292 19.7301 9.31964 19.5629 9.31964 19.3939C9.31964 19.225 9.35292 19.0577 9.41757 18.9016C9.48222 18.7456 9.57697 18.6037 9.69643 18.4843L13.1807 15L9.69643 11.5157C9.57697 11.3963 9.48222 11.2544 9.41757 11.0984C9.35292 10.9423 9.31964 10.775 9.31964 10.6061C9.31964 10.4371 9.35292 10.2699 9.41757 10.1138C9.48222 9.9577 9.57697 9.81588 9.69643 9.69643C9.81588 9.57697 9.9577 9.48221 10.1138 9.41757C10.2699 9.35292 10.4371 9.31964 10.6061 9.31964C10.775 9.31964 10.9423 9.35292 11.0984 9.41757C11.2544 9.48221 11.3963 9.57697 11.5157 9.69643L15 13.1807Z" fill="#FF4141"/>
</svg>
