<svg width="40" height="40" viewBox="0 0 40 40" fill="none" xmlns="http://www.w3.org/2000/svg">
<circle cx="20" cy="20" r="20" fill="#FCF4D9"/>
<path d="M18.5705 11.4093L10.8264 24.8215C10.6865 25.0637 10.6128 25.3385 10.6128 25.6182C10.6128 25.8979 10.6864 26.1726 10.8262 26.4149C10.9661 26.6571 11.1672 26.8582 11.4094 26.9981C11.6517 27.1379 11.9264 27.2115 12.2061 27.2115H27.6931C27.9728 27.2115 28.2476 27.1379 28.4898 26.9981C28.7321 26.8582 28.9332 26.6571 29.073 26.4149C29.2129 26.1726 29.2865 25.8979 29.2865 25.6182C29.2864 25.3385 29.2128 25.0637 29.0729 24.8215L21.3296 11.4093C21.1898 11.1671 20.9887 10.966 20.7465 10.8262C20.5044 10.6864 20.2297 10.6128 19.95 10.6128C19.6704 10.6128 19.3957 10.6864 19.1536 10.8262C18.9114 10.966 18.7103 11.1671 18.5705 11.4093Z" fill="#FFB400"/>
<path d="M20.0503 15.5457H19.8483C19.3509 15.5457 18.9478 15.9488 18.9478 16.4462V20.7505C18.9478 21.2479 19.3509 21.651 19.8483 21.651H20.0503C20.5476 21.651 20.9508 21.2479 20.9508 20.7505V16.4462C20.9508 15.9488 20.5476 15.5457 20.0503 15.5457Z" fill="#FCF4D9"/>
<path d="M19.9493 25.0646C20.5024 25.0646 20.9508 24.6162 20.9508 24.0631C20.9508 23.5099 20.5024 23.0615 19.9493 23.0615C19.3962 23.0615 18.9478 23.5099 18.9478 24.0631C18.9478 24.6162 19.3962 25.0646 19.9493 25.0646Z" fill="#FCF4D9"/>
</svg>
