<svg width="24" height="24" viewBox="0 0 24 24" fill="none" xmlns="http://www.w3.org/2000/svg">
<g clip-path="url(#clip0_95_310)">
<path className="nav-icon-fill" d="M23.707 16.325C23.5194 16.1375 23.2651 16.0322 23 16.0322C22.7348 16.0322 22.4805 16.1375 22.293 16.325L16.666 21.953L13.978 19.3C13.7923 19.1097 13.5387 19.001 13.2728 18.9977C13.007 18.9944 12.7508 19.0968 12.5605 19.2825C12.3702 19.4681 12.2614 19.7218 12.2581 19.9876C12.2549 20.2535 12.3573 20.5097 12.543 20.7L15.287 23.4C15.4591 23.5856 15.667 23.7344 15.8981 23.8375C16.1293 23.9406 16.3789 23.9959 16.632 24H16.665C16.913 24.0008 17.1588 23.9524 17.3879 23.8574C17.6171 23.7625 17.8251 23.623 18 23.447L23.707 17.739C23.8944 17.5515 23.9997 17.2972 23.9997 17.032C23.9997 16.7668 23.8944 16.5125 23.707 16.325V16.325Z" fill="#626D6C"/>
<path className="nav-icon-fill" d="M11.09 21.959C9.15905 21.7825 7.32103 21.0485 5.79973 19.8463C4.27842 18.644 3.13945 17.0254 2.52147 15.1875C1.9035 13.3496 1.83317 11.3717 2.31906 9.49459C2.80494 7.61746 3.82608 5.92206 5.25816 4.61482C6.69024 3.30757 8.47148 2.44486 10.385 2.13172C12.2986 1.81857 14.2619 2.0685 16.036 2.85108C17.81 3.63365 19.3183 4.91511 20.3772 6.53946C21.4361 8.1638 21.9999 10.061 22 12C22 12.307 21.985 12.611 21.959 12.911C21.9468 13.0421 21.9605 13.1743 21.9996 13.3001C22.0386 13.4259 22.102 13.5427 22.1863 13.6439C22.2706 13.7451 22.374 13.8286 22.4906 13.8897C22.6073 13.9508 22.7348 13.9883 22.866 14C22.9971 14.0131 23.1295 14 23.2554 13.9613C23.3813 13.9227 23.4983 13.8592 23.5993 13.7747C23.7004 13.6902 23.7836 13.5864 23.844 13.4693C23.9044 13.3523 23.9407 13.2243 23.951 13.093C23.983 12.73 24 12.367 24 12C23.9999 9.67307 23.3233 7.3964 22.0525 5.44715C20.7818 3.49789 18.9717 1.96014 16.8427 1.02111C14.7137 0.0820763 12.3576 -0.217723 10.0613 0.15821C7.76496 0.534143 5.62747 1.56959 3.90904 3.13849C2.19062 4.70739 0.965399 6.74205 0.382551 8.99476C-0.200297 11.2475 -0.115628 13.621 0.62625 15.8265C1.36813 18.032 2.73521 19.9742 4.56105 21.4166C6.3869 22.8591 8.59273 23.7396 10.91 23.951H11.001C11.2662 23.9628 11.5253 23.8687 11.7211 23.6895C11.917 23.5103 12.0337 23.2607 12.0455 22.9955C12.0573 22.7302 11.9633 22.4712 11.7841 22.2753C11.6049 22.0794 11.3552 21.9628 11.09 21.951V21.959Z" fill="#626D6C"/>
<path className="nav-icon-fill" d="M11 7V11.586L8.29296 14.293C8.19745 14.3852 8.12127 14.4956 8.06886 14.6176C8.01645 14.7396 7.98886 14.8708 7.98771 15.0036C7.98655 15.1364 8.01186 15.2681 8.06214 15.391C8.11242 15.5139 8.18667 15.6255 8.28056 15.7194C8.37446 15.8133 8.48611 15.8875 8.60901 15.9378C8.7319 15.9881 8.86358 16.0134 8.99636 16.0123C9.12914 16.0111 9.26036 15.9835 9.38236 15.9311C9.50437 15.8787 9.61471 15.8025 9.70696 15.707L12.707 12.707C12.8945 12.5195 12.9999 12.2652 13 12V7C13 6.73478 12.8946 6.48043 12.7071 6.29289C12.5195 6.10536 12.2652 6 12 6C11.7347 6 11.4804 6.10536 11.2929 6.29289C11.1053 6.48043 11 6.73478 11 7V7Z" fill="#626D6C"/>
</g>
<defs>
<clipPath id="clip0_95_310">
<rect width="24" height="24" fill="white"/>
</clipPath>
</defs>
</svg>
