<svg width="20" height="25" viewBox="0 0 20 25" fill="none" xmlns="http://www.w3.org/2000/svg">
<path className="nav-icon-fill" d="M7.24825 0C6.31999 0 5.42975 0.368749 4.77338 1.02513C4.117 1.6815 3.74825 2.57174 3.74825 3.5V17.5C3.74825 18.4283 4.117 19.3185 4.77338 19.9749C5.42975 20.6313 6.31999 21 7.24825 21H16C16.9283 21 17.8185 20.6313 18.4749 19.9749C19.1313 19.3185 19.5 18.4283 19.5 17.5V7.875H19.4965V5.9745C19.4964 5.27879 19.22 4.6116 18.7283 4.1195L15.3788 0.76825C14.8867 0.276468 14.2195 0.000148542 13.5238 0H7.2465H7.24825ZM16 19.25H7.24825C6.78412 19.25 6.339 19.0656 6.01081 18.7374C5.68262 18.4092 5.49825 17.9641 5.49825 17.5V3.5C5.49825 3.03587 5.68262 2.59075 6.01081 2.26256C6.339 1.93437 6.78412 1.75 7.24825 1.75H12.4982V4.375C12.4982 5.07119 12.7748 5.73887 13.2671 6.23116C13.7594 6.72344 14.4271 7 15.1232 7H17.7482V8.85675H17.75V17.5C17.75 17.9641 17.5656 18.4092 17.2374 18.7374C16.9092 19.0656 16.4641 19.25 16 19.25ZM17.3843 5.25H15.1215C14.8894 5.25 14.6669 5.15781 14.5028 4.99372C14.3387 4.82962 14.2465 4.60706 14.2465 4.375V2.11225L17.3843 5.25ZM0.25 5.25C0.25 4.78587 0.434374 4.34075 0.762563 4.01256C1.09075 3.68437 1.53587 3.5 2 3.5V17.5C2 18.8924 2.55312 20.2277 3.53769 21.2123C4.52226 22.1969 5.85761 22.75 7.25 22.75H16C16 23.2141 15.8156 23.6592 15.4874 23.9874C15.1592 24.3156 14.7141 24.5 14.25 24.5H6.8825C5.12345 24.5 3.43645 23.8012 2.19261 22.5574C0.94878 21.3136 0.25 19.6265 0.25 17.8675V5.25Z" fill="#626D6C"/>
</svg>
