<svg width="22" height="25" viewBox="0 0 22 25" fill="none" xmlns="http://www.w3.org/2000/svg">
<path className="nav-icon" d="M19.4501 24.375H5.93819C5.35852 24.375 4.8026 24.1447 4.39272 23.7348C3.98283 23.325 3.75256 22.769 3.75256 22.1894V2.18563C3.75256 1.60596 3.98283 1.05004 4.39272 0.640155C4.8026 0.230271 5.35852 0 5.93819 0H12.1376C12.6925 0.00113243 13.2275 0.20648 13.6407 0.576875L20.8719 7.07688C21.1097 7.28954 21.2999 7.55 21.4301 7.84123C21.5603 8.13245 21.6276 8.44787 21.6276 8.76687V22.1894C21.6276 22.7676 21.3984 23.3223 20.9903 23.732C20.5822 24.1416 20.0283 24.3729 19.4501 24.375V24.375ZM5.93819 1.625C5.7895 1.625 5.6469 1.68407 5.54177 1.7892C5.43663 1.89434 5.37756 2.03694 5.37756 2.18563V22.1894C5.37756 22.3381 5.43663 22.4807 5.54177 22.5858C5.6469 22.6909 5.7895 22.75 5.93819 22.75H19.4501C19.5987 22.75 19.7413 22.6909 19.8465 22.5858C19.9516 22.4807 20.0107 22.3381 20.0107 22.1894V8.72625C20.0105 8.63727 19.9916 8.54932 19.9552 8.46813C19.9188 8.38694 19.8658 8.31432 19.7994 8.255L12.5682 1.755C12.4454 1.66047 12.2922 1.61422 12.1376 1.625H5.93819Z" fill="#626D6C"/>
<path className="nav-icon" d="M20.8151 8.88875H13.6569C13.185 8.88875 12.7324 8.70129 12.3987 8.36759C12.065 8.03389 11.8776 7.5813 11.8776 7.10938V1.2675H13.5026V7.10938C13.5026 7.15032 13.5188 7.18959 13.5478 7.21854C13.5767 7.24749 13.616 7.26375 13.6569 7.26375H20.8151V8.88875Z" fill="#626D6C"/>
<path  className="nav-icon" d="M16.2163 18.6875H9.71631C9.26758 18.6875 8.90381 19.0513 8.90381 19.5C8.90381 19.9487 9.26758 20.3125 9.71631 20.3125H16.2163C16.665 20.3125 17.0288 19.9487 17.0288 19.5C17.0288 19.0513 16.665 18.6875 16.2163 18.6875Z" fill="#626D6C"/>
<path className="nav-icon" d="M11.3413 15.1856H9.71631C9.26758 15.1856 8.90381 15.5494 8.90381 15.9981C8.90381 16.4469 9.26758 16.8106 9.71631 16.8106H11.3413C11.79 16.8106 12.1538 16.4469 12.1538 15.9981C12.1538 15.5494 11.79 15.1856 11.3413 15.1856Z" fill="#626D6C"/>
<path className="nav-icon" d="M2.39568 20.8488C1.85829 20.8424 1.34496 20.6249 0.966462 20.2434C0.587965 19.8619 0.374653 19.3468 0.372559 18.8094V5.56563C0.372497 5.26438 0.439439 4.9669 0.568536 4.69472C0.697633 4.42254 0.885651 4.18249 1.11897 3.99194C1.35229 3.8014 1.62508 3.66513 1.91756 3.59302C2.21004 3.52091 2.5149 3.51475 2.81006 3.575L4.55693 3.8675L4.28881 5.4925L2.52568 5.17563C2.46195 5.15834 2.39509 5.15595 2.33029 5.16863C2.26548 5.18131 2.20445 5.20872 2.15193 5.24875C2.10406 5.28658 2.06531 5.33472 2.03859 5.38957C2.01186 5.44443 1.99784 5.5046 1.99756 5.56563V18.8094C1.99876 18.87 2.01324 18.9296 2.03998 18.984C2.06673 19.0384 2.10509 19.0863 2.15235 19.1242C2.19961 19.1622 2.25463 19.1893 2.31352 19.2037C2.37241 19.2181 2.43374 19.2194 2.49318 19.2075L4.32943 18.9638L4.54068 20.5888L2.76131 20.8244C2.64065 20.8455 2.51808 20.8537 2.39568 20.8488V20.8488Z" fill="#626D6C"/>
</svg>
