<svg width="24" height="20" viewBox="0 0 24 20" fill="none" xmlns="http://www.w3.org/2000/svg">
<path className="nav-icon" d="M4.43887 2.85002H4.03966L4.3401 3.11291L11.9013 9.72907L12 9.8155L12.0988 9.72907L19.66 3.11291L19.9604 2.85002H19.5612H4.44004H4.43887ZM21.4834 4.55052V4.21993L21.2346 4.43764L12.6701 11.9323L12.67 11.9324C12.4846 12.0948 12.2465 12.1844 12 12.1844C11.7536 12.1844 11.5155 12.0948 11.3301 11.9324L11.33 11.9323L2.76549 4.43764L2.51671 4.21993V4.55052V17V17.15H2.66671H21.3334H21.4834V17V4.55052ZM0.483374 3.00002C0.483374 2.42096 0.713403 1.86562 1.12286 1.45617C1.53231 1.04672 2.08765 0.816687 2.66671 0.816687H21.3334C21.9124 0.816687 22.4678 1.04672 22.8772 1.45617C23.2867 1.86562 23.5167 2.42096 23.5167 3.00002V17C23.5167 17.5791 23.2867 18.1344 22.8772 18.5439C22.4678 18.9533 21.9124 19.1834 21.3334 19.1834H2.66671C2.08765 19.1834 1.53231 18.9533 1.12286 18.5439C0.713403 18.1344 0.483374 17.5791 0.483374 17V3.00002Z" fill="#626D6C" stroke="white" stroke-width="0.3"/>
</svg>
