<svg width="21" height="26" viewBox="0 0 21 26" fill="none" xmlns="http://www.w3.org/2000/svg">
<mask id="path-1-inside-1_85_175" fill="white">
<path className="nav-icon-fill" d="M17.9998 9.3951H2.99946C2.20395 9.39552 1.44114 9.7256 0.878697 10.3128C0.316253 10.9 0.000199427 11.6963 0 12.5266V14.0923C0.000640201 14.64 0.139575 15.1778 0.402804 15.6516C0.666032 16.1253 1.04425 16.5183 1.49935 16.7909V21.9226H7.49978V25.054H13.5002V21.9202H19.5006V16.7909C19.9557 16.5183 20.334 16.1253 20.5972 15.6516C20.8604 15.1778 20.9994 14.64 21 14.0923V12.5266C20.9996 11.6962 20.6834 10.8999 20.1208 10.3128C19.5583 9.72558 18.7954 9.39552 17.9998 9.3951V9.3951ZM5.99968 20.3545H2.99946V14.0923H1.49935V12.5266C1.49955 12.1114 1.65766 11.7133 1.93895 11.4197C2.22023 11.1261 2.60167 10.9611 2.99946 10.9608H4.91505C4.64549 11.4348 4.50206 11.9754 4.49957 12.5266V15.6581C4.50055 16.2055 4.63972 16.7431 4.90307 17.2166C5.16643 17.69 5.54466 18.0827 5.99968 18.3551V20.3553V20.3545ZM13.5002 17.223V14.0923H11.9994V23.486H8.99914V14.0923H7.49903V17.223C7.10118 17.223 6.71962 17.058 6.4383 16.7644C6.15697 16.4708 5.99892 16.0725 5.99892 15.6573V12.5266C5.99912 12.1114 6.15723 11.7133 6.43852 11.4197C6.7198 11.1261 7.10124 10.9611 7.49903 10.9608H13.4995C13.8973 10.9608 14.2789 11.1258 14.5602 11.4194C14.8415 11.7131 14.9996 12.1113 14.9996 12.5266V15.6581C14.9997 15.8637 14.9609 16.0673 14.8856 16.2574C14.8102 16.4474 14.6997 16.62 14.5604 16.7654C14.4211 16.9108 14.2557 17.0262 14.0736 17.1048C13.8916 17.1835 13.6965 17.2239 13.4995 17.2238L13.5002 17.223ZM19.5006 14.0915H17.9998V20.3545H14.9996V18.3551C15.4546 18.0827 15.8328 17.69 16.0962 17.2166C16.3595 16.7431 16.4987 16.2055 16.4997 15.6581V12.5266C16.4969 11.9753 16.3532 11.4348 16.0834 10.9608H17.9998C18.3976 10.9608 18.7792 11.1258 19.0605 11.4194C19.3418 11.7131 19.4999 12.1113 19.4999 12.5266V14.0923L19.5006 14.0915ZM7.11742 7.76495C7.53432 8.27648 8.05273 8.68735 8.63678 8.96912C9.22084 9.25088 9.85658 9.39682 10.5 9.39682C11.1434 9.39682 11.7792 9.25088 12.3632 8.96912C12.9473 8.68735 13.4657 8.27648 13.8826 7.76495C14.1725 8.31586 14.6146 8.76283 15.1515 9.04759C15.6883 9.33234 16.2949 9.44167 16.8921 9.36132C17.4893 9.28097 18.0495 9.01466 18.4996 8.59712C18.9497 8.17959 19.2688 7.63019 19.4154 7.02056C19.5619 6.41093 19.5291 5.76937 19.3212 5.1795C19.1132 4.58964 18.7399 4.07885 18.2497 3.71373C17.7596 3.34861 17.1754 3.1461 16.5733 3.13261C15.9713 3.11912 15.3793 3.29527 14.8746 3.63809C14.6478 2.60439 14.0916 1.68163 13.297 1.02075C12.5024 0.359872 11.5164 0 10.5004 0C9.48435 0 8.4984 0.359872 7.7038 1.02075C6.90919 1.68163 6.35298 2.60439 6.12613 3.63809C5.62062 3.29333 5.02725 3.11567 4.42351 3.12832C3.81977 3.14097 3.23371 3.34334 2.74186 3.70901C2.25001 4.07467 1.87523 4.58663 1.66645 5.17805C1.45768 5.76946 1.42461 6.41284 1.57156 7.02418C1.71852 7.63551 2.03867 8.18639 2.49022 8.60487C2.94176 9.02336 3.50371 9.29001 4.10269 9.37001C4.70167 9.45001 5.30984 9.33963 5.84779 9.05329C6.38574 8.76695 6.82847 8.31796 7.11817 7.76495H7.11742ZM16.5004 4.70104C16.7972 4.70119 17.0873 4.79323 17.334 4.96551C17.5806 5.13779 17.7728 5.38257 17.8861 5.66886C17.9994 5.95516 18.0289 6.27012 17.9706 6.57387C17.9124 6.87763 17.7692 7.15654 17.5591 7.37531C17.349 7.59407 17.0814 7.74287 16.7902 7.80286C16.499 7.86286 16.1974 7.83136 15.9233 7.71235C15.6493 7.59333 15.4153 7.39216 15.2509 7.13428C15.0864 6.8764 14.999 6.5734 14.9996 6.26363C14.9994 6.05796 15.038 5.85426 15.1134 5.6642C15.1887 5.47415 15.2992 5.30146 15.4385 5.15603C15.5778 5.01059 15.7433 4.89527 15.9254 4.81666C16.1075 4.73804 16.3026 4.69769 16.4997 4.69789L16.5004 4.70104ZM10.4992 1.56642C11.0926 1.56642 11.6727 1.75008 12.1661 2.09417C12.6595 2.43826 13.044 2.92733 13.2711 3.49953C13.4982 4.07173 13.5576 4.70137 13.4418 5.30881C13.326 5.91626 13.0403 6.47424 12.6207 6.91218C12.2011 7.35013 11.6665 7.64837 11.0846 7.7692C10.5026 7.89003 9.89933 7.82801 9.35111 7.591C8.8029 7.35398 8.33433 6.95262 8.00466 6.43765C7.67499 5.92268 7.49903 5.31724 7.49903 4.69789C7.49943 3.8675 7.81565 3.07124 8.37821 2.48407C8.94078 1.89689 9.70366 1.56684 10.4992 1.56642V1.56642ZM4.49882 7.82937C4.20216 7.82921 3.9122 7.73725 3.66561 7.56511C3.41901 7.39297 3.22686 7.14838 3.11344 6.86227C3.00001 6.57615 2.97041 6.26136 3.02838 5.95769C3.08634 5.65402 3.22928 5.3751 3.4391 5.15621C3.64892 4.93732 3.91622 4.78827 4.20719 4.72792C4.49816 4.66757 4.79974 4.69862 5.07381 4.81715C5.34787 4.93568 5.58211 5.13637 5.74692 5.39384C5.91172 5.6513 5.99968 5.95399 5.99968 6.26363C5.99978 6.46928 5.96104 6.67292 5.88569 6.86293C5.81034 7.05295 5.69984 7.22559 5.56053 7.371C5.42121 7.51642 5.2558 7.63174 5.07375 7.71039C4.89171 7.78904 4.69659 7.82947 4.49957 7.82937H4.49882Z"/>
</mask>
<path className="nav-icon-fill" d="M17.9998 9.3951H2.99946C2.20395 9.39552 1.44114 9.7256 0.878697 10.3128C0.316253 10.9 0.000199427 11.6963 0 12.5266V14.0923C0.000640201 14.64 0.139575 15.1778 0.402804 15.6516C0.666032 16.1253 1.04425 16.5183 1.49935 16.7909V21.9226H7.49978V25.054H13.5002V21.9202H19.5006V16.7909C19.9557 16.5183 20.334 16.1253 20.5972 15.6516C20.8604 15.1778 20.9994 14.64 21 14.0923V12.5266C20.9996 11.6962 20.6834 10.8999 20.1208 10.3128C19.5583 9.72558 18.7954 9.39552 17.9998 9.3951V9.3951ZM5.99968 20.3545H2.99946V14.0923H1.49935V12.5266C1.49955 12.1114 1.65766 11.7133 1.93895 11.4197C2.22023 11.1261 2.60167 10.9611 2.99946 10.9608H4.91505C4.64549 11.4348 4.50206 11.9754 4.49957 12.5266V15.6581C4.50055 16.2055 4.63972 16.7431 4.90307 17.2166C5.16643 17.69 5.54466 18.0827 5.99968 18.3551V20.3553V20.3545ZM13.5002 17.223V14.0923H11.9994V23.486H8.99914V14.0923H7.49903V17.223C7.10118 17.223 6.71962 17.058 6.4383 16.7644C6.15697 16.4708 5.99892 16.0725 5.99892 15.6573V12.5266C5.99912 12.1114 6.15723 11.7133 6.43852 11.4197C6.7198 11.1261 7.10124 10.9611 7.49903 10.9608H13.4995C13.8973 10.9608 14.2789 11.1258 14.5602 11.4194C14.8415 11.7131 14.9996 12.1113 14.9996 12.5266V15.6581C14.9997 15.8637 14.9609 16.0673 14.8856 16.2574C14.8102 16.4474 14.6997 16.62 14.5604 16.7654C14.4211 16.9108 14.2557 17.0262 14.0736 17.1048C13.8916 17.1835 13.6965 17.2239 13.4995 17.2238L13.5002 17.223ZM19.5006 14.0915H17.9998V20.3545H14.9996V18.3551C15.4546 18.0827 15.8328 17.69 16.0962 17.2166C16.3595 16.7431 16.4987 16.2055 16.4997 15.6581V12.5266C16.4969 11.9753 16.3532 11.4348 16.0834 10.9608H17.9998C18.3976 10.9608 18.7792 11.1258 19.0605 11.4194C19.3418 11.7131 19.4999 12.1113 19.4999 12.5266V14.0923L19.5006 14.0915ZM7.11742 7.76495C7.53432 8.27648 8.05273 8.68735 8.63678 8.96912C9.22084 9.25088 9.85658 9.39682 10.5 9.39682C11.1434 9.39682 11.7792 9.25088 12.3632 8.96912C12.9473 8.68735 13.4657 8.27648 13.8826 7.76495C14.1725 8.31586 14.6146 8.76283 15.1515 9.04759C15.6883 9.33234 16.2949 9.44167 16.8921 9.36132C17.4893 9.28097 18.0495 9.01466 18.4996 8.59712C18.9497 8.17959 19.2688 7.63019 19.4154 7.02056C19.5619 6.41093 19.5291 5.76937 19.3212 5.1795C19.1132 4.58964 18.7399 4.07885 18.2497 3.71373C17.7596 3.34861 17.1754 3.1461 16.5733 3.13261C15.9713 3.11912 15.3793 3.29527 14.8746 3.63809C14.6478 2.60439 14.0916 1.68163 13.297 1.02075C12.5024 0.359872 11.5164 0 10.5004 0C9.48435 0 8.4984 0.359872 7.7038 1.02075C6.90919 1.68163 6.35298 2.60439 6.12613 3.63809C5.62062 3.29333 5.02725 3.11567 4.42351 3.12832C3.81977 3.14097 3.23371 3.34334 2.74186 3.70901C2.25001 4.07467 1.87523 4.58663 1.66645 5.17805C1.45768 5.76946 1.42461 6.41284 1.57156 7.02418C1.71852 7.63551 2.03867 8.18639 2.49022 8.60487C2.94176 9.02336 3.50371 9.29001 4.10269 9.37001C4.70167 9.45001 5.30984 9.33963 5.84779 9.05329C6.38574 8.76695 6.82847 8.31796 7.11817 7.76495H7.11742ZM16.5004 4.70104C16.7972 4.70119 17.0873 4.79323 17.334 4.96551C17.5806 5.13779 17.7728 5.38257 17.8861 5.66886C17.9994 5.95516 18.0289 6.27012 17.9706 6.57387C17.9124 6.87763 17.7692 7.15654 17.5591 7.37531C17.349 7.59407 17.0814 7.74287 16.7902 7.80286C16.499 7.86286 16.1974 7.83136 15.9233 7.71235C15.6493 7.59333 15.4153 7.39216 15.2509 7.13428C15.0864 6.8764 14.999 6.5734 14.9996 6.26363C14.9994 6.05796 15.038 5.85426 15.1134 5.6642C15.1887 5.47415 15.2992 5.30146 15.4385 5.15603C15.5778 5.01059 15.7433 4.89527 15.9254 4.81666C16.1075 4.73804 16.3026 4.69769 16.4997 4.69789L16.5004 4.70104ZM10.4992 1.56642C11.0926 1.56642 11.6727 1.75008 12.1661 2.09417C12.6595 2.43826 13.044 2.92733 13.2711 3.49953C13.4982 4.07173 13.5576 4.70137 13.4418 5.30881C13.326 5.91626 13.0403 6.47424 12.6207 6.91218C12.2011 7.35013 11.6665 7.64837 11.0846 7.7692C10.5026 7.89003 9.89933 7.82801 9.35111 7.591C8.8029 7.35398 8.33433 6.95262 8.00466 6.43765C7.67499 5.92268 7.49903 5.31724 7.49903 4.69789C7.49943 3.8675 7.81565 3.07124 8.37821 2.48407C8.94078 1.89689 9.70366 1.56684 10.4992 1.56642V1.56642ZM4.49882 7.82937C4.20216 7.82921 3.9122 7.73725 3.66561 7.56511C3.41901 7.39297 3.22686 7.14838 3.11344 6.86227C3.00001 6.57615 2.97041 6.26136 3.02838 5.95769C3.08634 5.65402 3.22928 5.3751 3.4391 5.15621C3.64892 4.93732 3.91622 4.78827 4.20719 4.72792C4.49816 4.66757 4.79974 4.69862 5.07381 4.81715C5.34787 4.93568 5.58211 5.13637 5.74692 5.39384C5.91172 5.6513 5.99968 5.95399 5.99968 6.26363C5.99978 6.46928 5.96104 6.67292 5.88569 6.86293C5.81034 7.05295 5.69984 7.22559 5.56053 7.371C5.42121 7.51642 5.2558 7.63174 5.07375 7.71039C4.89171 7.78904 4.69659 7.82947 4.49957 7.82937H4.49882Z" fill="#626D6C" stroke="white" stroke-width="0.16" mask="url(#path-1-inside-1_85_175)"/>
</svg>
