<svg width="23" height="23" viewBox="0 0 23 23" fill="none" xmlns="http://www.w3.org/2000/svg">
<path className="nav-icon-fill" d="M7.61176 19.4484L7.60443 19.4411H7.59408H2.24609C1.02139 19.4411 0.025 18.4447 0.025 17.22V2.24609C0.025 1.02139 1.02139 0.025 2.24609 0.025H20.7539C21.9786 0.025 22.975 1.02139 22.975 2.24609V17.22C22.975 18.4447 21.9786 19.4411 20.7539 19.4411H15.4059H15.3956L15.3882 19.4484L12.1175 22.7193C11.7765 23.0601 11.2233 23.0601 10.8825 22.7193L7.61176 19.4484ZM11.4823 20.8486L11.5 20.8663L11.5177 20.8486L14.4162 17.9501C14.58 17.7863 14.8022 17.6942 15.0339 17.6942L17.6038 17.6944L17.6327 17.6944L17.6285 17.6658C17.1903 14.6762 14.6092 12.3734 11.5 12.3734C8.39077 12.3734 5.80968 14.6762 5.37168 17.6658L5.36749 17.6944H5.39642H7.96626C8.19776 17.6944 8.42004 17.7863 8.58381 17.9501L11.4823 20.8486ZM19.3904 17.672L19.3929 17.6942H19.4152H20.7539C21.0155 17.6942 21.2281 17.4816 21.2281 17.22V2.24609C21.2281 1.98451 21.0155 1.77188 20.7539 1.77188H2.24609C1.98451 1.77188 1.77188 1.98451 1.77188 2.24609V17.22C1.77188 17.4816 1.98451 17.6942 2.24609 17.6942H3.5848H3.60714L3.60964 17.672C3.93902 14.7509 5.85951 12.3046 8.48169 11.223L8.51759 11.2082L8.48925 11.1817C7.6302 10.3769 7.09265 9.23317 7.09265 7.96609C7.09265 5.53604 9.06978 3.55891 11.5 3.55891C13.93 3.55891 15.9072 5.53604 15.9072 7.96609C15.9072 9.23317 15.3696 10.3769 14.5106 11.1817L14.4822 11.2082L14.5181 11.223C17.1405 12.3046 19.061 14.7509 19.3904 17.672ZM11.5 5.30579C10.0331 5.30579 8.83953 6.49916 8.83953 7.96609C8.83953 9.43319 10.0331 10.6266 11.5 10.6266C12.9669 10.6266 14.1605 9.43319 14.1605 7.96609C14.1605 6.49916 12.9669 5.30579 11.5 5.30579Z" fill="#626D6C" stroke="white" stroke-width="0.05"/>
</svg>
