<svg width="22" height="22" viewBox="0 0 22 22" fill="none" xmlns="http://www.w3.org/2000/svg">
<path className="nav-icon-fill" fill-rule="evenodd" clip-rule="evenodd" d="M21.1812 10.7008V5.58203C21.1812 4.6119 20.7961 3.68273 20.1107 2.99633C19.4243 2.31091 18.4951 1.92578 17.525 1.92578C13.8434 1.92578 7.5566 1.92578 3.875 1.92578C1.85577 1.92578 0.21875 3.56281 0.21875 5.58203V17.282C0.21875 19.3012 1.85577 20.9383 3.875 20.9383H10.7C11.1036 20.9383 11.4312 20.6107 11.4312 20.207C11.4312 19.8034 11.1036 19.4758 10.7 19.4758C10.7 19.4758 6.74735 19.4758 3.875 19.4758C2.66307 19.4758 1.68125 18.4939 1.68125 17.282V5.58203C1.68125 4.37011 2.66307 3.38828 3.875 3.38828H17.525C18.1071 3.38828 18.6648 3.61936 19.0762 4.03081C19.4877 4.44225 19.7187 4.99995 19.7187 5.58203V10.7008C19.7187 11.1044 20.0463 11.432 20.45 11.432C20.8536 11.432 21.1812 11.1044 21.1812 10.7008Z" fill="#626D6C"/>
<path className="nav-icon-fill" fill-rule="evenodd" clip-rule="evenodd" d="M20.45 7.77539H0.95C0.54635 7.77539 0.21875 8.10299 0.21875 8.50664C0.21875 8.91029 0.54635 9.23789 0.95 9.23789H20.45C20.8536 9.23789 21.1812 8.91029 21.1812 8.50664C21.1812 8.10299 20.8536 7.77539 20.45 7.77539Z" fill="#626D6C"/>
<path className="nav-icon-fill" fill-rule="evenodd" clip-rule="evenodd" d="M5.58105 0.95V4.3625C5.58105 4.76615 5.90865 5.09375 6.3123 5.09375C6.71595 5.09375 7.04355 4.76615 7.04355 4.3625V0.95C7.04355 0.54635 6.71595 0.21875 6.3123 0.21875C5.90865 0.21875 5.58105 0.54635 5.58105 0.95Z" fill="#626D6C"/>
<path className="nav-icon-fill" fill-rule="evenodd" clip-rule="evenodd" d="M14.3564 0.95V4.3625C14.3564 4.76615 14.684 5.09375 15.0877 5.09375C15.4913 5.09375 15.8189 4.76615 15.8189 4.3625V0.95C15.8189 0.54635 15.4913 0.21875 15.0877 0.21875C14.684 0.21875 14.3564 0.54635 14.3564 0.95Z" fill="#626D6C"/>
<path  className="nav-icon-fill" fill-rule="evenodd" clip-rule="evenodd" d="M16.0626 10.9434C13.237 10.9434 10.9438 13.2366 10.9438 16.0621C10.9438 18.8877 13.237 21.1809 16.0626 21.1809C18.8881 21.1809 21.1813 18.8877 21.1813 16.0621C21.1813 13.2366 18.8881 10.9434 16.0626 10.9434ZM16.0626 12.4059C18.0808 12.4059 19.7188 14.0439 19.7188 16.0621C19.7188 18.0804 18.0808 19.7184 16.0626 19.7184C14.0443 19.7184 12.4063 18.0804 12.4063 16.0621C12.4063 14.0439 14.0443 12.4059 16.0626 12.4059Z" fill="#626D6C"/>
<path className="nav-icon-fill" fill-rule="evenodd" clip-rule="evenodd" d="M13.5956 16.336L15.0581 17.7985C15.3438 18.0842 15.8059 18.0842 16.0916 17.7985L18.5291 15.361C18.8148 15.0763 18.8148 14.6122 18.5291 14.3275C18.2444 14.0419 17.7803 14.0419 17.4956 14.3275L15.5749 16.2473L14.6291 15.3025C14.3444 15.0169 13.8803 15.0169 13.5956 15.3025C13.3099 15.5872 13.3099 16.0513 13.5956 16.336V16.336Z" fill="#626D6C"/>
</svg>
