<svg width="22" height="26" viewBox="0 0 22 26" fill="none" xmlns="http://www.w3.org/2000/svg">
<path className="nav-icon" d="M21 24.4845V21.875C21 20.4909 20.4732 19.1634 19.5355 18.1847C18.5978 17.2059 17.3259 16.6561 15.9998 16.6561H6.00021C4.67407 16.6561 3.40225 17.2059 2.46453 18.1847C1.52681 19.1634 1 20.4909 1 21.875V24.4845" stroke="#626D6C" stroke-width="2" stroke-linecap="round" stroke-linejoin="round"/>
<path className="nav-icon" d="M15.9998 6.21897C15.9998 7.25122 15.7065 8.26029 15.1571 9.11856C14.6076 9.97683 13.8266 10.6458 12.9129 11.0407C11.9992 11.4357 10.9938 11.539 10.0238 11.3376C9.05383 11.1361 8.16288 10.639 7.46363 9.90903C6.76437 9.17905 6.28821 8.24904 6.09537 7.23661C5.90253 6.22417 6.00167 5.17478 6.38025 4.22115C6.75883 3.26753 7.39985 2.4525 8.22224 1.87913C9.04462 1.30577 10.0114 0.999829 11.0004 1C12.3264 1.00023 13.598 1.55018 14.5356 2.52891C15.4731 3.50763 15.9998 4.83496 15.9998 6.21897V6.21897Z" stroke="#626D6C" stroke-width="2" stroke-linecap="round" stroke-linejoin="round"/>
</svg>
