<svg width="25" height="25" viewBox="0 0 25 25" fill="none" xmlns="http://www.w3.org/2000/svg">
<path d="M19.875 2.5V2.625H20H21.25C23.2488 2.625 24.875 4.25116 24.875 6.25V21.25C24.875 23.2488 23.2488 24.875 21.25 24.875H3.75C1.75116 24.875 0.125 23.2488 0.125 21.25V6.25C0.125 4.25116 1.75116 2.625 3.75 2.625H5H5.125V2.5V1.25C5.125 0.628688 5.62816 0.125 6.25 0.125C6.87184 0.125 7.375 0.628688 7.375 1.25V2.5V2.625H7.5H11.25H11.375V2.5V1.25C11.375 0.628688 11.8782 0.125 12.5 0.125C13.1218 0.125 13.625 0.628688 13.625 1.25V2.5V2.625H13.75H17.5H17.625V2.5V1.25C17.625 0.628688 18.1282 0.125 18.75 0.125C19.3718 0.125 19.875 0.628688 19.875 1.25V2.5ZM15 22.625H15.125V22.5V20.625C15.125 20.2173 14.7835 19.875 14.375 19.875H10.625C10.2165 19.875 9.875 20.2173 9.875 20.625V22.5V22.625H10H15ZM17.375 22.5V22.625H17.5H21.25C22.0088 22.625 22.625 22.0081 22.625 21.25V6.25C22.625 5.49192 22.0088 4.875 21.25 4.875H3.75C2.99123 4.875 2.375 5.49192 2.375 6.25V21.25C2.375 22.0081 2.99123 22.625 3.75 22.625H7.5H7.625V22.5V20.625C7.625 18.971 8.97042 17.625 10.625 17.625H14.375C16.0296 17.625 17.375 18.971 17.375 20.625V22.5ZM8.25 11.875C8.25 9.53193 10.1569 7.625 12.5 7.625C14.8431 7.625 16.75 9.53193 16.75 11.875C16.75 14.2181 14.8431 16.125 12.5 16.125C10.1569 16.125 8.25 14.2181 8.25 11.875ZM10.5 11.875C10.5 12.978 11.397 13.875 12.5 13.875C13.603 13.875 14.5 12.978 14.5 11.875C14.5 10.772 13.603 9.875 12.5 9.875C11.397 9.875 10.5 10.772 10.5 11.875Z" fill="#626D6C" stroke="white" stroke-width="0.25"/>
</svg>
