<svg width="23" height="23" viewBox="0 0 23 23"  fill="none" xmlns="http://www.w3.org/2000/svg">
<g clip-path="url(#clip0_624_5)">
<path className="nav-icon-fill" d="M22.3711 9.03828C22.0338 8.70395 21.5956 8.4903 21.1245 8.43052C20.6534 8.37074 20.1757 8.46816 19.7656 8.70766V5.75C19.7656 5.17813 19.5384 4.62968 19.1341 4.2253C18.7297 3.82093 18.1812 3.59375 17.6094 3.59375H16.5312V2.15625C16.5312 1.58438 16.3041 1.03593 15.8997 0.631551C15.4953 0.227176 14.9469 0 14.375 0L2.15625 0C1.58438 0 1.03593 0.227176 0.631551 0.631551C0.227176 1.03593 0 1.58438 0 2.15625L0 8.625C0 8.81562 0.0757252 8.99844 0.210517 9.13323C0.345309 9.26802 0.528126 9.34375 0.71875 9.34375C0.909374 9.34375 1.09219 9.26802 1.22698 9.13323C1.36177 8.99844 1.4375 8.81562 1.4375 8.625V2.15625C1.4375 1.96563 1.51323 1.78281 1.64802 1.64802C1.78281 1.51323 1.96563 1.4375 2.15625 1.4375H14.375C14.5656 1.4375 14.7484 1.51323 14.8832 1.64802C15.018 1.78281 15.0938 1.96563 15.0938 2.15625V3.59375H5.39062C4.81875 3.59375 4.2703 3.82093 3.86593 4.2253C3.46155 4.62968 3.23438 5.17813 3.23438 5.75V12.2188C3.23438 12.4094 3.3101 12.5922 3.44489 12.727C3.57968 12.8618 3.7625 12.9375 3.95312 12.9375C4.14375 12.9375 4.32657 12.8618 4.46136 12.727C4.59615 12.5922 4.67188 12.4094 4.67188 12.2188V5.75C4.67188 5.55938 4.7476 5.37656 4.88239 5.24177C5.01718 5.10698 5.2 5.03125 5.39062 5.03125H17.6094C17.8 5.03125 17.9828 5.10698 18.1176 5.24177C18.2524 5.37656 18.3281 5.55938 18.3281 5.75V10.0302L12.7147 15.6472C12.6341 15.725 12.5737 15.8212 12.5386 15.9275L11.5216 18.975C11.4846 19.0844 11.4745 19.2012 11.4922 19.3153C11.5099 19.4295 11.5549 19.5377 11.6233 19.6308C11.6917 19.7239 11.7815 19.7991 11.8852 19.8501C11.9888 19.9011 12.1033 19.9264 12.2188 19.9237C12.2959 19.9232 12.3724 19.9098 12.4452 19.8842L15.4962 18.8672C15.6022 18.8331 15.6984 18.774 15.7766 18.6947L18.3281 16.1288V20.8438C18.3281 21.0344 18.2524 21.2172 18.1176 21.352C17.9828 21.4868 17.8 21.5625 17.6094 21.5625H5.39062C5.2 21.5625 5.01718 21.4868 4.88239 21.352C4.7476 21.2172 4.67188 21.0344 4.67188 20.8438V15.0938C4.67188 14.9031 4.59615 14.7203 4.46136 14.5855C4.32657 14.4507 4.14375 14.375 3.95312 14.375C3.7625 14.375 3.57968 14.4507 3.44489 14.5855C3.3101 14.7203 3.23438 14.9031 3.23438 15.0938V17.9688H2.15625C1.96563 17.9688 1.78281 17.893 1.64802 17.7582C1.51323 17.6234 1.4375 17.4406 1.4375 17.25V11.5C1.4375 11.3094 1.36177 11.1266 1.22698 10.9918C1.09219 10.857 0.909374 10.7812 0.71875 10.7812C0.528126 10.7812 0.345309 10.857 0.210517 10.9918C0.0757252 11.1266 0 11.3094 0 11.5L0 17.25C0 17.8219 0.227176 18.3703 0.631551 18.7747C1.03593 19.1791 1.58438 19.4062 2.15625 19.4062H3.23438V20.8438C3.23438 21.4156 3.46155 21.9641 3.86593 22.3684C4.2703 22.7728 4.81875 23 5.39062 23H17.6094C18.1812 23 18.7297 22.7728 19.1341 22.3684C19.5384 21.9641 19.7656 21.4156 19.7656 20.8438V14.6913L22.3711 12.0894C22.5716 11.8891 22.7306 11.6513 22.8391 11.3895C22.9476 11.1278 23.0035 10.8472 23.0035 10.5638C23.0035 10.2805 22.9476 9.99988 22.8391 9.73811C22.7306 9.47635 22.5716 9.23854 22.3711 9.03828V9.03828ZM21.3541 11.0723L14.8673 17.5591L13.34 18.0658L13.8503 16.5312L19.5356 10.8567L19.5716 10.8208L20.337 10.0625C20.4719 9.92763 20.6548 9.85187 20.8455 9.85187C21.0363 9.85187 21.2192 9.92763 21.3541 10.0625C21.4889 10.1974 21.5647 10.3803 21.5647 10.571C21.5647 10.7617 21.4889 10.9447 21.3541 11.0795V11.0723Z" fill="#626D6C"/>
<path className="nav-icon-fill" d="M14.0156 11.5C14.4126 11.5 14.7344 11.1782 14.7344 10.7812C14.7344 10.3843 14.4126 10.0625 14.0156 10.0625C13.6187 10.0625 13.2969 10.3843 13.2969 10.7812C13.2969 11.1782 13.6187 11.5 14.0156 11.5Z" fill="#626D6C"/>
<path className="nav-icon-fill" d="M11.1406 11.5C11.3312 11.5 11.5141 11.4243 11.6489 11.2895C11.7837 11.1547 11.8594 10.9719 11.8594 10.7812C11.8594 10.5906 11.7837 10.4078 11.6489 10.273C11.5141 10.1382 11.3312 10.0625 11.1406 10.0625H7.1875C6.99688 10.0625 6.81406 10.1382 6.67927 10.273C6.54448 10.4078 6.46875 10.5906 6.46875 10.7812C6.46875 10.9719 6.54448 11.1547 6.67927 11.2895C6.81406 11.4243 6.99688 11.5 7.1875 11.5H11.1406Z" fill="#626D6C"/>
</g>
<defs>
<clipPath id="clip0_624_5">
<rect width="23" height="23" fill="white"/>
</clipPath>
</defs>
</svg>
