<svg width="25" height="25" viewBox="0 0 25 25" fill="none" xmlns="http://www.w3.org/2000/svg">
<g clip-path="url(#clip0_85_190)">
<path className="nav-icon-fill" d="M23.9583 22.9167H3.125C2.84873 22.9167 2.58378 22.8069 2.38843 22.6116C2.19308 22.4162 2.08333 22.1513 2.08333 21.875V1.04167C2.08333 0.765399 1.97359 0.500447 1.77824 0.305097C1.58289 0.109747 1.31793 0 1.04167 0C0.765399 0 0.500447 0.109747 0.305097 0.305097C0.109747 0.500447 0 0.765399 0 1.04167L0 21.875C0 22.7038 0.32924 23.4987 0.915291 24.0847C1.50134 24.6708 2.2962 25 3.125 25H23.9583C24.2346 25 24.4996 24.8903 24.6949 24.6949C24.8903 24.4996 25 24.2346 25 23.9583C25 23.6821 24.8903 23.4171 24.6949 23.2218C24.4996 23.0264 24.2346 22.9167 23.9583 22.9167Z" fill="#626D6C"/>
<path className="nav-icon-fill" d="M15.625 20.8333C15.9013 20.8333 16.1663 20.7236 16.3616 20.5282C16.557 20.3329 16.6667 20.0679 16.6667 19.7917V12.5C16.6667 12.2237 16.557 11.9588 16.3616 11.7634C16.1663 11.5681 15.9013 11.4583 15.625 11.4583C15.3488 11.4583 15.0838 11.5681 14.8885 11.7634C14.6931 11.9588 14.5834 12.2237 14.5834 12.5V19.7917C14.5834 20.0679 14.6931 20.3329 14.8885 20.5282C15.0838 20.7236 15.3488 20.8333 15.625 20.8333Z" fill="#626D6C"/>
<path className="nav-icon-fill" d="M7.29167 20.8333C7.56793 20.8333 7.83289 20.7236 8.02824 20.5282C8.22359 20.3329 8.33333 20.0679 8.33333 19.7917V12.5C8.33333 12.2237 8.22359 11.9588 8.02824 11.7634C7.83289 11.5681 7.56793 11.4583 7.29167 11.4583C7.0154 11.4583 6.75045 11.5681 6.5551 11.7634C6.35975 11.9588 6.25 12.2237 6.25 12.5V19.7917C6.25 20.0679 6.35975 20.3329 6.5551 20.5282C6.75045 20.7236 7.0154 20.8333 7.29167 20.8333Z" fill="#626D6C"/>
<path  className="nav-icon-fill" d="M19.7917 20.8333C20.0679 20.8333 20.3329 20.7236 20.5282 20.5282C20.7236 20.3329 20.8333 20.0679 20.8333 19.7917V7.29167C20.8333 7.0154 20.7236 6.75045 20.5282 6.5551C20.3329 6.35975 20.0679 6.25 19.7917 6.25C19.5154 6.25 19.2504 6.35975 19.0551 6.5551C18.8597 6.75045 18.75 7.0154 18.75 7.29167V19.7917C18.75 20.0679 18.8597 20.3329 19.0551 20.5282C19.2504 20.7236 19.5154 20.8333 19.7917 20.8333Z" fill="#626D6C"/>
<path className="nav-icon-fill" d="M11.4583 20.8333C11.7346 20.8333 11.9995 20.7236 12.1949 20.5282C12.3902 20.3329 12.5 20.0679 12.5 19.7917V7.29167C12.5 7.0154 12.3902 6.75045 12.1949 6.5551C11.9995 6.35975 11.7346 6.25 11.4583 6.25C11.182 6.25 10.9171 6.35975 10.7217 6.5551C10.5264 6.75045 10.4166 7.0154 10.4166 7.29167V19.7917C10.4166 20.0679 10.5264 20.3329 10.7217 20.5282C10.9171 20.7236 11.182 20.8333 11.4583 20.8333Z" fill="#626D6C"/>
</g>
<defs>
<clipPath id="clip0_85_190">
<rect width="25" height="25" fill="white"/>
</clipPath>
</defs>
</svg>
