<svg width="20" height="20" viewBox="0 0 20 20" fill="none" xmlns="http://www.w3.org/2000/svg">
<path d="M2.5 18.3334H17.5M4.66667 6.98341H3.33333C2.875 6.98341 2.5 7.35841 2.5 7.81675V15.0001C2.5 15.4584 2.875 15.8334 3.33333 15.8334H4.66667C5.125 15.8334 5.5 15.4584 5.5 15.0001V7.81675C5.5 7.35841 5.125 6.98341 4.66667 6.98341ZM10.6667 4.32508H9.33333C8.875 4.32508 8.5 4.70008 8.5 5.15841V15.0001C8.5 15.4584 8.875 15.8334 9.33333 15.8334H10.6667C11.125 15.8334 11.5 15.4584 11.5 15.0001V5.15841C11.5 4.70008 11.125 4.32508 10.6667 4.32508ZM16.6667 1.66675H15.3333C14.875 1.66675 14.5 2.04175 14.5 2.50008V15.0001C14.5 15.4584 14.875 15.8334 15.3333 15.8334H16.6667C17.125 15.8334 17.5 15.4584 17.5 15.0001V2.50008C17.5 2.04175 17.125 1.66675 16.6667 1.66675Z" stroke="#71839B" stroke-width="1.5" stroke-linecap="round" stroke-linejoin="round"/>
</svg>
