<svg width="21" height="26" viewBox="0 0 21 26" fill="none" xmlns="http://www.w3.org/2000/svg">
<path className="nav-icon-fill" d="M20.0558 7.32961L13.2369 0.238012C13.0904 0.0856172 12.8917 0 12.6845 0H2.5012C1.1221 0 0.00012207 1.16685 0.00012207 2.60112V23.3989C0.00012207 24.8331 1.1221 26 2.5012 26H17.7835C19.1626 26 20.2846 24.8331 20.2846 23.3989V7.9041C20.2846 7.68864 20.2023 7.48196 20.0558 7.32961V7.32961ZM13.4658 2.77408L17.6172 7.09165H13.4658V2.77408ZM17.7835 24.375H2.5012C1.98367 24.375 1.56262 23.9371 1.56262 23.3989V2.60112C1.56262 2.06289 1.98367 1.625 2.5012 1.625H11.9032V7.9041C11.9032 8.3528 12.2531 8.7166 12.6845 8.7166H18.7221V23.3989C18.7221 23.9371 18.3011 24.375 17.7835 24.375ZM15.7283 13.499C15.7283 13.9477 15.3785 14.3115 14.947 14.3115H5.33767C4.90623 14.3115 4.55642 13.9477 4.55642 13.499C4.55642 13.0503 4.90623 12.6865 5.33767 12.6865H14.947C15.3785 12.6865 15.7283 13.0502 15.7283 13.499ZM15.7283 19.0442C15.7283 19.4929 15.3785 19.8567 14.947 19.8567H5.33767C4.90623 19.8567 4.55642 19.4929 4.55642 19.0442C4.55642 18.5955 4.90623 18.2317 5.33767 18.2317H14.947C15.3785 18.2317 15.7283 18.5955 15.7283 19.0442Z" fill="#626D6C"/>
</svg>
