<svg width="27" height="27" viewBox="0 0 27 27" fill="none" xmlns="http://www.w3.org/2000/svg">
<path className="nav-icon" d="M16.3446 13.0569C16.3446 13.7074 16.1517 14.3432 15.7903 14.884C15.4289 15.4248 14.9153 15.8463 14.3143 16.0952C13.7134 16.344 13.0521 16.4091 12.4142 16.2822C11.7763 16.1552 11.1903 15.8419 10.7305 15.3819C10.2706 14.9219 9.95745 14.3359 9.83066 13.6979C9.70387 13.06 9.76912 12.3988 10.0181 11.7979C10.2672 11.197 10.6888 10.6835 11.2297 10.3222C11.7706 9.96099 12.4065 9.76826 13.0569 9.76843C13.9289 9.76866 14.7652 10.1152 15.3817 10.7319C15.9982 11.3486 16.3446 12.1849 16.3446 13.0569Z" stroke="#626D6C" stroke-width="2" stroke-linecap="round" stroke-linejoin="round"/>
<path className="nav-icon" d="M21.1675 16.3446C21.0216 16.6752 20.9782 17.042 21.0427 17.3976C21.1072 17.7532 21.2767 18.0813 21.5295 18.3396L21.5955 18.4057C21.8021 18.6086 21.9665 18.8505 22.0792 19.1174C22.1918 19.3843 22.2505 19.6708 22.2518 19.9605C22.253 20.2501 22.1969 20.5372 22.0867 20.805C21.9764 21.0729 21.8142 21.3162 21.6094 21.5211C21.4046 21.7259 21.1612 21.8881 20.8934 21.9984C20.6255 22.1086 20.3385 22.1647 20.0488 22.1634C19.7591 22.1621 19.4726 22.1035 19.2058 21.9908C18.9389 21.8782 18.697 21.7138 18.494 21.5072L18.428 21.4411C18.1715 21.1943 17.8484 21.028 17.4985 20.9626C17.1487 20.8972 16.7873 20.9357 16.459 21.0732C16.1307 21.2107 15.8499 21.4413 15.6511 21.7365C15.4523 22.0317 15.3442 22.3787 15.3402 22.7346V22.9207C15.3402 23.5021 15.1092 24.0597 14.6981 24.4709C14.2869 24.882 13.7293 25.113 13.1478 25.113C12.5664 25.113 12.0088 24.882 11.5976 24.4709C11.1865 24.0597 10.9555 23.5021 10.9555 22.9207V22.822C10.9472 22.4592 10.8298 22.1072 10.6187 21.812C10.4076 21.5168 10.1125 21.2919 9.77187 21.1666C9.44124 21.0207 9.07445 20.9771 8.71884 21.0416C8.36322 21.1062 8.0351 21.2758 7.77682 21.5286L7.71078 21.5946C7.50713 21.7987 7.26528 21.9607 6.99903 22.0714C6.73277 22.182 6.44734 22.2391 6.15902 22.2394C5.57673 22.2401 5.01804 22.0094 4.60584 21.5981C4.19365 21.1868 3.96172 20.6286 3.96107 20.0463C3.96043 19.464 4.19113 18.9053 4.60241 18.4931L4.66846 18.4271C4.91525 18.1706 5.08159 17.8475 5.14697 17.4977C5.21235 17.1478 5.17392 16.7865 5.0364 16.4582C4.89889 16.1299 4.66831 15.849 4.37309 15.6502C4.07787 15.4514 3.73092 15.3433 3.37502 15.3393H3.19233C2.61088 15.3393 2.05326 15.1083 1.64212 14.6972C1.23098 14.2861 1 13.7284 1 13.147C1 12.5655 1.23098 12.0079 1.64212 11.5968C2.05326 11.1856 2.61088 10.9547 3.19233 10.9547H3.29096C3.65381 10.9463 4.00576 10.8289 4.301 10.6178C4.59624 10.4067 4.82111 10.1117 4.94636 9.77101C5.09233 9.44038 5.13587 9.07359 5.07135 8.71798C5.00684 8.36236 4.83722 8.03424 4.5844 7.77596L4.51664 7.70821C4.10479 7.29669 3.87327 6.73843 3.87303 6.15622C3.87279 5.57401 4.10384 5.01555 4.51535 4.6037C4.92687 4.19184 5.48513 3.96033 6.06734 3.96009C6.64955 3.95985 7.20801 4.1909 7.61986 4.60241L7.6859 4.66846C7.94418 4.92128 8.2723 5.09089 8.62792 5.15541C8.98353 5.21993 9.35033 5.17639 9.68095 5.03041H9.76673C10.0906 4.89187 10.367 4.66172 10.5619 4.36824C10.7568 4.07476 10.8617 3.73074 10.8637 3.37845V3.19233C10.8637 2.61088 11.0947 2.05326 11.5059 1.64212C11.917 1.23098 12.4746 1 13.0561 1C13.6375 1 14.1951 1.23098 14.6063 1.64212C15.0174 2.05326 15.2484 2.61088 15.2484 3.19233V3.29096C15.2524 3.64686 15.3605 3.99381 15.5593 4.28903C15.7581 4.58425 16.039 4.81483 16.3673 4.95235C16.6955 5.08986 17.0569 5.1283 17.4068 5.06291C17.7566 4.99753 18.0797 4.83119 18.3362 4.5844L18.4022 4.51836C18.6052 4.31171 18.8471 4.14733 19.114 4.03469C19.3808 3.92205 19.6674 3.8634 19.957 3.8621C20.2467 3.86081 20.5337 3.91691 20.8016 4.02716C21.0694 4.13741 21.3128 4.29963 21.5176 4.50445C21.7225 4.70927 21.8847 4.95264 21.9949 5.22049C22.1052 5.48835 22.1613 5.7754 22.16 6.06505C22.1587 6.35471 22.1 6.64124 21.9874 6.90811C21.8748 7.17497 21.7104 7.41688 21.5037 7.61986L21.4377 7.6859C21.1849 7.94418 21.0152 8.2723 20.9507 8.62792C20.8862 8.98353 20.9297 9.35033 21.0757 9.68095V9.76673C21.2147 10.0917 21.4459 10.3688 21.7408 10.5638C22.0356 10.7588 22.3811 10.8631 22.7346 10.8637H22.9207C23.5021 10.8637 24.0597 11.0947 24.4709 11.5059C24.882 11.917 25.113 12.4746 25.113 13.0561C25.113 13.6375 24.882 14.1951 24.4709 14.6063C24.0597 15.0174 23.5021 15.2484 22.9207 15.2484H22.822C22.4693 15.2497 22.1246 15.3542 21.8304 15.5489C21.5363 15.7437 21.3055 16.0203 21.1666 16.3446H21.1675Z" stroke="#626D6C" stroke-width="2" stroke-linecap="round" stroke-linejoin="round"/>
</svg>
