<svg width="27" height="24" viewBox="0 0 27 24" fill="none" xmlns="http://www.w3.org/2000/svg">
<path className="nav-icon" d="M19.1819 22.3529V19.9773C19.1819 18.719 18.703 17.5122 17.8505 16.6224C16.998 15.7326 15.8418 15.2328 14.6362 15.2328H5.5457C4.3401 15.2328 3.18389 15.7326 2.3314 16.6224C1.47892 17.5122 1 18.719 1 19.9773V22.3529" stroke="#626D6C" stroke-width="2" stroke-linecap="round" stroke-linejoin="round"/>
<path className="nav-icon" d="M14.637 5.74457C14.637 6.68296 14.3704 7.60027 13.871 8.38051C13.3715 9.16075 12.6615 9.76888 11.8309 10.128C11.0003 10.4871 10.0863 10.581 9.20453 10.398C8.32275 10.2149 7.51279 9.76303 6.87706 9.09949C6.24133 8.43595 5.8084 7.59055 5.633 6.67019C5.4576 5.74983 5.54762 4.79586 5.89168 3.9289C6.23573 3.06194 6.81836 2.32094 7.5659 1.7996C8.31343 1.27826 9.1923 1 10.0914 1C11.2969 1 12.4532 1.49987 13.3056 2.38965C14.1581 3.27943 14.637 4.48623 14.637 5.74457Z" stroke="#626D6C" stroke-width="2" stroke-linecap="round" stroke-linejoin="round"/>
<path className="nav-icon" d="M26 22.3492V19.9774C25.9982 18.927 25.6626 17.9069 25.0456 17.0771C24.4287 16.2472 23.5653 15.6545 22.5909 15.3918" stroke="#626D6C" stroke-width="2" stroke-linecap="round" stroke-linejoin="round"/>
<path className="nav-icon" d="M18.0453 1.15958C19.023 1.42099 19.8895 2.01456 20.5083 2.84673C21.1271 3.67889 21.4629 4.70234 21.4629 5.75574C21.4629 6.80913 21.1271 7.83258 20.5083 8.66475C19.8895 9.49691 19.023 10.0905 18.0453 10.3519" stroke="#626D6C" stroke-width="2" stroke-linecap="round" stroke-linejoin="round"/>
</svg>
