<svg width="25" height="24" viewBox="0 0 25 24" fill="none" xmlns="http://www.w3.org/2000/svg">
<path className="nav-icon-fill" d="M19.7917 0H5.20833C3.82751 0.00166558 2.50371 0.554771 1.52731 1.53799C0.550919 2.52121 0.00165402 3.85427 0 5.24476L0 17.8322C0.00165402 19.2227 0.550919 20.5557 1.52731 21.5389C2.50371 22.5222 3.82751 23.0753 5.20833 23.0769H19.7917C21.1725 23.0753 22.4963 22.5222 23.4727 21.5389C24.4491 20.5557 24.9983 19.2227 25 17.8322V5.24476C24.9983 3.85427 24.4491 2.52121 23.4727 1.53799C22.4963 0.554771 21.1725 0.00166558 19.7917 0ZM5.20833 2.0979H19.7917C20.6205 2.0979 21.4153 2.42944 22.0014 3.01959C22.5874 3.60974 22.9167 4.41016 22.9167 5.24476V6.29371H2.08333V5.24476C2.08333 4.41016 2.41257 3.60974 2.99862 3.01959C3.58468 2.42944 4.37953 2.0979 5.20833 2.0979ZM19.7917 20.979H5.20833C4.37953 20.979 3.58468 20.6475 2.99862 20.0573C2.41257 19.4672 2.08333 18.6668 2.08333 17.8322V8.39161H22.9167V17.8322C22.9167 18.6668 22.5874 19.4672 22.0014 20.0573C21.4153 20.6475 20.6205 20.979 19.7917 20.979ZM19.7917 12.5874C19.7917 12.8656 19.6819 13.1324 19.4866 13.3291C19.2912 13.5259 19.0263 13.6364 18.75 13.6364H6.25C5.97373 13.6364 5.70878 13.5259 5.51343 13.3291C5.31808 13.1324 5.20833 12.8656 5.20833 12.5874C5.20833 12.3092 5.31808 12.0424 5.51343 11.8457C5.70878 11.649 5.97373 11.5385 6.25 11.5385H18.75C19.0263 11.5385 19.2912 11.649 19.4866 11.8457C19.6819 12.0424 19.7917 12.3092 19.7917 12.5874ZM3.125 4.1958C3.125 3.98834 3.18609 3.78554 3.30055 3.61304C3.41501 3.44054 3.5777 3.30609 3.76804 3.2267C3.95838 3.14731 4.16782 3.12653 4.36989 3.16701C4.57195 3.20748 4.75756 3.30739 4.90324 3.45408C5.04892 3.60078 5.14813 3.78769 5.18832 3.99116C5.22851 4.19464 5.20788 4.40555 5.12904 4.59722C5.0502 4.78889 4.91669 4.95271 4.74539 5.06798C4.57408 5.18324 4.37269 5.24476 4.16667 5.24476C3.8904 5.24476 3.62545 5.13424 3.4301 4.93752C3.23475 4.74081 3.125 4.474 3.125 4.1958Z" fill="#626D6C"/>
</svg>
