<svg width="25" height="25" viewBox="0 0 25 25" fill="none" xmlns="http://www.w3.org/2000/svg">
<g clip-path="url(#clip0_95_276)">
<path className="nav-icon" d="M19.7917 1.04166H5.20833C3.8275 1.04331 2.50371 1.59258 1.52731 2.56897C0.550919 3.54536 0.00165402 4.86916 0 6.24999L0 14.5833C0.00165402 15.9642 0.550919 17.288 1.52731 18.2644C2.50371 19.2407 3.8275 19.79 5.20833 19.7917H11.4583V21.875H7.29166C7.0154 21.875 6.75045 21.9847 6.5551 22.1801C6.35975 22.3754 6.25 22.6404 6.25 22.9167C6.25 23.1929 6.35975 23.4579 6.5551 23.6532C6.75045 23.8486 7.0154 23.9583 7.29166 23.9583H17.7083C17.9846 23.9583 18.2495 23.8486 18.4449 23.6532C18.6402 23.4579 18.75 23.1929 18.75 22.9167C18.75 22.6404 18.6402 22.3754 18.4449 22.1801C18.2495 21.9847 17.9846 21.875 17.7083 21.875H13.5417V19.7917H19.7917C21.1725 19.79 22.4963 19.2407 23.4727 18.2644C24.4491 17.288 24.9983 15.9642 25 14.5833V6.24999C24.9983 4.86916 24.4491 3.54536 23.4727 2.56897C22.4963 1.59258 21.1725 1.04331 19.7917 1.04166V1.04166ZM22.9167 14.5833C22.9167 15.4121 22.5874 16.207 22.0014 16.793C21.4153 17.3791 20.6205 17.7083 19.7917 17.7083H5.20833C4.37953 17.7083 3.58467 17.3791 2.99862 16.793C2.41257 16.207 2.08333 15.4121 2.08333 14.5833V6.24999C2.08333 5.42119 2.41257 4.62633 2.99862 4.04028C3.58467 3.45423 4.37953 3.12499 5.20833 3.12499H19.7917C20.6205 3.12499 21.4153 3.45423 22.0014 4.04028C22.5874 4.62633 22.9167 5.42119 22.9167 6.24999V14.5833ZM20.8333 10.4167C20.8333 10.6929 20.7236 10.9579 20.5282 11.1532C20.3329 11.3486 20.0679 11.4583 19.7917 11.4583H16.7031L14.9323 14.1198C14.8368 14.2628 14.7075 14.3801 14.5557 14.4609C14.4039 14.5418 14.2345 14.5839 14.0625 14.5833C14.0406 14.5833 14.0187 14.5833 13.9979 14.5833C13.8157 14.5721 13.6396 14.5132 13.4873 14.4124C13.335 14.3117 13.2118 14.1727 13.1302 14.0094L10.8083 9.36249L9.72083 10.9948C9.62568 11.1374 9.49679 11.2543 9.3456 11.3352C9.19442 11.4161 9.02561 11.4584 8.85416 11.4583H5.20833C4.93206 11.4583 4.66711 11.3486 4.47176 11.1532C4.27641 10.9579 4.16667 10.6929 4.16667 10.4167C4.16667 10.1404 4.27641 9.87544 4.47176 9.68009C4.66711 9.48474 4.93206 9.37499 5.20833 9.37499H8.29687L10.0677 6.71353C10.168 6.55995 10.3075 6.43598 10.4717 6.35448C10.636 6.27297 10.8191 6.23689 11.0021 6.24999C11.1843 6.26122 11.3604 6.32015 11.5127 6.42089C11.665 6.52162 11.7881 6.66062 11.8698 6.82395L14.1917 11.4687L15.2792 9.83645C15.3746 9.69422 15.5035 9.57769 15.6547 9.4972C15.8059 9.41671 15.9746 9.37474 16.1458 9.37499H19.7917C20.0679 9.37499 20.3329 9.48474 20.5282 9.68009C20.7236 9.87544 20.8333 10.1404 20.8333 10.4167Z" fill="#626D6C"/>
</g>
<defs>
<clipPath id="clip0_95_276">
<rect width="25" height="25" fill="white"/>
</clipPath>
</defs>
</svg>
