<svg width="30" height="30" viewBox="0 0 30 30" fill="none" xmlns="http://www.w3.org/2000/svg">
<g clip-path="url(#clip0_427_43)">
<path d="M22.943 11.7031H5.58015C4.55448 11.7031 3.71985 12.5322 3.71985 13.5511V14.783C3.71985 19.1787 6.16428 23.1654 10.0982 25.1871C10.4021 25.3423 10.7766 25.2253 10.9341 24.9222C11.0904 24.6204 10.9725 24.2483 10.6674 24.0918C7.14774 22.2833 4.96003 18.7167 4.96003 14.783V13.551C4.96003 13.211 5.23785 12.935 5.58015 12.935H22.943C23.2853 12.935 23.5631 13.211 23.5631 13.551V14.783C23.5631 18.7167 21.3754 22.2833 17.8545 24.0906C17.5494 24.247 17.4315 24.6191 17.5878 24.9209C17.6982 25.1328 17.9152 25.2548 18.1397 25.2548C18.2364 25.2548 18.3332 25.2326 18.4237 25.1858C22.3588 23.1653 24.8033 19.1799 24.8033 14.7829V13.551C24.8033 12.5322 23.9686 11.7031 22.943 11.7031Z" fill="white"/>
<path d="M28.478 24.4023C28.3813 24.1719 28.1556 24.0216 27.905 24.0216H0.620657C0.370156 24.0216 0.14442 24.1719 0.047684 24.4023C-0.0490516 24.6326 0.00425761 24.8975 0.181626 25.0737L1.57191 26.456C2.39294 27.2703 3.4818 27.7188 4.64141 27.7188H23.8819C25.0415 27.7188 26.1316 27.2704 26.9539 26.456L28.3441 25.0737C28.5214 24.8975 28.5748 24.6326 28.478 24.4023ZM26.0758 25.585C25.4904 26.1665 24.7103 26.4868 23.8831 26.4868H4.64141C3.81421 26.4868 3.03411 26.1665 2.44875 25.585L2.1164 25.2548H26.4081L26.0758 25.585Z" fill="white"/>
<path d="M28.5648 14.6117C26.8943 13.5448 24.2254 14.7029 23.9264 14.8372C23.6151 14.9788 23.4762 15.3435 23.6189 15.654C23.7615 15.9644 24.1274 16.1012 24.4411 15.9595C25.0389 15.6897 26.9562 15.0503 27.8938 15.6503C28.3168 15.9201 28.5238 16.4437 28.5238 17.2469C28.5238 19.7133 23.5159 21.2041 21.5824 21.5712L21.1434 21.6574C20.8073 21.7227 20.589 22.0467 20.6548 22.3806C20.7131 22.6738 20.9722 22.877 21.2624 22.877C21.3021 22.877 21.3418 22.8733 21.3827 22.8647L21.818 22.7797C22.1429 22.7181 29.764 21.2336 29.764 17.2469C29.7641 16.0076 29.3598 15.1218 28.5648 14.6117Z" fill="white"/>
<path d="M19.0897 6.54355C20.098 5.29185 20.098 3.33179 19.0897 2.08008C18.8751 1.81397 18.487 1.76962 18.2179 1.98399C17.95 2.19714 17.9066 2.58394 18.1211 2.85005C18.7599 3.64219 18.7599 4.98139 18.1199 5.77601C17.1104 7.02772 17.1104 8.98778 18.1199 10.2395C18.2427 10.3922 18.4225 10.4711 18.6048 10.4711C18.74 10.4711 18.8776 10.4268 18.9918 10.3356C19.2597 10.1224 19.3031 9.73436 19.0885 9.46952C18.4486 8.67732 18.4486 7.33818 19.0897 6.54355Z" fill="white"/>
<path d="M15.3642 6.54353C16.3737 5.29183 16.3737 3.33177 15.3642 2.08006C15.1509 1.81395 14.7602 1.77081 14.4923 1.98397C14.2245 2.19712 14.181 2.58519 14.3956 2.85003C15.0356 3.64217 15.0356 4.98137 14.3944 5.77599C13.3861 7.0277 13.3861 8.98776 14.3944 10.2395C14.5172 10.3922 14.697 10.4711 14.8793 10.4711C15.0145 10.4711 15.1509 10.4267 15.2662 10.3356C15.5341 10.1224 15.5775 9.73561 15.363 9.4695C14.7242 8.6773 14.7242 7.33816 15.3642 6.54353Z" fill="white"/>
<path d="M11.6486 6.54477C12.6568 5.29307 12.6568 3.33301 11.6486 2.0813C11.4353 1.81519 11.0458 1.77084 10.7767 1.98521C10.5101 2.19709 10.4667 2.58516 10.68 2.85006C11.3187 3.6422 11.3187 4.98139 10.6788 5.77602C9.66925 7.02773 9.66925 8.98778 10.6788 10.2395C10.8015 10.3922 10.9813 10.4711 11.1637 10.4711C11.2988 10.4711 11.4365 10.4268 11.5506 10.3369C11.8185 10.1237 11.8619 9.73563 11.6473 9.4708C11.0074 8.67733 11.0074 7.3394 11.6486 6.54477Z" fill="white"/>
</g>
<defs>
<clipPath id="clip0_427_43">
<rect width="29.7641" height="29.5668" fill="white"/>
</clipPath>
</defs>
</svg>
