<svg width="37" height="38" viewBox="0 0 37 38" fill="none" xmlns="http://www.w3.org/2000/svg">
<path d="M17.9995 7.2666C15.5136 7.2666 13.0834 7.95475 11.0164 9.24402C8.94944 10.5333 7.33841 12.3658 6.38708 14.5098C5.43574 16.6538 5.18683 19.0129 5.67182 21.289C6.1568 23.565 7.35391 25.6557 9.11174 27.2966C10.8696 28.9375 13.1092 30.055 15.5474 30.5078C17.9856 30.9605 20.5128 30.7281 22.8096 29.8401C25.1063 28.952 27.0693 27.4481 28.4505 25.5186C29.8316 23.5891 30.5688 21.3205 30.5688 18.9999C30.565 15.8891 29.2395 12.9068 26.8831 10.7071C24.5268 8.50745 21.3319 7.27013 17.9995 7.2666V7.2666ZM17.9995 29.6666C15.7396 29.6666 13.5304 29.041 11.6513 27.8689C9.77218 26.6968 8.30761 25.0309 7.44276 23.0819C6.57791 21.1328 6.35162 18.9881 6.79252 16.919C7.23342 14.8498 8.32169 12.9492 9.91973 11.4575C11.5178 9.9657 13.5538 8.9498 15.7703 8.53822C17.9869 8.12665 20.2844 8.33788 22.3723 9.14522C24.4602 9.95255 26.2448 11.3197 27.5004 13.0738C28.7559 14.828 29.4261 16.8902 29.4261 18.9999C29.4226 21.8279 28.2176 24.5391 26.0755 26.5388C23.9334 28.5385 21.029 29.6633 17.9995 29.6666V29.6666Z" fill="white"/>
<path d="M18.5708 17.4979V12.5997C18.5708 12.4583 18.5106 12.3226 18.4035 12.2226C18.2963 12.1226 18.151 12.0664 17.9995 12.0664C17.848 12.0664 17.7027 12.1226 17.5955 12.2226C17.4884 12.3226 17.4282 12.4583 17.4282 12.5997V17.4979C17.1448 17.5895 16.8924 17.7496 16.6968 17.9617C16.5011 18.1739 16.3691 18.4307 16.3142 18.7059C16.2593 18.9811 16.2835 19.265 16.3842 19.5287C16.4849 19.7924 16.6587 20.0265 16.8877 20.2072L12.9422 26.187C12.8723 26.3069 12.8543 26.4472 12.8919 26.579C12.9295 26.7109 13.0198 26.8243 13.1442 26.8959C13.2686 26.9675 13.4177 26.9919 13.5608 26.964C13.7039 26.9361 13.8301 26.8581 13.9134 26.7459L17.9698 20.5971C17.9795 20.5971 17.9881 20.5998 17.9972 20.5998C18.401 20.6005 18.7921 20.4678 19.1012 20.2251C19.4102 19.9825 19.6173 19.6455 19.6857 19.274C19.7541 18.9025 19.6795 18.5203 19.475 18.1953C19.2706 17.8702 18.9494 17.6231 18.5685 17.4979H18.5708ZM17.9995 19.5331C17.8865 19.5331 17.7761 19.5018 17.6821 19.4432C17.5881 19.3846 17.5149 19.3013 17.4717 19.2039C17.4284 19.1064 17.4171 18.9992 17.4392 18.8957C17.4612 18.7923 17.5156 18.6972 17.5955 18.6226C17.6754 18.5481 17.7772 18.4973 17.888 18.4767C17.9989 18.4561 18.1137 18.4667 18.2181 18.507C18.3225 18.5474 18.4118 18.6158 18.4745 18.7035C18.5373 18.7912 18.5708 18.8943 18.5708 18.9998C18.5708 19.1412 18.5106 19.2769 18.4035 19.3769C18.2963 19.4769 18.151 19.5331 17.9995 19.5331Z" fill="white"/>
<path d="M17.9996 10.4665C18.3151 10.4665 18.571 10.2278 18.571 9.93321C18.571 9.63867 18.3151 9.3999 17.9996 9.3999C17.684 9.3999 17.4282 9.63867 17.4282 9.93321C17.4282 10.2278 17.684 10.4665 17.9996 10.4665Z" fill="white"/>
<path d="M27.7122 19.5334C28.0277 19.5334 28.2835 19.2946 28.2835 19.0001C28.2835 18.7056 28.0277 18.4668 27.7122 18.4668C27.3967 18.4668 27.1409 18.7056 27.1409 19.0001C27.1409 19.2946 27.3967 19.5334 27.7122 19.5334Z" fill="white"/>
<path d="M17.9996 28.6001C18.3151 28.6001 18.571 28.3613 18.571 28.0667C18.571 27.7721 18.3151 27.5333 17.9996 27.5333C17.684 27.5333 17.4282 27.7721 17.4282 28.0667C17.4282 28.3613 17.684 28.6001 17.9996 28.6001Z" fill="white"/>
<path d="M8.28701 19.5334C8.60253 19.5334 8.85831 19.2946 8.85831 19.0001C8.85831 18.7056 8.60253 18.4668 8.28701 18.4668C7.97148 18.4668 7.7157 18.7056 7.7157 19.0001C7.7157 19.2946 7.97148 19.5334 8.28701 19.5334Z" fill="white"/>
<path d="M4.51625 13.1973C3.10227 16.0534 2.7732 19.274 3.58332 22.328C4.39344 25.3821 6.29436 28.0872 8.9726 29.9973L7.82995 32.8363C7.74928 33.0338 7.71172 33.2444 7.71947 33.4557C7.72722 33.667 7.78013 33.8747 7.87508 34.0667C8.01271 34.3438 8.23194 34.5788 8.5072 34.744C8.78246 34.9093 9.1024 34.9981 9.42966 35C9.77828 34.9992 10.1184 34.8994 10.4048 34.7138C10.6911 34.5283 10.9102 34.2657 11.0328 33.9611L11.9584 31.6635C13.859 32.4567 15.9176 32.8667 17.9996 32.8667C20.0815 32.8667 22.1401 32.4567 24.0408 31.6635L24.9652 33.9568C25.0874 34.2623 25.3063 34.5257 25.5929 34.7121C25.8795 34.8985 26.2202 34.9989 26.5695 35C26.7731 35.0008 26.9751 34.9664 27.1654 34.8987C27.377 34.826 27.5712 34.7149 27.7366 34.5718C27.902 34.4286 28.0354 34.2564 28.1291 34.0649C28.2228 33.8734 28.275 33.6664 28.2825 33.456C28.2901 33.2456 28.2529 33.0359 28.1732 32.8389L27.0305 29.9989C29.7089 28.0889 31.6099 25.3837 32.42 22.3297C33.2301 19.2756 32.901 16.0549 31.4869 13.1989L32.9963 11.7941C33.639 11.194 34 10.3803 34 9.53173C34 8.68321 33.639 7.86942 32.9963 7.26933L30.5688 5.0016C29.9259 4.40153 29.054 4.06442 28.1449 4.06442C27.2358 4.06442 26.3639 4.40153 25.7211 5.0016L24.2156 6.41333C23.4999 6.10311 22.7586 5.84718 21.9989 5.648V4.6C21.9989 4.17565 21.8183 3.76869 21.4968 3.46863C21.1754 3.16857 20.7395 3 20.2849 3H15.7143C15.2597 3 14.8237 3.16857 14.5023 3.46863C14.1809 3.76869 14.0003 4.17565 14.0003 4.6V5.648C13.2406 5.84718 12.4993 6.10311 11.7835 6.41333L10.2792 5.0016C9.96089 4.70431 9.58294 4.46849 9.16695 4.30759C8.75096 4.1467 8.30508 4.06388 7.8548 4.06388C7.40452 4.06388 6.95865 4.1467 6.54266 4.30759C6.12667 4.46849 5.74871 4.70431 5.43037 5.0016L3.00395 7.26666C2.36113 7.86678 2 8.68068 2 9.52933C2 10.378 2.36113 11.1919 3.00395 11.792L4.51625 13.1973ZM9.96557 33.5883C9.92573 33.6864 9.85576 33.7714 9.76442 33.8326C9.67308 33.8938 9.56443 33.9284 9.45208 33.9322C9.33973 33.9361 9.22867 33.9088 9.13281 33.854C9.03695 33.7992 8.96056 33.7192 8.91318 33.624C8.88163 33.56 8.86412 33.4907 8.86166 33.4203C8.85921 33.3498 8.87187 33.2797 8.8989 33.2139L9.93643 30.6352C10.2598 30.8309 10.59 31.0192 10.93 31.192L9.96557 33.5883ZM27.1054 33.2149C27.1322 33.2806 27.1446 33.3506 27.1421 33.4209C27.1395 33.4911 27.122 33.5601 27.0905 33.624C27.0589 33.6883 27.0135 33.746 26.9572 33.7935C26.901 33.841 26.8349 33.8773 26.7632 33.9003C26.6221 33.9452 26.4679 33.9376 26.3327 33.879C26.1975 33.8204 26.0917 33.7152 26.0376 33.5856L25.072 31.192C25.412 31.0192 25.7422 30.8309 26.0656 30.6352L27.1054 33.2149ZM17.9996 31.8C15.2876 31.8 12.6366 31.0493 10.3817 29.6428C8.12677 28.2363 6.36929 26.2372 5.33147 23.8983C4.29365 21.5594 4.02211 18.9858 4.55119 16.5028C5.08026 14.0199 6.38619 11.7391 8.30383 9.94903C10.2215 8.15892 12.6647 6.93984 15.3245 6.44595C17.9844 5.95206 20.7414 6.20554 23.2469 7.17434C25.7524 8.14314 27.8939 9.78375 29.4006 11.8887C30.9072 13.9936 31.7114 16.4684 31.7114 19C31.7072 22.3936 30.2612 25.647 27.6906 28.0466C25.1201 30.4462 21.6349 31.796 17.9996 31.8ZM26.5278 5.75573C26.9563 5.35579 27.5375 5.13112 28.1435 5.13112C28.7495 5.13112 29.3306 5.35579 29.7592 5.75573L32.1873 8.0224C32.6156 8.42244 32.8562 8.96484 32.8562 9.5304C32.8562 10.096 32.6156 10.6384 32.1873 11.0384L30.9378 12.2011C29.6009 9.9944 27.6456 8.16913 25.2817 6.92107L26.5278 5.75573ZM15.1429 4.6C15.1429 4.45855 15.2031 4.3229 15.3103 4.22288C15.4174 4.12286 15.5627 4.06667 15.7143 4.06667H20.2849C20.4364 4.06667 20.5817 4.12286 20.6889 4.22288C20.796 4.3229 20.8562 4.45855 20.8562 4.6V5.39307C18.9699 5.04676 17.0293 5.04676 15.1429 5.39307V4.6ZM3.8118 8.0224L6.23994 5.75573C6.66848 5.35596 7.24953 5.13139 7.85537 5.13139C8.46121 5.13139 9.04226 5.35596 9.4708 5.75573L10.7163 6.92213C8.35242 8.1702 6.39713 9.99546 5.06015 12.2021L3.8118 11.0389C3.38337 10.6389 3.1427 10.0963 3.1427 9.53066C3.1427 8.96498 3.38337 8.42246 3.8118 8.0224V8.0224Z" fill="white"/>
</svg>
