<svg width="22" height="21" viewBox="0 0 22 21" fill="none" xmlns="http://www.w3.org/2000/svg">
<path d="M6.87598 6.875C6.11658 6.875 5.50098 7.49059 5.50098 8.25C5.50098 9.00941 6.11658 9.625 6.87598 9.625C7.63539 9.625 8.25098 9.00941 8.25098 8.25C8.25098 7.49059 7.63539 6.875 6.87598 6.875Z" fill="#88C627"/>
<path d="M9.62451 8.25C9.62451 7.49059 10.2401 6.875 10.9995 6.875C11.7589 6.875 12.3745 7.49059 12.3745 8.25C12.3745 9.00941 11.7589 9.625 10.9995 9.625C10.2401 9.625 9.62451 9.00941 9.62451 8.25Z" fill="#88C627"/>
<path d="M15.125 6.875C14.3656 6.875 13.75 7.49059 13.75 8.25C13.75 9.00941 14.3656 9.625 15.125 9.625C15.8844 9.625 16.5 9.00941 16.5 8.25C16.5 7.49059 15.8844 6.875 15.125 6.875Z" fill="#88C627"/>
<path fill-rule="evenodd" clip-rule="evenodd" d="M3.4375 0C1.53902 0 0 1.53902 0 3.4375V13.0625C0 14.961 1.53902 16.5 3.4375 16.5H3.44583L3.45222 19.7164C3.45278 19.9975 3.62444 20.25 3.88566 20.3539C4.14688 20.4577 4.44503 20.3921 4.63851 20.1882L8.13711 16.5H18.5625C20.461 16.5 22 14.961 22 13.0625V3.4375C22 1.53902 20.461 0 18.5625 0H3.4375ZM1.375 3.4375C1.375 2.29842 2.29842 1.375 3.4375 1.375H18.5625C19.7016 1.375 20.625 2.29842 20.625 3.4375V13.0625C20.625 14.2016 19.7016 15.125 18.5625 15.125H7.84163C7.65298 15.125 7.47264 15.2025 7.34284 15.3394L4.8238 17.9949L4.81946 15.8111C4.81871 15.432 4.51112 15.125 4.13196 15.125H3.4375C2.29842 15.125 1.375 14.2016 1.375 13.0625V3.4375Z" fill="#88C627"/>
</svg>
