<svg width="20" height="22" viewBox="0 0 20 22" fill="none" xmlns="http://www.w3.org/2000/svg">
<path d="M16.2889 4.23309L14.9407 20.2156H5.05886L3.71074 4.23309L2.00342 4.38873L3.37537 20.6617C3.41389 21.0277 3.58025 21.3661 3.84283 21.6129C4.10541 21.8596 4.44593 21.9974 4.79972 22H15.1951C15.5512 21.9976 15.8939 21.8586 16.1575 21.6097C16.4212 21.3607 16.5874 21.0193 16.6242 20.6508L17.9952 4.3927L16.2889 4.23309Z" fill="#86C129"/>
<path d="M13.1431 0H6.85496C6.47593 0 6.11242 0.156668 5.84441 0.435539C5.5764 0.71441 5.42584 1.09264 5.42584 1.48702V4.31038H7.14077V1.78443H12.8572V4.31038H14.5722V1.48702C14.5722 1.29174 14.5352 1.09838 14.4634 0.917964C14.3916 0.73755 14.2863 0.573622 14.1536 0.435539C14.0209 0.297456 13.8633 0.187923 13.69 0.113193C13.5166 0.038463 13.3307 0 13.1431 0V0Z" fill="#86C129"/>
<path d="M19.1425 3.41913H0V5.20355H20V3.41913H19.1425Z" fill="#86C129"/>
</svg>
