<svg width="22" height="17" viewBox="0 0 22 17" fill="none" xmlns="http://www.w3.org/2000/svg">
<path d="M21.9563 7.81756C21.0938 5.58643 19.5964 3.65696 17.6492 2.26759C15.702 0.878232 13.3904 0.0898894 11 0C8.60964 0.0898894 6.29802 0.878232 4.35083 2.26759C2.40363 3.65696 0.906232 5.58643 0.0436893 7.81756C-0.0145631 7.97868 -0.0145631 8.15511 0.0436893 8.31624C0.906232 10.5474 2.40363 12.4768 4.35083 13.8662C6.29802 15.2556 8.60964 16.0439 11 16.1338C13.3904 16.0439 15.702 15.2556 17.6492 13.8662C19.5964 12.4768 21.0938 10.5474 21.9563 8.31624C22.0146 8.15511 22.0146 7.97868 21.9563 7.81756V7.81756ZM11 14.6671C7.11322 14.6671 3.00644 11.785 1.51773 8.0669C3.00644 4.34879 7.11322 1.46671 11 1.46671C14.8868 1.46671 18.9936 4.34879 20.4823 8.0669C18.9936 11.785 14.8868 14.6671 11 14.6671Z" fill="#86C129"/>
<path d="M10.9988 3.66602C10.1285 3.66602 9.27778 3.92408 8.55418 4.40757C7.83058 4.89106 7.26661 5.57827 6.93357 6.38229C6.60054 7.1863 6.5134 8.07102 6.68318 8.92456C6.85296 9.7781 7.27203 10.5621 7.8874 11.1775C8.50277 11.7929 9.2868 12.2119 10.1403 12.3817C10.9939 12.5515 11.8786 12.4644 12.6826 12.1313C13.4866 11.7983 14.1738 11.2343 14.6573 10.5107C15.1408 9.78712 15.3989 8.9364 15.3989 8.06614C15.3989 6.89915 14.9353 5.77997 14.1101 4.95478C13.2849 4.1296 12.1657 3.66602 10.9988 3.66602ZM10.9988 10.9996C10.4186 10.9996 9.85144 10.8275 9.36904 10.5052C8.88664 10.1829 8.51066 9.72472 8.28864 9.18871C8.06661 8.6527 8.00852 8.06289 8.12171 7.49386C8.23489 6.92483 8.51427 6.40215 8.92452 5.9919C9.33477 5.58166 9.85745 5.30227 10.4265 5.18909C10.9955 5.0759 11.5853 5.13399 12.1213 5.35602C12.6573 5.57804 13.1155 5.95402 13.4378 6.43642C13.7601 6.91882 13.9322 7.48597 13.9322 8.06614C13.9322 8.84413 13.6231 9.59026 13.073 10.1404C12.5229 10.6905 11.7767 10.9996 10.9988 10.9996Z" fill="#86C129"/>
</svg>
