<svg width="48" height="61" viewBox="0 0 48 61" fill="none" xmlns="http://www.w3.org/2000/svg">
<path d="M38.6421 24.5698H38.5653C37.5164 24.5639 36.5029 24.9494 35.7227 25.6506C35.0911 23.9027 33.486 22.6463 31.6061 22.6463C30.4539 22.6544 29.3533 23.1274 28.5551 23.9589C27.8211 22.4729 26.3485 21.4648 24.6555 21.4648H24.5737C23.6663 21.4509 22.7809 21.746 22.0631 22.3013V11.7075C22.0631 9.14748 20.0699 7.06494 17.6455 7.06494C15.2238 7.06494 13.241 9.14613 13.2397 11.7044L13.2195 32.723L12.0299 31.2783C10.9869 29.9796 9.45148 29.1733 7.7903 29.0516C6.16325 28.9402 4.56272 29.5062 3.36782 30.6166L2.33284 31.4742C1.99907 31.7509 1.90384 32.2225 2.10374 32.6071L12.1665 51.9496C14.0065 55.4845 17.5072 57.6896 21.3026 57.6896H32.6429V57.6798C38.3928 57.6798 43.0547 52.6904 43.0605 46.564C43.0628 43.823 43.0524 41.78 43.0542 40.1242C43.0601 35.694 43.0556 34.0594 43.0444 29.1787C43.0385 26.6245 41.0597 24.5698 38.6421 24.5698V24.5698ZM41.2008 40.1179C41.199 41.7741 41.1963 43.8252 41.1936 46.5663C41.1887 51.6797 37.3286 55.8492 32.589 55.8492H21.303C18.1963 55.8492 15.3209 54.0232 13.7994 51.0997L4.07892 32.4211L4.55867 32.0208C4.5708 32.011 4.58248 31.9993 4.59416 31.989C5.41936 31.2123 6.52981 30.8134 7.66047 30.8875C8.81629 30.976 9.88272 31.5411 10.6055 32.4471L13.4216 35.8737C13.6678 36.1742 14.0766 36.287 14.4422 36.1563C14.8079 36.0256 15.0522 35.6788 15.0522 35.2907L15.0689 11.7053C15.0698 10.1609 16.2377 8.90446 17.6464 8.90446C19.0552 8.90446 20.2231 10.1622 20.2231 11.7075V25.9282C20.2231 25.9776 20.2209 26.0275 20.2209 26.0778C20.2209 26.0993 20.2231 26.1214 20.2231 26.1425V32.2225C20.2231 32.7306 20.635 33.1425 21.1431 33.1425C21.6511 33.1425 22.0631 32.7306 22.0631 32.2225V25.9592C22.0631 24.4692 23.2014 23.3048 24.5737 23.3048H24.6555C26.0651 23.3048 27.238 24.5334 27.238 26.0787V31.6422C27.238 32.1502 27.6499 32.5621 28.158 32.5621C28.666 32.5621 29.0779 32.1502 29.0779 31.6422V27.2772C29.0779 25.7314 30.1947 24.4741 31.6119 24.4741C33.0211 24.4741 34.1379 25.731 34.1379 27.2772V31.3951C34.1379 31.9032 34.5498 32.3151 35.0578 32.3151C35.5659 32.3151 35.9778 31.9032 35.9778 31.3951V29.1652C35.9778 27.6195 37.1556 26.4098 38.5653 26.4098H38.6421C40.0481 26.4098 41.1941 27.6401 41.1976 29.1809C41.2089 34.058 41.2066 35.6909 41.2008 40.1179Z" fill="white"/>
<path d="M10.3173 12.1046C10.8254 12.1046 11.2373 11.6927 11.2373 11.1846C11.2521 7.67404 14.1024 4.83637 17.6125 4.83637C21.1231 4.83637 23.9729 7.67404 23.9877 11.1846C23.9877 11.6927 24.3996 12.1046 24.9077 12.1046C25.4157 12.1046 25.8277 11.6927 25.8277 11.1846C25.8106 6.65927 22.1379 3 17.6125 3C13.0876 3 9.41441 6.65927 9.39734 11.1846C9.39734 11.6927 9.80927 12.1046 10.3173 12.1046Z" fill="white"/>
</svg>
