<svg width="16" height="16" viewBox="0 0 16 16" fill="none" xmlns="http://www.w3.org/2000/svg">
<circle cx="7.65886" cy="7.65886" r="7.65886" fill="#FFB039"/>
<path d="M10.745 9.68973L7.66541 6.61017L9.8086 4.46691C9.88424 4.39134 9.88424 4.26885 9.8086 4.19335C9.16932 3.54991 8.29911 3.18909 7.39206 3.19117H7.39078C6.56581 3.18936 5.76841 3.48819 5.14775 4.03174L5.03568 3.9196C4.98687 3.87005 4.91534 3.85049 4.84818 3.8683C4.78095 3.88605 4.72851 3.93849 4.71069 4.00565C4.69288 4.07281 4.71244 4.14448 4.76199 4.19315L4.87083 4.302C3.63422 5.65061 3.68007 7.73417 4.97477 9.02712C5.05033 9.10268 5.17289 9.10268 5.24846 9.02712L7.39172 6.88386L10.3612 9.85323C10.3386 9.85504 10.3151 9.85625 10.2899 9.85625C10.044 9.85625 9.92908 9.76489 9.78346 9.64926C9.6203 9.51957 9.41726 9.35822 9.03634 9.35822C8.65549 9.35822 8.45246 9.51957 8.2893 9.64926C8.14374 9.76489 8.02885 9.85625 7.78306 9.85625C7.5372 9.85625 7.42231 9.76489 7.27676 9.64926C7.11359 9.51957 6.91056 9.35822 6.52964 9.35822C6.14879 9.35822 5.94576 9.51957 5.78259 9.64926C5.63711 9.76489 5.52215 9.85625 5.27636 9.85625C5.03057 9.85625 4.91561 9.76489 4.77006 9.64926C4.60689 9.51957 4.40386 9.35822 4.02301 9.35822C3.91611 9.35822 3.82959 9.44488 3.82959 9.55164C3.82959 9.6586 3.91611 9.74512 4.02301 9.74512C4.2688 9.74512 4.38376 9.83649 4.52931 9.95212C4.69247 10.0818 4.89551 10.2432 5.27636 10.2432C5.65714 10.2432 5.86018 10.0818 6.02334 9.95212C6.16889 9.83649 6.28385 9.74512 6.52964 9.74512C6.7755 9.74512 6.89046 9.83649 7.03601 9.95212C7.19918 10.0818 7.40221 10.2432 7.78306 10.2432C8.16385 10.2432 8.36688 10.0818 8.53004 9.95212C8.67559 9.83649 8.79055 9.74512 9.03634 9.74512C9.2822 9.74512 9.39716 9.83649 9.54278 9.95212C9.70595 10.0818 9.90898 10.2432 10.2899 10.2432C10.6707 10.2432 10.8738 10.0818 11.037 9.95212C11.1825 9.83649 11.2976 9.74512 11.5434 9.74512C11.6503 9.74512 11.7368 9.6586 11.7368 9.55164C11.7368 9.44488 11.6503 9.35822 11.5434 9.35822C11.1625 9.35822 10.9594 9.51957 10.7963 9.64926C10.7789 9.66311 10.7618 9.67662 10.745 9.68973V9.68973ZM5.38567 4.54039C6.48003 4.21399 7.66514 4.45535 8.5447 5.1837L6.02872 7.69955C5.29982 6.82013 5.05854 5.63474 5.38561 4.54039H5.38567ZM7.39105 3.57814H7.39212C8.12956 3.57633 8.84198 3.84538 9.39414 4.33427L8.81919 4.90921C7.96928 4.19053 6.8469 3.88081 5.74871 4.06192C6.23773 3.74507 6.80817 3.57707 7.39098 3.57814H7.39105ZM5.11588 8.61245C4.1892 7.56025 4.1055 6.00975 4.91332 4.86383C4.71775 5.97405 5.02586 7.11378 5.75416 7.97418L5.11588 8.61245Z" fill="#FFB039"/>
<path d="M10.2897 11.4883C10.6706 11.4883 10.8737 11.327 11.0368 11.1972C11.1823 11.0816 11.2973 10.9902 11.5431 10.9902C11.65 10.9902 11.7366 10.9036 11.7366 10.7968C11.7366 10.69 11.65 10.6033 11.5431 10.6033C11.1624 10.6033 10.9592 10.7647 10.796 10.8944C10.6505 11.01 10.5356 11.1014 10.2897 11.1014C10.0438 11.1014 9.92883 11.01 9.78321 10.8944C9.62012 10.7647 9.41702 10.6033 9.03617 10.6033C8.65531 10.6033 8.45228 10.7647 8.28912 10.8944C8.14357 11.01 8.0286 11.1014 7.78282 11.1014C7.53703 11.1014 7.42206 11.01 7.27658 10.8944C7.11342 10.7647 6.91032 10.6033 6.52946 10.6033C6.14861 10.6033 5.94558 10.7647 5.78242 10.8944C5.63687 11.01 5.5219 11.1014 5.27611 11.1014C5.03032 11.1014 4.91536 11.01 4.76988 10.8944C4.60671 10.7647 4.40368 10.6033 4.02283 10.6033C3.91594 10.6033 3.82935 10.69 3.82935 10.7968C3.82935 10.9036 3.91594 10.9902 4.02283 10.9902C4.26862 10.9902 4.38358 11.0816 4.52913 11.1972C4.6923 11.327 4.89533 11.4883 5.27611 11.4883C5.65697 11.4883 5.86 11.327 6.02316 11.1972C6.16871 11.0816 6.28368 10.9902 6.52946 10.9902C6.77532 10.9902 6.89028 11.0816 7.03583 11.1972C7.199 11.327 7.40203 11.4883 7.78282 11.4883C8.16367 11.4883 8.3667 11.327 8.52986 11.1972C8.67542 11.0816 8.79038 10.9902 9.03617 10.9902C9.28202 10.9902 9.39698 11.0816 9.5426 11.1972C9.70583 11.327 9.90887 11.4883 10.2897 11.4883V11.4883Z" fill="#FFB039"/>
</svg>
