<svg width="17" height="13" viewBox="0 0 17 13" fill="none" xmlns="http://www.w3.org/2000/svg">
<path d="M16.9654 6.04054C16.2989 4.31657 15.1419 2.82569 13.6373 1.75214C12.1327 0.6786 10.3466 0.0694565 8.49957 0C6.65257 0.0694565 4.86641 0.6786 3.36183 1.75214C1.85726 2.82569 0.700235 4.31657 0.0337582 6.04054C-0.0112527 6.16503 -0.0112527 6.30136 0.0337582 6.42586C0.700235 8.14982 1.85726 9.64071 3.36183 10.7143C4.86641 11.7878 6.65257 12.3969 8.49957 12.4664C10.3466 12.3969 12.1327 11.7878 13.6373 10.7143C15.1419 9.64071 16.2989 8.14982 16.9654 6.42586C17.0104 6.30136 17.0104 6.16503 16.9654 6.04054V6.04054ZM8.49957 11.3331C5.49631 11.3331 2.32304 9.10614 1.17273 6.2332C2.32304 3.36026 5.49631 1.13331 8.49957 1.13331C11.5028 1.13331 14.6761 3.36026 15.8264 6.2332C14.6761 9.10614 11.5028 11.3331 8.49957 11.3331Z" fill="#474747"/>
<path d="M8.49966 2.83322C7.82722 2.83322 7.16988 3.03262 6.61076 3.40621C6.05165 3.7798 5.61587 4.3108 5.35854 4.93205C5.1012 5.55331 5.03387 6.23692 5.16506 6.89644C5.29625 7.55596 5.62006 8.16177 6.09555 8.63726C6.57104 9.11275 7.17685 9.43656 7.83637 9.56775C8.49589 9.69893 9.1795 9.6316 9.80075 9.37427C10.422 9.11694 10.953 8.68116 11.3266 8.12205C11.7002 7.56293 11.8996 6.90559 11.8996 6.23315C11.8996 5.33143 11.5414 4.46665 10.9038 3.82904C10.2662 3.19143 9.40138 2.83322 8.49966 2.83322ZM8.49966 8.49976C8.05136 8.49976 7.61314 8.36683 7.24039 8.11777C6.86765 7.86871 6.57713 7.51471 6.40558 7.10054C6.23402 6.68637 6.18914 6.23063 6.27659 5.79095C6.36405 5.35127 6.57993 4.9474 6.89692 4.63041C7.21391 4.31341 7.61778 4.09754 8.05746 4.01008C8.49714 3.92262 8.95289 3.96751 9.36706 4.13907C9.78123 4.31062 10.1352 4.60114 10.3843 4.97388C10.6333 5.34663 10.7663 5.78485 10.7663 6.23315C10.7663 6.83429 10.5275 7.41081 10.1024 7.83589C9.67733 8.26096 9.1008 8.49976 8.49966 8.49976Z" fill="#474747"/>
</svg>
