<svg width="28" height="25" viewBox="0 0 28 25" fill="none" xmlns="http://www.w3.org/2000/svg">
<path d="M18.6826 3.00036H21.3526C21.9186 2.99035 22.4685 3.1885 22.8981 3.55718C23.3276 3.92586 23.6068 4.43942 23.6826 5.00036V12.0004C23.6068 12.5613 23.3276 13.0749 22.8981 13.4435C22.4685 13.8122 21.9186 14.0104 21.3526 14.0004H18.6826M11.6826 16.0004V20.0004C11.6826 20.796 11.9987 21.5591 12.5613 22.1217C13.1239 22.6843 13.887 23.0004 14.6826 23.0004L18.6826 14.0004V3.00036H7.40265C6.92032 2.99491 6.45227 3.16396 6.08474 3.47636C5.71721 3.78875 5.47497 4.22346 5.40265 4.70036L4.02265 13.7004C3.97914 13.987 3.99847 14.2797 4.07931 14.5581C4.16014 14.8365 4.30055 15.0941 4.49079 15.3128C4.68103 15.5316 4.91657 15.7064 5.18108 15.8251C5.44558 15.9439 5.73274 16.0036 6.02265 16.0004H11.6826Z" stroke="#F86E6E" stroke-width="2" stroke-linecap="round" stroke-linejoin="round"/>
</svg>
