<svg width="22" height="24" viewBox="0 0 22 24" fill="none" xmlns="http://www.w3.org/2000/svg">
<path d="M9.9861 3.71442H2.99715C2.46747 3.71442 1.95949 3.93531 1.58495 4.32851C1.21041 4.72171 1 5.25501 1 5.81107V20.4855C1 21.0415 1.21041 21.5748 1.58495 21.968C1.95949 22.3612 2.46747 22.5821 2.99715 22.5821H16.9751C17.5047 22.5821 18.0127 22.3612 18.3873 21.968C18.7618 21.5748 18.9722 21.0415 18.9722 20.4855V13.1483" stroke="#86C129" stroke-width="1.5" stroke-linecap="round" stroke-linejoin="round"/>
<path d="M17.4738 2.13906C17.879 1.76399 18.405 1.56519 18.9449 1.58315C19.4848 1.60111 19.9978 1.8345 20.3795 2.23575C20.7611 2.637 20.9827 3.17592 20.9991 3.74272C21.0154 4.30951 20.8253 4.86152 20.4674 5.28628L10.9826 15.2437L6.99042 16.2876L7.98899 12.0943L17.4738 2.13906Z" stroke="#86C129" stroke-width="1.5" stroke-linecap="round" stroke-linejoin="round"/>
</svg>
