<svg width="23" height="23" viewBox="0 0 23 23" fill="none" xmlns="http://www.w3.org/2000/svg">
<path d="M18.947 0.614768L18.9601 0.636084C19.1859 0.497688 19.4674 0.48773 19.704 0.60796C21.4133 1.48371 22.475 3.21548 22.475 5.13184C22.475 6.88168 21.5876 8.48054 20.1294 9.41098L20.1178 9.41835V9.43205V19.7501C20.1178 21.2527 18.8955 22.4751 17.3928 22.4751C15.8902 22.4751 14.6678 21.2527 14.6678 19.7501V9.43127V9.41756L14.6563 9.41019C13.1981 8.48054 12.3107 6.88168 12.3107 5.13105C12.3107 3.21547 13.3724 1.4829 15.0817 0.60795L15.0703 0.585696M18.947 0.614768L18.9601 0.636052C18.7341 0.775316 18.5964 1.02029 18.5964 1.28577V4.68241V4.69934L18.5807 4.70562L17.4021 5.17705L17.3928 5.18077L17.3836 5.17705L16.205 4.70562L16.1893 4.69934V4.68241V1.28577C16.1893 1.02029 16.0516 0.775316 15.8256 0.636052L15.8387 0.614768M18.947 0.614768C18.7136 0.758553 18.5714 1.01155 18.5714 1.28577V4.68241L17.3928 5.15384L16.2143 4.68241V1.28577C16.2143 1.01155 16.0721 0.758553 15.8387 0.614768M18.947 0.614768C19.1803 0.471768 19.4711 0.461553 19.7154 0.585696C21.433 1.4657 22.5 3.20605 22.5 5.13184C22.5 6.89027 21.6082 8.49705 20.1428 9.43205L15.0703 0.585696M15.8387 0.614768L15.8256 0.636084C15.5998 0.497678 15.3183 0.487729 15.0816 0.607985L15.0703 0.585696M15.8387 0.614768C15.6053 0.471768 15.3146 0.461553 15.0703 0.585696M14.6678 2.90905V2.83857L14.6234 2.8933C14.1194 3.51448 13.8321 4.29789 13.8321 5.13105C13.8321 6.47149 14.5768 7.68612 15.7755 8.30009L15.7755 8.30009C16.0295 8.43017 16.1893 8.69185 16.1893 8.97713V19.7501C16.1893 20.4136 16.7293 20.9536 17.3928 20.9536C18.0564 20.9536 18.5964 20.4136 18.5964 19.7501V8.97713C18.5964 8.69185 18.7562 8.43017 19.0102 8.30009C20.2089 7.68613 20.9536 6.47228 20.9536 5.13184C20.9536 4.29867 20.6663 3.51527 20.1623 2.89409L20.1178 2.83935V2.90984V5.21434C20.1178 5.52543 19.9285 5.80463 19.6401 5.92106C19.6401 5.92107 19.6401 5.92108 19.6401 5.92109L17.6758 6.70677L17.6758 6.70678C17.494 6.77981 17.2925 6.77981 17.1107 6.70678L17.1106 6.70677L15.1464 5.92108C14.8572 5.80465 14.6678 5.52544 14.6678 5.21434V2.90905Z" fill="#86C129" stroke="white" stroke-width="0.05"/>
<path d="M9.01614 19.763L9.01483 19.746L8.99847 19.741C8.46106 19.5781 7.94087 19.3618 7.44337 19.0955L7.4283 19.0874L7.41531 19.0985L6.43631 19.9369L6.43629 19.9369C5.8263 20.4603 4.90453 20.424 4.33704 19.8573C4.33703 19.8573 4.33703 19.8572 4.33702 19.8572L3.14276 18.6622L3.12507 18.6799L3.14275 18.6622C2.57528 18.0947 2.53969 17.1721 3.06234 16.5621L3.9007 15.5839L3.91183 15.5709L3.90375 15.5558C3.63738 15.0583 3.42116 14.5382 3.25821 14.0007L3.25325 13.9844L3.23619 13.9831L1.95234 13.8849L1.95231 13.8849C1.15217 13.8246 0.525 13.1472 0.525 12.3439V10.6561C0.525 9.85284 1.15216 9.17543 1.95311 9.11436L1.95121 9.08943L1.95312 9.11436L3.23698 9.01614L3.25404 9.01484L3.259 8.99846C3.42194 8.46027 3.63816 7.94009 3.90453 7.44339L3.91262 7.42831L3.90149 7.41531L3.06235 6.43552L3.06233 6.43551C2.53972 5.8263 2.57525 4.90452 3.14355 4.33545L4.33625 3.14196C4.90451 2.57371 5.82707 2.53891 6.43629 3.06155L6.43631 3.06156L7.41531 3.89992L7.4283 3.91104L7.44337 3.90297C7.94087 3.63659 8.46106 3.42037 8.99847 3.25742L9.01483 3.25246L9.01614 3.23542L9.11514 1.95078C9.17621 1.15218 9.85361 0.525 10.6561 0.525H11.5C11.9199 0.525 12.2607 0.865038 12.2607 1.28571C12.2607 1.70639 11.9199 2.04643 11.5 2.04643H10.6561H10.633L10.6312 2.06951L10.4898 3.90884C10.4639 4.24053 10.2258 4.51666 9.90253 4.59121C9.14003 4.76705 8.41458 5.06748 7.74672 5.48618L7.74665 5.48622C7.46604 5.66341 7.10172 5.63683 6.84839 5.41849L6.84833 5.41844L5.44584 4.21708L5.42825 4.20202L5.41188 4.21841L4.21917 5.41269L4.20282 5.42906L4.21788 5.44663L5.41923 6.84834L5.41924 6.84836C5.63602 7.10088 5.66266 7.46526 5.48618 7.74672L5.48616 7.74675C5.06827 8.41536 4.76706 9.14079 4.59121 9.90252L4.59121 9.90254C4.51666 10.2266 4.23977 10.4647 3.90811 10.4898L3.90808 10.4898L2.06951 10.6312L2.04643 10.633V10.6561V12.3439V12.367L2.06951 12.3688L3.90808 12.5102L3.90811 12.5102C4.23974 12.5353 4.51666 12.7742 4.59121 13.0975C4.76705 13.86 5.06748 14.5854 5.48618 15.2533C5.66264 15.5347 5.63527 15.8991 5.41922 16.1517L4.21788 17.5534L4.20282 17.5709L4.21917 17.5873L5.41267 18.7816L5.42904 18.798L5.44663 18.7829L6.84834 17.5816L6.84836 17.5815C7.1017 17.364 7.46606 17.3374 7.74669 17.5138L7.74675 17.5138C8.41535 17.9317 9.14077 18.2329 9.90248 18.4088C10.2266 18.4841 10.4647 18.7603 10.4898 19.0911L10.4898 19.0911L10.6312 20.9305L10.633 20.9536H10.6561H12.3431H12.3662L12.368 20.9305C12.3999 20.5122 12.7642 20.1995 13.185 20.2306C13.6042 20.2626 13.9176 20.6285 13.8849 21.0476L13.8849 21.0477C13.8238 21.8478 13.1464 22.475 12.3439 22.475H10.6569C9.85362 22.475 9.17622 21.8478 9.11514 21.0477L9.01614 19.763Z" fill="#86C129" stroke="white" stroke-width="0.05"/>
<path d="M10.5888 6.10093L10.5888 6.10094L10.589 6.10089C11.0017 6.02717 11.3958 6.31068 11.4643 6.72542L11.4643 6.72547C11.5336 7.14008 11.2544 7.53182 10.8398 7.60105L10.8398 7.60105C8.93178 7.92129 7.54643 9.56132 7.54643 11.5001C7.54643 14.2304 10.2585 16.1344 12.8181 15.2291L12.8182 15.229C13.2121 15.0883 13.6488 15.2952 13.7896 15.6915C13.9296 16.0879 13.7226 16.5222 13.3263 16.6622L13.3263 16.6622C9.76525 17.9222 6.025 15.2668 6.025 11.5001C6.025 8.8141 7.94435 6.54363 10.5888 6.10093Z" fill="#86C129" stroke="white" stroke-width="0.05"/>
</svg>
