<svg width="24" height="22" viewBox="0 0 24 22" fill="none" xmlns="http://www.w3.org/2000/svg">
<path d="M14.2994 3.58503L14.2994 3.58502L12.4399 1.88047L12.4399 1.88046C12.245 1.70184 11.9871 1.60455 11.7149 1.60455H2.78927C2.22974 1.60455 1.75951 2.02364 1.75951 2.55683V19.2614C1.75951 19.7946 2.22974 20.2137 2.78927 20.2137H6.59076C7.0574 20.2137 7.42051 20.5585 7.42051 20.966C7.42051 21.3735 7.05736 21.7183 6.59071 21.7183H2.78927C1.29813 21.7183 0.1 20.608 0.1 19.2614V2.55683C0.1 1.21023 1.29813 0.1 2.78927 0.1H11.7149C12.4361 0.1 13.1121 0.357348 13.6196 0.82261L15.4792 2.52716C15.9864 2.99216 16.2637 3.60792 16.2637 4.26138V8.95652C16.2637 9.364 15.9006 9.7088 15.4339 9.7088C14.9673 9.7088 14.6042 9.364 14.6042 8.95652V4.26138C14.6042 4.00426 14.4946 3.76396 14.2994 3.58503Z" fill="#86C129" stroke="white" stroke-width="0.2"/>
<path d="M10.4231 21.2136L10.4231 21.2136C9.89102 20.6816 9.76632 19.8762 10.1126 19.2086L11.4327 16.6637L11.3439 16.6177L11.4327 16.6637C11.5568 16.4245 11.7163 16.2066 11.9069 16.0161L11.9069 16.0161L19.4186 8.50435C20.4425 7.48052 22.1085 7.48052 23.1324 8.50435C24.1562 9.52818 24.1562 11.1943 23.1324 12.2182L15.6207 19.7298C15.4302 19.9204 15.2123 20.0799 14.973 20.204L14.973 20.204L12.4281 21.5241L12.4742 21.6129L12.4281 21.5241C11.7603 21.8705 10.9548 21.7455 10.4231 21.2136ZM11.5483 19.9534L11.403 20.2334L11.6831 20.0882L14.2283 18.7684L14.2283 18.7684C14.3202 18.7207 14.4039 18.6594 14.4771 18.5862L21.9887 11.0745C22.3821 10.6812 22.3821 10.0414 21.9887 9.64799L21.9887 9.64799C21.5954 9.25469 20.9556 9.25464 20.5622 9.64799L20.6329 9.7187L20.5622 9.64799L13.0505 17.1597C12.9773 17.2329 12.9161 17.3166 12.8684 17.4085L11.5483 19.9534Z" fill="#86C129" stroke="white" stroke-width="0.2"/>
<path d="M11.0983 9.44474H4.24436C3.81975 9.44474 3.44253 9.01373 3.44253 8.43686C3.44253 7.85999 3.81975 7.42898 4.24436 7.42898H11.0983C11.5229 7.42898 11.9001 7.85999 11.9001 8.43686C11.9001 9.01372 11.5228 9.44474 11.0983 9.44474Z" fill="#86C129" stroke="white" stroke-width="0.2"/>
<path d="M7.49094 13.9441H4.24436C3.81975 13.9441 3.44253 13.5131 3.44253 12.9362C3.44253 12.3594 3.81975 11.9284 4.24436 11.9284H7.49094C7.91554 11.9284 8.29277 12.3594 8.29277 12.9362C8.29277 13.5131 7.9155 13.9441 7.49094 13.9441Z" fill="#86C129" stroke="white" stroke-width="0.2"/>
</svg>
