<svg width="30" height="30" viewBox="0 0 30 30" fill="none" xmlns="http://www.w3.org/2000/svg">
<path fill-rule="evenodd" clip-rule="evenodd" d="M22.8122 14.2969C19.4925 14.2969 16.7972 16.9922 16.7972 20.3128C16.7972 23.6325 19.4925 26.3278 22.8122 26.3278C26.1328 26.3278 28.8281 23.6325 28.8281 20.3128C28.8281 16.9922 26.1328 14.2969 22.8122 14.2969ZM22.8122 15.7031C25.3566 15.7031 27.4219 17.7684 27.4219 20.3128C27.4219 22.8562 25.3566 24.9216 22.8122 24.9216C20.2687 24.9216 18.2034 22.8562 18.2034 20.3128C18.2034 17.7684 20.2687 15.7031 22.8122 15.7031Z" fill="#86C129"/>
<path fill-rule="evenodd" clip-rule="evenodd" d="M23.5153 20.7553V18.0994C23.5153 17.7112 23.2003 17.3962 22.8122 17.3962C22.4241 17.3962 22.1091 17.7112 22.1091 18.0994V20.7553C22.1091 21.1434 22.4241 21.4584 22.8122 21.4584C23.2003 21.4584 23.5153 21.1434 23.5153 20.7553Z" fill="#86C129"/>
<path fill-rule="evenodd" clip-rule="evenodd" d="M22.4606 20.1459L20.6897 21.1687C20.3541 21.3628 20.2387 21.7931 20.4328 22.1287C20.6269 22.4653 21.0572 22.5806 21.3928 22.3865L23.1638 21.3637C23.5003 21.1697 23.6156 20.7393 23.4216 20.4037C23.2275 20.0672 22.7972 19.9519 22.4606 20.1459Z" fill="#86C129"/>
<path fill-rule="evenodd" clip-rule="evenodd" d="M1.90033 8.6447L12.0966 14.3569C12.1125 14.3663 12.1285 14.3747 12.1444 14.3822C12.915 14.7385 13.8038 14.7385 14.5744 14.3822C14.5903 14.3747 14.6063 14.3663 14.6222 14.3569L24.8185 8.6447C25.1569 8.45439 25.2778 8.02595 25.0885 7.68752C24.8981 7.34908 24.4697 7.22814 24.1313 7.41752L13.9613 13.1156C13.5788 13.2853 13.1447 13.2853 12.7631 13.1185C12.7575 13.1156 2.58751 7.41752 2.58751 7.41752C2.24908 7.22814 1.82064 7.34908 1.63126 7.68752C1.44095 8.02595 1.56189 8.45439 1.90033 8.6447Z" fill="#86C129"/>
<path fill-rule="evenodd" clip-rule="evenodd" d="M17.9587 23.1778C18.1978 23.1778 18.4191 23.0569 18.5494 22.8572C18.6787 22.6575 18.6984 22.4053 18.6009 22.1878C18.345 21.615 18.2034 20.9803 18.2034 20.3128C18.2034 17.7684 20.2687 15.7031 22.8122 15.7031C23.4366 15.7031 24.0319 15.8269 24.5747 16.0519C24.7913 16.1419 25.0387 16.1175 25.2347 15.9872C25.4297 15.8569 25.5469 15.6375 25.5469 15.4031V9.24749C25.5469 7.65093 24.2531 6.35718 22.6566 6.35718H4.06219C2.46563 6.35718 1.17188 7.65093 1.17188 9.24749V20.2875C1.17188 21.884 2.46563 23.1778 4.06219 23.1778H17.9587ZM16.9753 21.7715H4.06219C3.24281 21.7715 2.57812 21.1069 2.57812 20.2875C2.57812 17.355 2.57812 12.18 2.57812 9.24749C2.57812 8.42718 3.24281 7.76343 4.06219 7.76343H22.6566C23.4759 7.76343 24.1406 8.42718 24.1406 9.24749V14.4441C23.7131 14.3475 23.2687 14.2969 22.8122 14.2969C19.4925 14.2969 16.7972 16.9922 16.7972 20.3128C16.7972 20.8153 16.8591 21.3047 16.9753 21.7715Z" fill="#86C129"/>
</svg>
