<svg width="23" height="23" viewBox="0 0 23 23" fill="none" xmlns="http://www.w3.org/2000/svg">
<path d="M19.4062 1.05566H3.59375C1.61216 1.05566 0 2.66782 0 4.64941V15.0264C0 17.008 1.61216 18.6201 3.59375 18.6201H9.79297C10.2892 18.6201 10.6914 18.2179 10.6914 17.7217C10.6914 17.2255 10.2892 16.8232 9.79297 16.8232H3.59375C2.60295 16.8232 1.79688 16.0172 1.79688 15.0264V4.83979L9.60228 9.69338C10.1877 10.0574 10.8437 10.2393 11.5 10.2393C12.1561 10.2393 12.8125 10.0573 13.3977 9.69342L21.2031 4.83979V10.2646C21.2031 10.7609 21.6054 11.1631 22.1016 11.1631C22.5978 11.1631 23 10.7609 23 10.2646V4.64941C23 2.66782 21.3878 1.05566 19.4062 1.05566ZM12.4489 8.16743C11.8636 8.53143 11.1364 8.53143 10.5512 8.16743L2.54703 3.19026C2.84203 2.97805 3.20342 2.85254 3.59375 2.85254H19.4062C19.7966 2.85254 20.158 2.97805 20.453 3.19031L12.4489 8.16743ZM22.4106 17.5144C22.3118 17.474 21.7029 17.1965 21.7029 16.4953V15.1467C21.7029 13.25 20.3731 11.6407 18.5977 11.2149V10.624C18.5977 10.1278 18.1954 9.72559 17.6992 9.72559C17.203 9.72559 16.8008 10.1278 16.8008 10.624V11.2045C15.0029 11.6137 13.6506 13.2341 13.6506 15.1468V16.4953C13.6506 17.1965 13.0416 17.4741 12.9429 17.5145C12.5765 17.6366 12.3535 17.9713 12.3535 18.3582C12.3535 18.9316 12.5575 19.5575 12.899 20.0324C13.3691 20.686 14.0703 21.0459 14.8736 21.0459H16.8008C16.8008 21.5413 17.2039 21.9444 17.6992 21.9444C18.1946 21.9444 18.5977 21.5413 18.5977 21.0459H20.4799C21.2832 21.0459 21.9844 20.686 22.4545 20.0324C22.7961 19.5574 23 18.9316 23 18.3582C23 17.9713 22.7771 17.6365 22.4106 17.5144ZM20.4799 19.249H14.8736C14.5394 19.249 14.3591 19.0365 14.262 18.819C14.8568 18.3816 15.4475 17.6239 15.4475 16.4953V15.1467C15.4475 13.9252 16.4399 12.918 17.6597 12.9017C17.6654 12.9017 17.6711 12.9015 17.6768 12.9013C17.6824 12.9015 17.6881 12.9017 17.6938 12.9017C18.9136 12.918 19.906 13.9252 19.906 15.1467V16.4953C19.906 17.6239 20.4967 18.3816 21.0915 18.819C20.9945 19.0365 20.8141 19.249 20.4799 19.249Z" fill="#86C129"/>
</svg>
