<svg width="44" height="33" viewBox="0 0 44 33" fill="none" xmlns="http://www.w3.org/2000/svg">
<path d="M38.5293 0H22.7375C21.4822 0.00374911 20.2794 0.504084 19.3917 1.39173C18.5041 2.27938 18.0037 3.48221 18 4.73753V26.846C18.0037 28.1013 18.5041 29.3042 19.3917 30.1918C20.2794 31.0795 21.4822 31.5798 22.7375 31.5835H35.371C35.7896 31.5804 36.191 31.4165 36.4922 31.1256L42.8089 24.8089C43.0998 24.5078 43.2637 24.1063 43.2668 23.6877V4.73753C43.2631 3.48221 42.7628 2.27938 41.8751 1.39173C40.9875 0.504084 39.7846 0.00374911 38.5293 0Z" fill="url(#paint0_linear_82_2424)"/>
<path d="M43.267 23.6875C43.2639 24.1062 43.0999 24.5076 42.809 24.8087L36.4923 31.1254C36.1912 31.4163 35.7898 31.5803 35.3711 31.5834V25.2667C35.3711 24.8479 35.5375 24.4462 35.8336 24.15C36.1298 23.8539 36.5314 23.6875 36.9503 23.6875H43.267Z" fill="#EC970F"/>
<path d="M29.0541 20.5294C28.6353 20.5293 28.2337 20.3629 27.9376 20.0667L24.7792 16.9083C24.4916 16.6105 24.3324 16.2116 24.336 15.7975C24.3396 15.3835 24.5057 14.9874 24.7985 14.6946C25.0913 14.4018 25.4873 14.2357 25.9014 14.2321C26.3154 14.2285 26.7144 14.3877 27.0122 14.6754L29.0541 16.7173L34.2543 11.517C34.5521 11.2294 34.951 11.0702 35.3651 11.0738C35.7791 11.0774 36.1752 11.2435 36.468 11.5363C36.7608 11.8291 36.9269 12.2251 36.9305 12.6392C36.9341 13.0532 36.7749 13.4521 36.4873 13.75L30.1705 20.0667C29.8745 20.3629 29.4729 20.5293 29.0541 20.5294Z" fill="white"/>
<path fill-rule="evenodd" clip-rule="evenodd" d="M10.5147 6.22876C13.1279 6.22876 15.2464 7.71804 15.2464 11.1525C15.2464 14.587 13.128 17.3712 10.5147 17.3712C7.90156 17.3712 5.7832 14.587 5.7832 11.1525C5.7832 7.71804 7.90167 6.22876 10.5147 6.22876Z" fill="#FFECE3"/>
<path fill-rule="evenodd" clip-rule="evenodd" d="M10.5145 6.22876C13.1277 6.22876 15.2461 7.71804 15.2461 11.1525C15.2461 14.587 13.1278 17.3712 10.5145 17.3712C10.2763 17.3712 10.0423 17.3479 9.81348 17.3032C12.0942 16.858 13.8441 14.2738 13.8441 11.1525C13.8441 8.03105 12.0943 6.51665 9.81348 6.2664C10.0423 6.24127 10.2763 6.22876 10.5145 6.22876Z" fill="#FFDDCE"/>
<path fill-rule="evenodd" clip-rule="evenodd" d="M1.5062 33.0001H19.5228C20.3524 33.0001 21.029 32.3235 21.029 31.4939V23.4488C21.029 21.1089 18.945 19.7801 16.5737 19.1919C12.5923 18.2043 8.55587 18.1377 4.45532 19.1919C2.08976 19.8002 0 21.1076 0 23.4488V31.4939C0 32.3235 0.676609 33.0001 1.5062 33.0001Z" fill="#86C129"/>
<path fill-rule="evenodd" clip-rule="evenodd" d="M18.1212 32.9999H19.5232C20.3528 32.9999 21.0294 32.3233 21.0294 31.4937V23.4486C21.0294 21.1088 18.9453 19.78 16.574 19.1919C14.3211 18.633 12.0505 18.3691 9.76074 18.4363C11.5762 18.4894 13.3797 18.7472 15.172 19.1919C17.5433 19.78 19.6274 21.1088 19.6274 23.4486V31.4937C19.6274 32.3233 18.9507 32.9999 18.1212 32.9999Z" fill="#2A85FF"/>
<path fill-rule="evenodd" clip-rule="evenodd" d="M3.65625 33.0002H5.89931V25.6444C5.89931 25.025 5.39714 24.5229 4.77783 24.5229C4.15842 24.5229 3.65625 25.0251 3.65625 25.6444V33.0002ZM15.1294 33.0002H17.3724V25.6444C17.3724 25.025 16.8703 24.5229 16.251 24.5229C15.6315 24.5229 15.1294 25.0251 15.1294 25.6444V33.0002Z" fill="#2A85FF"/>
<defs>
<linearGradient id="paint0_linear_82_2424" x1="17.8121" y1="2.97043" x2="41.2297" y2="26.3881" gradientUnits="userSpaceOnUse">
<stop stop-color="#FACE63"/>
<stop offset="1" stop-color="#FFAB32"/>
</linearGradient>
</defs>
</svg>
