<svg width="18" height="18" viewBox="0 0 18 18" fill="none" xmlns="http://www.w3.org/2000/svg">
<path d="M9.00024 0.750003C10.6639 0.750049 12.2887 1.25308 13.6614 2.19308C15.034 3.13308 16.0904 4.46612 16.6919 6.01726C17.2934 7.56839 17.4119 9.26514 17.0318 10.8848C16.6517 12.5045 15.7908 13.9714 14.5621 15.0931C13.3334 16.2147 11.7943 16.9387 10.1468 17.1699C8.49926 17.4012 6.82031 17.1289 5.33029 16.3889C3.84026 15.6489 2.60879 14.4756 1.79748 13.0232C0.986171 11.5708 0.632943 9.90696 0.784152 8.25017C0.792278 8.16025 0.818036 8.07281 0.859954 7.99284C0.901873 7.91287 0.959133 7.84194 1.02846 7.7841C1.09779 7.72626 1.17784 7.68265 1.26402 7.65574C1.35021 7.62884 1.44085 7.61917 1.53078 7.62729C1.6207 7.63542 1.70814 7.66118 1.78811 7.7031C1.86808 7.74502 1.93901 7.80228 1.99685 7.87161C2.05469 7.94094 2.0983 8.02098 2.12521 8.10717C2.15211 8.19335 2.16178 8.284 2.15365 8.37392C2.05935 9.37837 2.18846 10.3912 2.53173 11.3399C2.875 12.2886 3.42393 13.1496 4.13915 13.8611C4.77629 14.5011 5.5339 15.0086 6.36824 15.3543C7.20258 15.7 8.09713 15.8769 9.00024 15.875C10.1722 15.8748 11.3246 15.575 12.348 15.0041C13.3715 14.4331 14.232 13.6101 14.8479 12.613C15.4638 11.616 15.8146 10.4781 15.867 9.30731C15.9194 8.13655 15.6716 6.97183 15.1472 5.92377C14.6228 4.87571 13.8393 3.97908 12.8709 3.31905C11.9025 2.65902 10.7814 2.25749 9.61422 2.1526C8.447 2.0477 7.27233 2.24292 6.20178 2.71972C5.13123 3.19652 4.20033 3.93906 3.49749 4.87684H6.02382C6.19801 4.87689 6.36568 4.94306 6.49296 5.06198C6.62024 5.1809 6.69764 5.34369 6.70951 5.51748C6.72138 5.69126 6.66685 5.86307 6.55692 5.99819C6.447 6.13332 6.28988 6.22168 6.11732 6.24542L6.02382 6.25184H1.89607C1.72993 6.25183 1.56942 6.19166 1.44422 6.08247C1.31901 5.97327 1.23758 5.82243 1.21499 5.65784L1.20857 5.56434V1.43934C1.20862 1.26515 1.27479 1.09747 1.39371 0.970194C1.51263 0.842914 1.67543 0.765519 1.84921 0.753646C2.02299 0.741773 2.1948 0.796309 2.32993 0.906233C2.46505 1.01616 2.55341 1.17327 2.57715 1.34584L2.58357 1.43934L2.58265 3.81442C3.35549 2.85666 4.33312 2.08425 5.44369 1.55395C6.55427 1.02364 7.76955 0.748934 9.00024 0.750003V0.750003ZM8.31274 4.41667C8.47887 4.41668 8.63938 4.47684 8.76459 4.58604C8.88979 4.69524 8.97122 4.84608 8.99382 5.01067L9.00024 5.10417V9H11.0627C11.2369 9.00006 11.4046 9.06623 11.5319 9.18515C11.6592 9.30406 11.7366 9.46686 11.7484 9.64064C11.7603 9.81443 11.7058 9.98624 11.5958 10.1214C11.4859 10.2565 11.3288 10.3448 11.1562 10.3686L11.0627 10.375H8.31274C8.1466 10.375 7.98609 10.3148 7.86088 10.2056C7.73568 10.0964 7.65425 9.94559 7.63165 9.781L7.62524 9.6875V5.10417C7.62524 4.92183 7.69767 4.74697 7.8266 4.61803C7.95553 4.4891 8.1304 4.41667 8.31274 4.41667V4.41667Z" fill="white"/>
</svg>
