<svg width="17" height="17" viewBox="0 0 17 17" fill="none" xmlns="http://www.w3.org/2000/svg">
<path d="M8.49999 0.333987C10.1637 0.334034 11.7885 0.837066 13.1611 1.77706C14.5338 2.71706 15.5902 4.05011 16.1917 5.60124C16.7932 7.15237 16.9117 8.84912 16.5316 10.4688C16.1515 12.0885 15.2906 13.5554 14.0619 14.677C12.8332 15.7987 11.2941 16.5226 9.64654 16.7539C7.99902 16.9852 6.32007 16.7129 4.83004 15.9729C3.34002 15.2329 2.10854 14.0596 1.29723 12.6072C0.485927 11.1547 0.132699 9.49094 0.283908 7.83416C0.292034 7.74423 0.317791 7.65679 0.35971 7.57682C0.401629 7.49685 0.458889 7.42592 0.528219 7.36809C0.59755 7.31025 0.677594 7.26663 0.763781 7.23972C0.849968 7.21282 0.940611 7.20315 1.03053 7.21128C1.12046 7.2194 1.2079 7.24516 1.28787 7.28708C1.36783 7.329 1.43876 7.38626 1.4966 7.45559C1.55444 7.52492 1.59806 7.60496 1.62496 7.69115C1.65187 7.77734 1.66153 7.86798 1.65341 7.95791C1.5591 8.96236 1.68821 9.97523 2.03149 10.9239C2.37476 11.8726 2.92369 12.7335 3.63891 13.4451C4.27605 14.0851 5.03366 14.5926 5.868 14.9383C6.70234 15.2839 7.59688 15.4609 8.49999 15.459C9.67192 15.4588 10.8243 15.1589 11.8478 14.588C12.8713 14.0171 13.7318 13.1941 14.3477 12.197C14.9636 11.2 15.3144 10.062 15.3667 8.89129C15.4191 7.72053 15.1714 6.55582 14.647 5.50775C14.1226 4.45969 13.339 3.56307 12.3706 2.90304C11.4022 2.24301 10.2812 1.84148 9.11398 1.73658C7.94675 1.63169 6.77209 1.82691 5.70154 2.3037C4.63098 2.7805 3.70009 3.52304 2.99724 4.46082H5.52358C5.69776 4.46087 5.86544 4.52705 5.99272 4.64596C6.12 4.76488 6.19739 4.92768 6.20927 5.10146C6.22114 5.27524 6.1666 5.44706 6.05668 5.58218C5.94675 5.7173 5.78964 5.80566 5.61707 5.8294L5.52358 5.83582H1.39582C1.22969 5.83581 1.06918 5.77565 0.943972 5.66645C0.818766 5.55725 0.737336 5.40641 0.714742 5.24182L0.708325 5.14832V1.02332C0.708378 0.849133 0.774549 0.681458 0.893467 0.554179C1.01238 0.426899 1.17518 0.349503 1.34897 0.33763C1.52275 0.325758 1.69456 0.380293 1.82968 0.490217C1.96481 0.600141 2.05317 0.757258 2.07691 0.929821L2.08332 1.02332L2.08241 3.3984C2.85525 2.44064 3.83288 1.66823 4.94345 1.13793C6.05402 0.607629 7.26931 0.332919 8.49999 0.333987ZM7.81249 4.00065C7.97863 4.00066 8.13914 4.06083 8.26434 4.17002C8.38955 4.27922 8.47098 4.43006 8.49358 4.59465L8.49999 4.68815V8.58399H10.5625C10.7367 8.58404 10.9044 8.65021 11.0316 8.76913C11.1589 8.88805 11.2363 9.05085 11.2482 9.22463C11.2601 9.39841 11.2055 9.57022 11.0956 9.70535C10.9857 9.84047 10.8286 9.92883 10.656 9.95257L10.5625 9.95899H7.81249C7.64636 9.95898 7.48585 9.89882 7.36064 9.78962C7.23543 9.68042 7.154 9.52958 7.13141 9.36499L7.12499 9.27149V4.68815C7.12499 4.50582 7.19742 4.33095 7.32636 4.20202C7.45529 4.07309 7.63016 4.00065 7.81249 4.00065Z" fill="#FCAE34"/>
</svg>
