<svg width="47" height="31" viewBox="0 0 47 31" fill="none" xmlns="http://www.w3.org/2000/svg">
<path d="M34.0334 30.9999H24.7334V11.1764C24.7334 10.7107 24.9748 10.3333 25.2725 10.3333H33.4941C33.792 10.3333 34.0333 10.7108 34.0333 11.1764L34.0334 30.9999Z" fill="#FFBE40"/>
<path d="M34.0336 11.2142V30.9999H31.4603V11.2142C31.4603 10.726 31.2243 10.3333 30.9336 10.3333H33.5069C33.7976 10.3333 34.0336 10.7262 34.0336 11.2142Z" fill="#FCAE30"/>
<path d="M46.9534 31H37.7627V0.75763C37.7627 0.339131 38.0013 0 38.2955 0H46.4205C46.7148 0 46.9533 0.339279 46.9533 0.75763L46.9534 31Z" fill="#AC6CFF"/>
<path d="M46.9538 0.777606V31H44.9193V0.777606C44.9193 0.346713 44.7328 0 44.5029 0H46.5374C46.7673 0 46.9538 0.346864 46.9538 0.777606Z" fill="#9C50FF"/>
<path fill-rule="evenodd" clip-rule="evenodd" d="M10.5147 4.22876C13.1279 4.22876 15.2464 5.71804 15.2464 9.1525C15.2464 12.587 13.128 15.3712 10.5147 15.3712C7.90156 15.3712 5.7832 12.587 5.7832 9.1525C5.7832 5.71804 7.90167 4.22876 10.5147 4.22876V4.22876Z" fill="#FFECE3"/>
<path fill-rule="evenodd" clip-rule="evenodd" d="M10.5145 4.22876C13.1277 4.22876 15.2461 5.71804 15.2461 9.1525C15.2461 12.587 13.1278 15.3712 10.5145 15.3712C10.2763 15.3712 10.0423 15.3479 9.81348 15.3032C12.0942 14.858 13.8441 12.2738 13.8441 9.1525C13.8441 6.03105 12.0943 4.51665 9.81348 4.2664C10.0423 4.24127 10.2763 4.22876 10.5145 4.22876V4.22876Z" fill="#FFDDCE"/>
<path fill-rule="evenodd" clip-rule="evenodd" d="M1.5062 31.0001H19.5228C20.3524 31.0001 21.029 30.3235 21.029 29.4939V21.4488C21.029 19.1089 18.945 17.7801 16.5737 17.1919C12.5923 16.2043 8.55587 16.1377 4.45532 17.1919C2.08976 17.8002 0 19.1076 0 21.4488V29.4939C0 30.3235 0.676609 31.0001 1.5062 31.0001V31.0001Z" fill="#86C129"/>
<path fill-rule="evenodd" clip-rule="evenodd" d="M18.1212 30.9999H19.5232C20.3528 30.9999 21.0294 30.3233 21.0294 29.4937V21.4486C21.0294 19.1088 18.9453 17.78 16.574 17.1919C14.3211 16.633 12.0505 16.3691 9.76074 16.4363C11.5762 16.4894 13.3797 16.7472 15.172 17.1919C17.5433 17.78 19.6274 19.1088 19.6274 21.4486V29.4937C19.6274 30.3233 18.9507 30.9999 18.1212 30.9999Z" fill="#2A85FF"/>
<path fill-rule="evenodd" clip-rule="evenodd" d="M3.65625 31.0002H5.89931V23.6444C5.89931 23.025 5.39714 22.5229 4.77783 22.5229C4.15842 22.5229 3.65625 23.0251 3.65625 23.6444V31.0002ZM15.1294 31.0002H17.3724V23.6444C17.3724 23.025 16.8703 22.5229 16.251 22.5229C15.6315 22.5229 15.1294 23.0251 15.1294 23.6444V31.0002Z" fill="#2A85FF"/>
</svg>
