<svg width="37" height="32" viewBox="0 0 37 32" fill="none" xmlns="http://www.w3.org/2000/svg">
<path fill-rule="evenodd" clip-rule="evenodd" d="M12.1752 0C15.2011 0 17.6542 1.72452 17.6542 5.70147C17.6542 9.67842 15.2013 12.9025 12.1752 12.9025C9.14925 12.9025 6.69629 9.67842 6.69629 5.70147C6.69629 1.72439 9.14925 0 12.1752 0Z" fill="#FFECE3"/>
<path fill-rule="evenodd" clip-rule="evenodd" d="M12.175 0C15.2009 0 17.654 1.72452 17.654 5.70147C17.654 9.67842 15.2011 12.9025 12.175 12.9025C11.8992 12.9025 11.6282 12.8754 11.3633 12.8237C14.0042 12.3082 16.0305 9.31584 16.0305 5.70147C16.0305 2.08698 14.0042 0.333361 11.3633 0.0435879C11.6282 0.0144889 11.8992 0 12.175 0Z" fill="#FFDDCE"/>
<path fill-rule="evenodd" clip-rule="evenodd" d="M1.74412 31H22.6066C23.5672 31 24.3507 30.2165 24.3507 29.2558V19.9399C24.3507 17.2304 21.9374 15.6918 19.1916 15.0107C14.5813 13.8671 9.90732 13.7899 5.15905 15.0107C2.41985 15.715 0 17.2289 0 19.9399V29.2558C0.000121753 30.2165 0.783481 31 1.74412 31Z" fill="#86C129"/>
<path fill-rule="evenodd" clip-rule="evenodd" d="M20.9827 31H22.6062C23.5668 31 24.3503 30.2165 24.3503 29.2559V19.9399C24.3503 17.2305 21.937 15.6919 19.1913 15.0108C16.5824 14.3637 13.9532 14.0581 11.3018 14.1359C13.404 14.1974 15.4924 14.4959 17.5678 15.0108C20.3136 15.6919 22.7269 17.2305 22.7269 19.9399V29.2559C22.727 30.2165 21.9434 31 20.9827 31Z" fill="#2A85FF"/>
<path fill-rule="evenodd" clip-rule="evenodd" d="M4.23352 31H6.83088V22.4823C6.83088 21.7651 6.24939 21.1836 5.53214 21.1836C4.81489 21.1836 4.2334 21.7651 4.2334 22.4823V31H4.23352ZM17.519 31H20.1164V22.4823C20.1164 21.7651 19.5349 21.1836 18.8176 21.1836C18.1004 21.1836 17.5189 21.7651 17.5189 22.4823V31H17.519Z" fill="#2A85FF"/>
<path d="M17.9854 15.0239L20.9377 14.2324L24.104 26.0417L21.1516 26.8333L17.9854 15.0239Z" fill="#F0FAFA"/>
<path d="M25.6289 13.2324L28.6393 12.7006L30.7665 24.7423L27.7561 25.274L25.6289 13.2324Z" fill="#F0FAFA"/>
<path d="M27.5523 24.1817L28.6633 17.8818C28.6865 17.75 28.6836 17.6149 28.6546 17.4843C28.6256 17.3536 28.5712 17.23 28.4944 17.1204C28.4176 17.0108 28.32 16.9174 28.2071 16.8455C28.0943 16.7737 27.9683 16.7247 27.8366 16.7015L26.1826 16.4097L27.5523 24.1817Z" fill="#DFF0F0"/>
<path d="M31.2783 14.2429L34.7905 14.8633L32.8406 25.9015L29.3284 25.2811L31.2783 14.2429Z" fill="#BED2FF"/>
<path d="M23.6426 17.0051L27.6565 17.7142L26.2384 25.7419L22.2245 25.0329L23.6426 17.0051Z" fill="#BED2FF"/>
<path d="M18.4902 19.3269H34.7902V31.0425H18.4902V19.3269Z" fill="#FBD986"/>
<path d="M19.5098 19.3269H34.791V31.0425H19.5098V19.3269Z" fill="#FACE63"/>
<path d="M18.4902 19.3269H34.7902V25.4394H18.4902V19.3269Z" fill="#FAB450"/>
<path d="M36.8281 24.4207H16.4531L18.4906 19.3269H34.7906L36.8281 24.4207Z" fill="#FBD986"/>
<path d="M19.5092 19.3269L17.4717 24.4207H36.8279L34.7904 19.3269H19.5092Z" fill="#FACE63"/>
</svg>
