<svg width="69" height="31" viewBox="0 0 69 31" fill="none" xmlns="http://www.w3.org/2000/svg">
<path fill-rule="evenodd" clip-rule="evenodd" d="M12.1752 0C15.2011 0 17.6542 1.72451 17.6542 5.70147C17.6542 9.67842 15.2013 12.9025 12.1752 12.9025C9.14925 12.9025 6.69629 9.67842 6.69629 5.70147C6.69629 1.72451 9.14938 0 12.1752 0Z" fill="#FFECE3"/>
<path fill-rule="evenodd" clip-rule="evenodd" d="M12.175 0C15.2009 0 17.654 1.72451 17.654 5.70147C17.654 9.67842 15.2011 12.9025 12.175 12.9025C11.8992 12.9025 11.6282 12.8754 11.3633 12.8237C14.0042 12.3082 16.0306 9.31584 16.0306 5.70147C16.0306 2.08697 14.0044 0.333361 11.3633 0.0435877C11.6282 0.0144886 11.8992 0 12.175 0Z" fill="#FFDDCE"/>
<path fill-rule="evenodd" clip-rule="evenodd" d="M1.74412 31H22.6066C23.5672 31 24.3507 30.2165 24.3507 29.2558V19.9399C24.3507 17.2304 21.9374 15.6918 19.1916 15.0107C14.5813 13.8671 9.90732 13.7899 5.15906 15.0107C2.41985 15.715 0 17.2289 0 19.9399V29.2558C0 30.2165 0.783483 31 1.74412 31Z" fill="#86C129"/>
<path fill-rule="evenodd" clip-rule="evenodd" d="M20.9827 31H22.6062C23.5668 31 24.3503 30.2165 24.3503 29.2559V19.9399C24.3503 17.2305 21.937 15.6919 19.1913 15.0108C16.5824 14.3637 13.9532 14.0581 11.3018 14.1359C13.404 14.1974 15.4924 14.4959 17.5678 15.0108C20.3136 15.6919 22.7269 17.2305 22.7269 19.9399V29.2559C22.7269 30.2165 21.9434 31 20.9827 31Z" fill="#2A85FF"/>
<path fill-rule="evenodd" clip-rule="evenodd" d="M4.2334 31.0001H6.83076V22.4825C6.83076 21.7652 6.24927 21.1838 5.53214 21.1838C4.81489 21.1838 4.2334 21.7653 4.2334 22.4825V31.0001ZM17.5188 31.0001H20.1161V22.4825C20.1161 21.7652 19.5346 21.1838 18.8175 21.1838C18.1003 21.1838 17.5188 21.7653 17.5188 22.4825V31.0001Z" fill="#2A85FF"/>
<path d="M28.3653 14.3674C27.8906 14.3674 27.5254 14.7326 27.5254 15.2074C27.5254 15.6821 27.8906 16.0838 28.3653 16.0838H41.4756C41.9504 16.0838 42.3521 15.6821 42.3521 15.2074C42.3521 14.7326 41.9504 14.3674 41.4756 14.3674H28.3653Z" fill="#394241"/>
<path d="M38.9184 11.3363C38.5898 11.0077 38.042 11.0077 37.7133 11.3363C37.3846 11.665 37.3846 12.1763 37.7133 12.5415L40.3061 15.2073L37.7133 17.9097C37.3846 18.2384 37.3846 18.7862 37.7133 19.1149C38.042 19.4435 38.5898 19.4435 38.9184 19.0784L42.059 15.8647L42.0956 15.8282C42.4242 15.4995 42.4242 14.9517 42.0956 14.623L38.9184 11.3363Z" fill="#394241"/>
<path d="M41.4756 6.33333C41.9504 6.33333 42.3521 5.93162 42.3521 5.45688C42.3521 4.98213 41.9504 4.61694 41.4756 4.61694H28.3653C27.8906 4.61694 27.5254 4.98213 27.5254 5.45688C27.5254 5.93162 27.8906 6.33333 28.3653 6.33333H41.4756Z" fill="#394241"/>
<path d="M30.9212 9.32786C31.2499 9.69305 31.7977 9.69305 32.1263 9.36438C32.455 9.03571 32.4915 8.48793 32.1629 8.15926L29.5335 5.45686L32.1629 2.79098C32.4915 2.42579 32.455 1.91453 32.1263 1.58586C31.7977 1.25719 31.2499 1.25719 30.9212 1.58586L27.7806 4.83604V4.87256C27.4154 5.20123 27.4154 5.71249 27.7441 6.07768L30.9212 9.32786Z" fill="#394241"/>
<path fill-rule="evenodd" clip-rule="evenodd" d="M56.7221 0C59.748 0 62.2011 1.72452 62.2011 5.70147C62.2011 9.67842 59.7481 12.9025 56.7221 12.9025C53.6961 12.9025 51.2432 9.67842 51.2432 5.70147C51.2432 1.72439 53.6961 0 56.7221 0Z" fill="#FFECE3"/>
<path fill-rule="evenodd" clip-rule="evenodd" d="M56.7219 0C59.7478 0 62.2009 1.72452 62.2009 5.70147C62.2009 9.67842 59.7479 12.9025 56.7219 12.9025C56.4461 12.9025 56.1751 12.8754 55.9102 12.8237C58.5511 12.3082 60.5773 9.31584 60.5773 5.70147C60.5773 2.08698 58.5511 0.333361 55.9102 0.0435879C56.1751 0.0144889 56.4461 0 56.7219 0Z" fill="#FFDDCE"/>
<path fill-rule="evenodd" clip-rule="evenodd" d="M46.291 31H67.1534C68.1141 31 68.8976 30.2165 68.8976 29.2558V19.9399C68.8976 17.2304 66.4843 15.6918 63.7385 15.0107C59.1282 13.8671 54.4542 13.7899 49.7059 15.0107C46.9667 15.715 44.5469 17.2289 44.5469 19.9399V29.2558C44.547 30.2165 45.3304 31 46.291 31Z" fill="#86C129"/>
<path fill-rule="evenodd" clip-rule="evenodd" d="M65.5296 31H67.1531C68.1137 31 68.8972 30.2165 68.8972 29.2559V19.9399C68.8972 17.2305 66.4839 15.6919 63.7381 15.0108C61.1293 14.3637 58.5001 14.0581 55.8486 14.1359C57.9508 14.1974 60.0393 14.4959 62.1147 15.0108C64.8605 15.6919 67.2737 17.2305 67.2737 19.9399V29.2559C67.2738 30.2165 66.4902 31 65.5296 31Z" fill="#2A85FF"/>
<path fill-rule="evenodd" clip-rule="evenodd" d="M48.7804 31H51.3778V22.4823C51.3778 21.7651 50.7963 21.1836 50.079 21.1836C49.3618 21.1836 48.7803 21.7651 48.7803 22.4823V31H48.7804ZM62.0659 31H64.6632V22.4823C64.6632 21.7651 64.0817 21.1836 63.3645 21.1836C62.6473 21.1836 62.0658 21.7651 62.0658 22.4823V31H62.0659Z" fill="#2A85FF"/>
</svg>
