<svg width="30" height="29" viewBox="0 0 30 29" fill="none" xmlns="http://www.w3.org/2000/svg">
<path d="M28.1139 14.113C28.1139 16.7065 27.3449 19.2417 25.9041 21.3981C24.4632 23.5545 22.4153 25.2352 20.0193 26.2277C17.6233 27.2203 14.9867 27.48 12.4431 26.9741C9.89945 26.4682 7.56293 25.2194 5.72901 23.3856C3.89508 21.5519 2.64611 19.2154 2.14003 16.6718C1.63395 14.1282 1.89349 11.4917 2.88583 9.09556C3.87816 6.69946 5.55874 4.65142 7.71503 3.21042C9.87132 1.76943 12.4065 1.0002 14.9999 1C16.7221 0.999869 18.4273 1.33895 20.0184 1.99788C21.6094 2.65681 23.0551 3.62269 24.2729 4.84036C25.4906 6.05802 26.4566 7.50363 27.1157 9.09464C27.7747 10.6856 28.1139 12.3909 28.1139 14.113Z" stroke="#626D6C" stroke-width="2" stroke-linecap="round" stroke-linejoin="round"/>
<path d="M11.184 10.18C11.4923 9.30366 12.1008 8.56472 12.9017 8.09403C13.7026 7.62333 14.6443 7.45126 15.5599 7.60827C16.4755 7.76529 17.306 8.24126 17.9043 8.95191C18.5027 9.66255 18.8302 10.562 18.829 11.491C18.829 14.114 14.895 15.425 14.895 15.425" stroke="#626D6C" stroke-width="2" stroke-linecap="round" stroke-linejoin="round"/>
<circle cx="15.25" cy="20.25" r="1.25" fill="#707070"/>
</svg>
