<svg width="26" height="30" viewBox="0 0 26 30" fill="none" xmlns="http://www.w3.org/2000/svg">
<path d="M21.065 9.75597C21.065 7.66885 20.2359 5.66722 18.7601 4.1914C17.2842 2.71558 15.2826 1.88647 13.1955 1.88647C11.1084 1.88647 9.10673 2.71558 7.63091 4.1914C6.1551 5.66722 5.32599 7.66885 5.32599 9.75597C5.32599 18.937 1.39099 21.556 1.39099 21.556H25C25 21.556 21.065 18.933 21.065 9.75597" stroke="#626D6C" stroke-width="2" stroke-linecap="round" stroke-linejoin="round"/>
<path d="M15.465 26.807C15.2344 27.2045 14.9035 27.5345 14.5053 27.7639C14.1071 27.9933 13.6556 28.114 13.196 28.114C12.7364 28.114 12.285 27.9933 11.8867 27.7639C11.4885 27.5345 11.1576 27.2045 10.927 26.807" stroke="#626D6C" stroke-width="2" stroke-linecap="round" stroke-linejoin="round"/>
</svg>
