<svg width="31" height="31" viewBox="0 0 31 31" fill="none" xmlns="http://www.w3.org/2000/svg">
<path d="M18.89 15.057C18.89 15.8153 18.6652 16.5566 18.2438 17.1872C17.8225 17.8177 17.2237 18.3091 16.523 18.5992C15.8224 18.8894 15.0515 18.9653 14.3077 18.8172C13.564 18.6692 12.8808 18.304 12.3446 17.7677C11.8085 17.2314 11.4434 16.5481 11.2956 15.8044C11.1478 15.0606 11.2238 14.2896 11.5142 13.5891C11.8045 12.8885 12.2961 12.2898 12.9267 11.8687C13.5573 11.4475 14.2987 11.2228 15.057 11.223C16.0737 11.2233 17.0487 11.6273 17.7674 12.3463C18.4862 13.0653 18.89 14.0403 18.89 15.057Z" stroke="#626D6C" stroke-width="2" stroke-linecap="round" stroke-linejoin="round"/>
<path d="M24.513 18.89C24.3429 19.2755 24.2923 19.7031 24.3675 20.1177C24.4427 20.5323 24.6404 20.9148 24.935 21.216L25.012 21.293C25.2529 21.5297 25.4446 21.8117 25.5759 22.1228C25.7072 22.434 25.7756 22.768 25.7771 23.1057C25.7786 23.4434 25.7132 23.7781 25.5847 24.0904C25.4561 24.4027 25.267 24.6864 25.0282 24.9252C24.7894 25.164 24.5057 25.3531 24.1934 25.4817C23.8811 25.6102 23.5464 25.6756 23.2087 25.6741C22.871 25.6726 22.537 25.6042 22.2258 25.4729C21.9147 25.3416 21.6327 25.1499 21.396 24.909L21.319 24.832C21.02 24.5443 20.6433 24.3503 20.2354 24.2741C19.8275 24.1979 19.4062 24.2427 19.0235 24.403C18.6407 24.5633 18.3133 24.8322 18.0815 25.1764C17.8497 25.5206 17.7237 25.9251 17.719 26.34V26.557C17.719 27.2349 17.4497 27.885 16.9704 28.3644C16.491 28.8437 15.8409 29.113 15.163 29.113C14.4851 29.113 13.835 28.8437 13.3556 28.3644C12.8763 27.885 12.607 27.2349 12.607 26.557V26.442C12.5973 26.019 12.4604 25.6086 12.2143 25.2644C11.9682 24.9202 11.6242 24.658 11.227 24.512C10.8415 24.3418 10.4139 24.291 9.99928 24.3663C9.58467 24.4415 9.20212 24.6392 8.901 24.934L8.824 25.011C8.58657 25.249 8.3046 25.4378 7.99418 25.5668C7.68376 25.6958 7.35098 25.7624 7.01483 25.7627C6.33595 25.7635 5.68457 25.4945 5.204 25.015C4.72343 24.5355 4.45302 23.8847 4.45227 23.2058C4.45152 22.5269 4.72049 21.8756 5.2 21.395L5.277 21.318C5.56473 21.019 5.75867 20.6423 5.83489 20.2344C5.91112 19.8265 5.86631 19.4052 5.70598 19.0225C5.54566 18.6397 5.27682 18.3123 4.93263 18.0805C4.58844 17.8487 4.18394 17.7227 3.769 17.718H3.556C2.87811 17.718 2.22798 17.4487 1.74864 16.9694C1.26929 16.49 1 15.8399 1 15.162C1 14.4841 1.26929 13.834 1.74864 13.3546C2.22798 12.8753 2.87811 12.606 3.556 12.606H3.671C4.09404 12.5963 4.50437 12.4594 4.84858 12.2133C5.1928 11.9672 5.45497 11.6232 5.601 11.226C5.77119 10.8405 5.82195 10.4129 5.74673 9.99828C5.67151 9.58367 5.47376 9.20112 5.179 8.9L5.1 8.821C4.61983 8.34122 4.34991 7.69035 4.34963 7.01156C4.34935 6.33277 4.61872 5.68167 5.0985 5.2015C5.57828 4.72133 6.22915 4.45141 6.90794 4.45113C7.58673 4.45085 8.23783 4.72022 8.718 5.2L8.795 5.277C9.09612 5.57176 9.47867 5.76951 9.89328 5.84473C10.3079 5.91995 10.7355 5.86919 11.121 5.699H11.221C11.5986 5.53748 11.9209 5.26915 12.1481 4.92699C12.3753 4.58482 12.4976 4.18373 12.5 3.773V3.556C12.5 2.87811 12.7693 2.22798 13.2486 1.74864C13.728 1.26929 14.3781 1 15.056 1C15.7339 1 16.384 1.26929 16.8634 1.74864C17.3427 2.22798 17.612 2.87811 17.612 3.556V3.671C17.6167 4.08594 17.7427 4.49044 17.9745 4.83463C18.2063 5.17882 18.5337 5.44766 18.9165 5.60798C19.2992 5.76831 19.7205 5.81312 20.1284 5.73689C20.5363 5.66067 20.913 5.46673 21.212 5.179L21.289 5.102C21.5257 4.86108 21.8077 4.66943 22.1188 4.5381C22.43 4.40678 22.764 4.33839 23.1017 4.33689C23.4394 4.33538 23.7741 4.40078 24.0864 4.52932C24.3987 4.65786 24.6824 4.84699 24.9212 5.08579C25.16 5.32459 25.3491 5.60832 25.4777 5.92061C25.6062 6.2329 25.6716 6.56757 25.6701 6.90527C25.6686 7.24298 25.6002 7.57704 25.4689 7.88818C25.3376 8.19931 25.1459 8.48134 24.905 8.718L24.828 8.795C24.5332 9.09612 24.3355 9.47867 24.2603 9.89328C24.185 10.3079 24.2358 10.7355 24.406 11.121V11.221C24.5681 11.5999 24.8376 11.923 25.1814 12.1503C25.5251 12.3776 25.9279 12.4992 26.34 12.5H26.557C27.2349 12.5 27.885 12.7693 28.3644 13.2486C28.8437 13.728 29.113 14.3781 29.113 15.056C29.113 15.7339 28.8437 16.384 28.3644 16.8634C27.885 17.3427 27.2349 17.612 26.557 17.612H26.442C26.0307 17.6135 25.6288 17.7353 25.2859 17.9624C24.943 18.1895 24.6739 18.5119 24.512 18.89H24.513Z" stroke="#626D6C" stroke-width="2" stroke-linecap="round" stroke-linejoin="round"/>
</svg>
